<?xml version="1.0" standalone="no"?>
<!DOCTYPE svg PUBLIC "-//W3C//DTD SVG 1.1//EN" "http://www.w3.org/Graphics/SVG/1.1/DTD/svg11.dtd" >
<svg xmlns="http://www.w3.org/2000/svg" xmlns:xlink="http://www.w3.org/1999/xlink" version="1.1">
<metadata>
Created by FontForge 20170924 at Sun Nov 27 20:42:03 2022
 By www-data
Copyright \(c\) 2022 by Attrack Studio. All rights reserved.
</metadata>
<defs>
<font id="BethanyElingston-Italic" horiz-adv-x="543" >
  <font-face 
    font-family="Bethany Elingston"
    font-weight="400"
    font-style="italic"
    font-stretch="normal"
    units-per-em="1000"
    panose-1="2 0 5 3 0 0 0 9 0 3"
    ascent="800"
    descent="-200"
    x-height="583"
    cap-height="884"
    bbox="-451.634 -352 1349 1142"
    underline-thickness="50"
    underline-position="-125"
    slope="-9"
    stemh="30"
    stemv="102"
    unicode-range="U+000D-FB06"
  />
<missing-glyph horiz-adv-x="250" 
 />
    <glyph glyph-name="fi" unicode="fi" horiz-adv-x="553" 
d="M295 721l-24 -151h104l-4 -28h-104l-83 -523c-29 -185 -110 -279 -238 -279c-70 0 -111 28 -104 67c4 24 24 40 50 40c54 0 67 -70 103 -70c13 0 29 9 37 24c13 22 34 103 44 164l92 577h-82l4 28c68 5 88 59 102 95c8 22 12 33 17 44c45 108 129 175 220 175
c99 0 178 -79 165 -163c-6 -39 -31 -64 -65 -64c-26 0 -47 14 -55 40c-16 55 15 154 -72 154c-57 0 -93 -43 -107 -130zM570 78l18 -14c-17 -23 -32 -39 -47 -51c-26 -20 -56 -30 -83 -30c-35 0 -59 17 -64 46c-3 17 -2 43 4 80l48 304c11 68 -3 98 -61 80l-4 23l191 67
l-73 -462c-1 -9 -6 -39 -4 -58c2 -15 9 -24 20 -24c12 0 28 9 42 23c0 0 7 7 13 16z" />
    <glyph glyph-name="fl" unicode="fl" horiz-adv-x="550" 
d="M617 884l-121 -763c-1 -9 -5 -40 -3 -59c2 -16 8 -23 19 -23c23 0 43 21 55 39l18 -14c-32 -43 -71 -81 -129 -81c-35 0 -59 17 -65 47c-3 17 -2 43 4 79l96 605c10 63 -1 94 -50 83c-10 25 -18 48 -52 48c-47 0 -82 -46 -95 -130l-23 -145h104l-4 -28h-104l-83 -523
c-29 -185 -110 -279 -238 -279c-70 0 -111 28 -104 67c4 24 24 40 50 40c54 0 67 -70 103 -70c13 0 29 9 37 24c13 22 34 103 44 164l92 577h-82l4 28c75 6 91 70 112 120c49 121 137 194 229 194c37 0 73 -12 98 -31z" />
    <glyph glyph-name="uniE042" unicode="fk" horiz-adv-x="850" 
d="M491 714c10 63 -1 94 -50 83c-10 25 -18 48 -52 48c-47 0 -82 -46 -95 -130l-23 -145h104l-4 -28h-104l-83 -523c-29 -185 -110 -279 -238 -279c-70 0 -111 28 -104 67c4 24 24 40 50 40c54 0 67 -70 103 -70c13 0 29 9 37 24c13 22 34 103 44 164l92 577h-82l4 28
c75 6 91 70 112 120c49 121 137 194 229 194c37 0 73 -12 98 -31l88 31l-80 -507c49 126 132 206 217 206c64 0 106 -45 106 -112c0 -89 -76 -149 -214 -173l82 -146c23 -41 48 -84 65 -100c8 -7 16 -10 25 -10c19 0 39 20 49 36l18 -14c-29 -40 -69 -81 -122 -81
c-37 0 -57 15 -83 61c-48 86 -86 156 -135 243c133 36 213 101 213 172c0 36 -20 57 -55 57c-64 0 -121 -70 -179 -219l-47 -297h-99z" />
    <glyph glyph-name="uniE043" unicode="fb" horiz-adv-x="850" 
d="M389 67l102 647c10 63 -1 94 -50 83c-10 25 -18 48 -52 48c-47 0 -82 -46 -95 -130l-23 -145h104l-4 -28h-104l-83 -523c-29 -185 -110 -279 -238 -279c-70 0 -111 28 -104 67c4 24 24 40 50 40c54 0 67 -70 103 -70c13 0 29 9 37 24c13 22 34 103 44 164l92 577h-82
l4 28c75 6 91 70 112 120c49 121 137 194 229 194c37 0 73 -12 98 -31l88 31l-74 -468c47 80 116 167 215 167c254 0 152 -600 -176 -600c-75 0 -148 31 -193 84zM530 335l-48 -302c24 -14 51 -21 78 -21c138 0 209 166 226 281c18 119 -19 213 -83 213
c-56 0 -127 -73 -173 -171z" />
    <glyph glyph-name="uniE044" unicode="fh" horiz-adv-x="876" 
d="M491 714c10 63 -1 94 -50 83c-10 25 -18 48 -52 48c-47 0 -82 -46 -95 -130l-23 -145h104l-4 -28h-104l-83 -523c-29 -185 -110 -279 -238 -279c-70 0 -111 28 -104 67c4 24 24 40 50 40c54 0 67 -70 103 -70c13 0 29 9 37 24c13 22 34 103 44 164l92 577h-82l4 28
c75 6 91 70 112 120c49 121 137 194 229 194c37 0 73 -12 98 -31l88 31l-81 -508c50 123 144 207 235 207c83 0 114 -69 93 -200l-42 -262c-1 -9 -5 -40 -3 -59c2 -16 8 -23 19 -23c21 0 44 22 55 39l18 -14c-32 -43 -71 -81 -129 -81c-35 0 -59 17 -65 47c-3 17 -2 43 4 79
l44 278c14 87 -2 129 -50 129c-66 0 -137 -81 -191 -219l-47 -297h-99z" />
    <glyph glyph-name="f_f" unicode="ff" horiz-adv-x="763" 
d="M492 542h-225l-74 -467c-29 -185 -110 -279 -238 -279c-70 0 -111 28 -104 67c4 24 24 40 50 40c54 0 67 -70 103 -70c13 0 29 9 37 24c13 22 34 103 44 164l83 521h-82l4 28c82 7 94 79 118 137c44 105 133 177 217 177c55 0 102 -31 114 -70c17 -55 -25 -83 -59 -83
c-11 0 -21 3 -28 8c-36 27 -12 106 -72 106c-44 0 -72 -41 -86 -130l-23 -145h143c75 6 91 70 112 120c49 121 137 194 229 194c60 0 117 -31 129 -69c16 -52 -24 -79 -57 -79c-10 0 -19 3 -26 8c-35 25 -21 101 -85 101c-50 0 -85 -46 -98 -130l-23 -145h104l-4 -28h-104
l-83 -523c-29 -185 -110 -279 -238 -279c-70 0 -111 28 -104 67c4 24 24 40 50 40c54 0 67 -70 103 -70c13 0 29 9 37 24c13 22 34 103 44 164z" />
    <glyph glyph-name="f_f_i" unicode="ffi" horiz-adv-x="877" 
d="M619 721l-24 -151h104l-4 -28h-104l-83 -523c-29 -185 -110 -279 -238 -279c-70 0 -111 28 -104 67c4 24 24 40 50 40c54 0 67 -70 103 -70c13 0 29 9 37 24c13 22 34 103 44 164l92 577h-225l-74 -467c-29 -185 -110 -279 -238 -279c-70 0 -111 28 -104 67
c4 24 24 40 50 40c54 0 67 -70 103 -70c13 0 29 9 37 24c13 22 34 103 44 164l83 521h-82l4 28c82 7 94 79 118 137c44 105 133 177 217 177c55 0 102 -31 114 -70c22 -72 -56 -98 -87 -75c-36 27 -12 106 -72 106c-44 0 -72 -41 -86 -130l-23 -145h143c75 6 90 70 109 116
c1 3 2 5 3 7l8 19c43 104 126 172 218 172c100 0 179 -79 166 -163c-6 -39 -31 -64 -65 -64c-26 0 -47 14 -55 40c-16 55 15 154 -72 154c-57 0 -93 -43 -107 -130zM894 78l18 -14c-17 -23 -32 -39 -47 -51c-26 -20 -56 -30 -83 -30c-35 0 -59 17 -64 46c-3 17 -2 43 4 80
l48 304c11 68 -3 98 -61 80l-4 23l191 67l-73 -462c-1 -9 -6 -39 -4 -58c2 -15 9 -24 20 -24c12 0 28 9 42 23c0 0 7 7 13 16z" />
    <glyph glyph-name=".notdef" horiz-adv-x="250" 
 />
    <glyph glyph-name="uni0000" horiz-adv-x="0" 
 />
    <glyph glyph-name="uni0000" horiz-adv-x="0" 
 />
    <glyph glyph-name="uni000D" unicode="&#xd;" horiz-adv-x="250" 
 />
    <glyph glyph-name="space" unicode=" " horiz-adv-x="190" 
 />
    <glyph glyph-name="A" unicode="A" horiz-adv-x="683" 
d="M681 22l-3 -22h-252l3 22c56 0 82 37 73 94l-18 113h-280l-50 -110c-31 -66 -16 -97 45 -97l-3 -22h-191l3 22c43 0 81 30 112 97l351 765h22l123 -772c11 -70 20 -90 65 -90zM221 264h258l-66 420z" />
    <glyph glyph-name="B" unicode="B" horiz-adv-x="607" 
d="M295 0h-282l3 22c78 13 79 60 88 114l96 612c9 54 22 101 -50 114l3 22h242c194 0 293 -77 274 -196c-14 -88 -87 -165 -180 -190c110 -23 171 -130 151 -256c-23 -150 -147 -242 -345 -242zM319 846l-51 -320c37 -9 61 -13 88 -13c113 0 192 71 208 169
c16 102 -46 172 -171 172c-26 0 -49 -3 -74 -8zM261 480l-69 -434c26 -11 52 -16 85 -16c136 0 229 88 250 222c22 141 -51 232 -212 232c-17 0 -35 -1 -54 -4z" />
    <glyph glyph-name="C" unicode="C" horiz-adv-x="618" 
d="M694 636l-23 -4c-11 143 -74 216 -175 216c-166 0 -279 -184 -309 -374c-32 -201 29 -409 218 -409c89 0 161 46 219 141l20 -8c-78 -142 -184 -215 -312 -215c-220 0 -294 224 -259 448c36 226 184 453 411 453c92 0 139 -40 176 -40c18 0 30 12 38 40h21z" />
    <glyph glyph-name="D" unicode="D" horiz-adv-x="676" 
d="M154 884h249c254 0 381 -173 338 -441c-42 -267 -224 -443 -474 -443h-253l3 22c78 13 79 60 88 114l96 612c9 54 22 101 -50 114zM395 854c-24 0 -50 -3 -75 -8l-127 -800c26 -11 48 -16 82 -16c185 0 311 148 350 390c40 256 -48 434 -230 434z" />
    <glyph glyph-name="E" unicode="E" horiz-adv-x="567" 
d="M536 548l-31 -193h-22c-1 75 -37 79 -101 79h-128l-53 -335c-9 -54 2 -66 45 -66h123c108 0 152 73 205 159l19 -8l-72 -184h-508l3 22c78 13 79 60 88 114l96 612c9 54 22 101 -50 114l3 22h509l-20 -176h-22c3 103 -28 143 -112 143h-188l-61 -382h128
c64 0 102 4 127 79h22z" />
    <glyph glyph-name="F" unicode="F" horiz-adv-x="565" 
d="M254 0h-241l3 22c78 13 79 60 88 114l96 612c9 54 22 101 -50 114l3 22h539l-20 -176h-22c3 103 -28 143 -112 143h-218l-62 -392h128c64 0 101 4 126 79h22l-30 -193h-22c-1 75 -38 79 -102 79h-128l-45 -288c-9 -54 -22 -101 50 -114z" />
    <glyph glyph-name="G" unicode="G" horiz-adv-x="701" 
d="M708 636l-23 -4c-11 143 -84 216 -186 216c-149 0 -278 -157 -314 -385c-45 -285 97 -415 241 -415c39 0 78 10 114 29l38 240c9 54 22 101 -51 114l4 22h237l-4 -22c-77 -13 -78 -60 -87 -114l-22 -139c-71 -130 -180 -195 -304 -195c-208 0 -320 180 -278 444
c42 266 215 457 415 457c92 0 149 -40 186 -40c18 0 30 12 38 40h21z" />
    <glyph glyph-name="H" unicode="H" horiz-adv-x="707" 
d="M249 405l-42 -269c-9 -54 -22 -101 50 -114l-3 -22h-241l3 22c78 13 79 60 88 114l96 612c9 54 22 101 -50 114l3 22h241l-3 -22c-78 -13 -79 -60 -88 -114l-48 -308h346l48 308c9 54 22 101 -50 114l3 22h241l-3 -22c-78 -13 -79 -60 -88 -114l-96 -612
c-9 -54 -22 -101 50 -114l-3 -22h-241l3 22c78 13 79 60 88 114l42 269h-346z" />
    <glyph glyph-name="I" unicode="I" horiz-adv-x="258" 
d="M303 748l-96 -612c-9 -54 -22 -101 50 -114l-3 -22h-241l3 22c78 13 79 60 88 114l96 612c9 54 22 101 -50 114l3 22h241l-3 -22c-78 -13 -79 -60 -88 -114z" />
    <glyph glyph-name="J" unicode="J" horiz-adv-x="505" 
d="M361 205l86 543c9 54 22 101 -50 114l3 22h241l-3 -22c-78 -13 -79 -60 -88 -114l-79 -503c-27 -172 -119 -262 -266 -262c-107 0 -182 48 -182 116c0 37 25 73 64 73c17 0 32 -8 42 -22c35 -48 -14 -133 87 -133c82 0 125 56 145 188z" />
    <glyph glyph-name="K" unicode="K" horiz-adv-x="670" 
d="M256 451l-49 -315c-9 -54 -22 -101 50 -114l-3 -22h-241l3 22c78 13 79 60 88 114l96 612c9 54 22 101 -50 114l3 22h241l-3 -22c-78 -13 -79 -60 -88 -114l-45 -286l287 274c69 67 83 126 20 126l3 22h213l-3 -22c-71 0 -149 -86 -214 -148l-212 -204l184 -340
c57 -105 93 -140 133 -148l-3 -22h-165z" />
    <glyph glyph-name="L" unicode="L" horiz-adv-x="597" 
d="M153 884h250l-3 -22c-78 -13 -79 -60 -88 -114l-102 -649c-9 -54 2 -66 45 -66h143c108 0 152 73 205 159l19 -8l-72 -184h-537l3 22c78 13 79 60 88 114l96 612c9 54 22 101 -50 114z" />
    <glyph glyph-name="M" unicode="M" horiz-adv-x="830" 
d="M676 136l98 622l-357 -758h-22l-140 747l-96 -611c-9 -54 -2 -101 70 -114l-3 -22h-213l3 22c78 13 99 60 108 114l96 612c9 54 2 101 -70 114l3 22h181l139 -700l321 700h172l-3 -22c-78 -13 -79 -60 -88 -114l-96 -612c-9 -54 -22 -101 50 -114l-3 -22h-241l3 22
c78 13 79 60 88 114z" />
    <glyph glyph-name="N" unicode="N" horiz-adv-x="739" 
d="M256 752l-97 -616c-9 -54 -2 -101 70 -114l-3 -22h-213l3 22c78 13 99 60 108 114l96 612c9 54 2 101 -70 114l3 22h171l314 -672l84 536c9 54 2 101 -70 114l3 22h213l-3 -22c-78 -13 -99 -60 -108 -114l-121 -765h-22z" />
    <glyph glyph-name="O" unicode="O" horiz-adv-x="657" 
d="M326 -17c-194 0 -295 181 -252 452c42 265 196 449 395 449c198 0 294 -184 252 -450s-197 -451 -395 -451zM462 850c-127 0 -232 -164 -272 -413c-40 -251 15 -420 142 -420s233 167 273 416c39 250 -15 417 -143 417z" />
    <glyph glyph-name="P" unicode="P" horiz-adv-x="601" 
d="M13 0l3 22c78 13 79 60 88 114l96 612c9 54 22 101 -50 114l3 22h282c189 0 284 -106 256 -284s-158 -300 -318 -300c-43 0 -86 9 -136 28l-30 -192c-9 -54 -22 -101 50 -114l-3 -22h-241zM333 342c122 0 220 107 245 267c25 155 -38 245 -172 245c-32 0 -60 -5 -88 -16
l-75 -472c34 -17 59 -24 90 -24z" />
    <glyph glyph-name="Q" unicode="Q" horiz-adv-x="667" 
d="M580 -119c27 0 51 16 68 46l20 -6c-25 -66 -83 -111 -144 -111c-42 0 -80 21 -111 61l-89 112c-193 4 -292 189 -250 452c42 265 201 449 400 449c198 0 299 -184 257 -450c-34 -213 -142 -374 -286 -430l64 -81c23 -29 46 -42 71 -42zM467 850
c-127 0 -237 -164 -277 -413c-40 -251 20 -420 147 -420s238 167 278 416c39 250 -20 417 -148 417z" />
    <glyph glyph-name="R" unicode="R" horiz-adv-x="661" 
d="M254 0h-241l3 22c78 13 79 60 88 114l96 612c9 54 22 101 -50 114l3 22h282c178 0 272 -92 249 -243c-22 -133 -128 -246 -271 -262l114 -209c54 -100 91 -140 133 -148l-3 -22h-165l-200 367c-14 -2 -31 -4 -50 -9l-35 -222c-9 -54 -22 -101 50 -114zM299 400
c142 0 248 90 270 232c21 133 -45 222 -166 222c-29 0 -57 -5 -85 -16l-69 -434c19 -3 35 -4 50 -4z" />
    <glyph glyph-name="S" unicode="S" horiz-adv-x="512" 
d="M55 229h22c3 -125 80 -211 186 -211c88 0 154 59 169 150c37 237 -353 239 -311 499c20 126 126 217 253 217c85 0 132 -40 168 -40c19 0 31 12 39 40h21l-25 -248l-23 -3c-11 139 -71 215 -171 215c-85 0 -154 -56 -166 -136c-33 -206 365 -229 323 -499
c-21 -134 -136 -230 -275 -230c-97 0 -134 46 -174 46c-22 0 -39 -14 -53 -46h-22z" />
    <glyph glyph-name="T" unicode="T" horiz-adv-x="638" 
d="M307 850c-96 0 -141 -38 -169 -142h-22l36 176h614l-20 -176h-22c6 104 -27 142 -123 142h-94l-113 -714c-9 -54 -22 -101 50 -114l-3 -22h-241l3 22c78 13 79 60 88 114l113 714h-97z" />
    <glyph glyph-name="U" unicode="U" horiz-adv-x="724" 
d="M304 748l-71 -450c-27 -174 27 -262 163 -262s220 89 247 262l71 450c11 69 -10 103 -70 114l3 22h213l-3 -22c-64 -11 -97 -45 -108 -114l-71 -450c-34 -215 -137 -315 -324 -315s-258 100 -224 315l71 450c9 54 22 101 -50 114l3 22h241l-3 -22
c-78 -13 -79 -60 -88 -114z" />
    <glyph glyph-name="V" unicode="V" horiz-adv-x="688" 
d="M142 862l3 22h252l-3 -22c-56 0 -72 -37 -64 -94l84 -580l260 577c30 66 16 97 -45 97l3 22h191l-3 -22c-43 0 -81 -30 -112 -97l-354 -782h-22l-115 789c-10 70 -25 90 -75 90z" />
    <glyph glyph-name="W" unicode="W" horiz-adv-x="991" 
d="M142 862l3 22h252l-3 -22c-56 0 -72 -37 -64 -94l84 -580l163 362l-27 222c-8 70 -25 90 -75 90l3 22h251l-3 -22c-56 0 -70 -37 -64 -94l65 -573l249 570c29 66 16 97 -45 97l3 22h191l-3 -22c-43 0 -82 -30 -112 -97l-344 -782h-22l-60 507l-230 -507h-22l-115 789
c-10 70 -25 90 -75 90z" />
    <glyph glyph-name="X" unicode="X" horiz-adv-x="678" 
d="M143 119l219 304l-124 351c-23 64 -38 88 -88 88l3 22h252l-3 -22c-56 0 -68 -35 -49 -88l87 -245l170 236c45 62 35 97 -26 97l3 22h191l-3 -22c-43 0 -82 -35 -127 -97l-196 -271l136 -384c23 -64 38 -88 88 -88l-3 -22h-252l3 22c56 0 68 35 49 88l-98 277l-194 -268
c-45 -62 -35 -97 26 -97l-3 -22h-191l3 22c43 0 82 35 127 97z" />
    <glyph glyph-name="Y" unicode="Y" horiz-adv-x="742" 
d="M483 389l226 376c40 66 32 97 -27 97l3 22h191l-3 -22c-44 0 -91 -35 -128 -97l-259 -430l-31 -199c-9 -54 -22 -101 50 -114l-3 -22h-241l3 22c78 13 79 60 88 114l31 199l-154 439c-22 64 -37 88 -87 88l3 22h252l-3 -22c-51 0 -66 -29 -45 -88z" />
    <glyph glyph-name="Z" unicode="Z" horiz-adv-x="571" 
d="M571 851h-274c-84 0 -129 -40 -158 -143h-22l36 176h545l-3 -22l-563 -829h241c108 0 152 73 205 159l19 -8l-72 -184h-520l3 22z" />
    <glyph glyph-name="period" unicode="." horiz-adv-x="153" 
d="M95 121c33 0 58 -28 51 -68c-6 -38 -40 -70 -73 -70c-35 0 -55 33 -50 70c7 39 37 68 72 68z" />
    <glyph glyph-name="a" unicode="a" 
d="M455 535l107 48l-73 -462c-1 -9 -5 -40 -3 -59c2 -15 8 -23 19 -23c12 0 29 9 39 20c3 3 10 10 16 19l18 -14c-17 -23 -32 -39 -47 -51c-25 -19 -54 -30 -82 -30c-35 0 -59 17 -65 47c-3 17 -2 43 4 79l6 39c-47 -80 -116 -165 -214 -165c-261 0 -134 600 162 600
c44 0 78 -14 113 -48zM407 228l38 242c-17 55 -46 80 -90 80c-94 0 -180 -117 -203 -277c-17 -119 20 -213 83 -213c55 0 126 71 172 168z" />
    <glyph glyph-name="b" unicode="b" horiz-adv-x="555" 
d="M322 884l-74 -468c47 80 116 167 215 167c254 0 152 -600 -176 -600c-75 0 -148 31 -193 84l102 647c11 68 -3 98 -61 80l-5 23zM235 335l-48 -302c24 -14 51 -21 78 -21c138 0 208 166 226 281c17 119 -19 213 -83 213c-56 0 -127 -73 -173 -171z" />
    <glyph glyph-name="c" unicode="c" horiz-adv-x="478" 
d="M327 554c-91 0 -167 -88 -187 -219c-23 -149 42 -259 154 -259c70 0 132 42 173 119l20 -4c-46 -129 -140 -208 -251 -208c-137 0 -215 119 -187 294c28 178 148 306 292 306c89 0 161 -49 163 -111c2 -51 -31 -72 -61 -72c-16 0 -31 6 -39 17c-30 40 18 137 -77 137z
" />
    <glyph glyph-name="d" unicode="d" 
d="M489 121c-1 -9 -5 -40 -3 -59c2 -16 8 -23 19 -23c21 0 44 22 55 39l18 -14c-32 -43 -71 -81 -129 -81c-35 0 -59 17 -65 47c-3 17 -2 43 4 79l6 39c-47 -80 -116 -165 -214 -165c-261 0 -134 600 162 600c45 0 79 -13 114 -48l28 179c9 55 1 85 -32 85
c-8 0 -18 -2 -29 -5l-5 23l192 67zM407 229l38 240c-17 55 -46 81 -90 81c-94 0 -180 -117 -203 -277c-17 -119 20 -213 83 -213c55 0 126 72 172 169z" />
    <glyph glyph-name="e" unicode="e" horiz-adv-x="472" 
d="M467 195l20 -4c-46 -129 -140 -208 -251 -208c-137 0 -215 119 -187 294c28 178 148 306 292 306c91 0 156 -50 156 -120c0 -26 -9 -53 -27 -79c-48 -72 -144 -112 -333 -135c9 -103 68 -173 157 -173c70 0 132 42 173 119zM378 396c27 46 28 90 11 120
c-14 25 -39 38 -69 38c-14 0 -29 -3 -44 -9c-101 -40 -141 -173 -141 -274c120 16 204 60 243 125z" />
    <glyph glyph-name="f" unicode="f" horiz-adv-x="439" 
d="M267 542l-83 -523c-29 -185 -110 -279 -238 -279c-70 0 -111 28 -104 67c4 24 24 40 50 40c54 0 67 -70 103 -70c13 0 29 9 37 24c13 22 34 103 44 164l92 577h-82l4 28c75 6 91 70 112 120c49 121 137 194 229 194c60 0 117 -31 129 -69c21 -68 -54 -93 -83 -71
c-35 25 -21 101 -85 101c-50 0 -85 -46 -98 -130l-23 -145h104l-4 -28h-104z" />
    <glyph glyph-name="g" unicode="g" horiz-adv-x="541" 
d="M294 153c-48 0 -85 11 -114 30c-14 -17 -24 -34 -27 -49c-8 -50 84 -44 138 -44c94 0 267 18 244 -131c-24 -146 -198 -219 -354 -219c-131 0 -214 52 -202 127c11 72 104 121 150 144c-38 11 -65 30 -59 64c6 38 51 86 92 122c-46 42 -62 108 -51 176
c18 112 105 210 251 210c26 0 51 -3 73 -10l164 41c44 7 46 -72 -1 -72l-104 1c35 -28 56 -73 56 -131c0 -143 -110 -259 -256 -259zM299 181c97 0 134 131 144 190c10 63 14 184 -85 184s-133 -121 -143 -184c-10 -59 -12 -190 84 -190zM162 4c-37 -20 -82 -49 -89 -91
c-9 -61 73 -105 191 -105c122 0 220 46 230 111c9 54 -49 78 -196 78c-30 0 -88 -1 -136 7z" />
    <glyph glyph-name="h" unicode="h" horiz-adv-x="582" 
d="M183 0h-99l112 714c11 73 -7 97 -61 80l-5 23l192 67l-80 -510c50 124 144 209 235 209c83 0 114 -69 93 -200l-42 -262c-1 -9 -5 -40 -3 -59c2 -16 8 -23 19 -23c12 0 28 9 39 20c3 3 10 10 16 19l18 -14c-17 -23 -32 -39 -47 -51c-25 -20 -54 -30 -82 -30
c-35 0 -59 17 -65 47c-3 17 -2 43 4 79l44 278c14 87 -2 129 -50 129c-66 0 -137 -81 -191 -220z" />
    <glyph glyph-name="i" unicode="i" horiz-adv-x="254" 
d="M246 790c37 0 63 -31 57 -70c-6 -38 -42 -69 -79 -69c-38 0 -65 31 -59 69c6 39 43 70 81 70zM271 78l18 -14c-17 -23 -32 -39 -47 -51c-26 -20 -56 -30 -83 -30c-35 0 -59 17 -64 46c-3 17 -2 43 4 80l48 304c11 68 -3 98 -61 80l-4 23l191 67l-73 -462
c-1 -9 -6 -39 -4 -58c2 -15 9 -24 20 -24c12 0 28 9 42 23c0 0 7 7 13 16z" />
    <glyph glyph-name="j" unicode="j" horiz-adv-x="276" 
d="M259 790c37 0 63 -31 57 -70c-6 -38 -42 -69 -79 -69c-38 0 -65 31 -59 69c6 39 43 70 81 70zM286 583l-89 -564c-29 -185 -110 -279 -240 -279c-74 0 -118 31 -111 73c5 26 26 44 54 44c59 0 74 -77 113 -77c15 0 32 11 41 28c16 31 30 124 35 157l71 448
c9 55 -7 85 -44 85c-9 0 -19 -2 -30 -5l-4 23z" />
    <glyph glyph-name="k" unicode="k" horiz-adv-x="555" 
d="M250 287c133 36 213 101 213 172c0 36 -20 57 -55 57c-65 0 -121 -71 -180 -222l-47 -294h-99l114 714c11 68 -3 98 -61 80l-5 23l192 67l-81 -509c49 127 133 208 218 208c64 0 106 -45 106 -112c0 -89 -76 -149 -214 -173l82 -146c23 -41 48 -84 65 -100
c18 -16 39 -13 58 7c3 3 10 10 16 19l18 -14c-17 -23 -32 -39 -51 -54c-25 -20 -45 -27 -71 -27c-37 0 -57 15 -83 61c-48 86 -86 156 -135 243z" />
    <glyph glyph-name="l" unicode="l" horiz-adv-x="255" 
d="M322 884l-121 -763c-1 -9 -5 -40 -3 -59c2 -16 8 -23 19 -23c12 0 29 9 40 20c3 3 9 10 15 19l18 -14c-17 -23 -32 -39 -47 -51c-25 -20 -54 -30 -82 -30c-35 0 -59 17 -65 47c-3 17 -2 43 4 79l96 605c11 68 -3 98 -61 80l-5 23z" />
    <glyph glyph-name="m" unicode="m" horiz-adv-x="873" 
d="M455 387c14 87 -2 129 -50 129c-68 0 -123 -83 -177 -222l-46 -294h-99l64 413c9 55 1 85 -32 85c-8 0 -18 -2 -29 -5l-4 23l191 67l-33 -209c49 128 133 209 221 209c72 0 105 -53 98 -154c53 93 132 154 209 154c82 0 114 -69 93 -200l-42 -262c-1 -9 -5 -40 -3 -59
c2 -15 8 -23 19 -23c21 0 44 22 55 39l18 -14c-32 -43 -72 -81 -129 -81c-35 0 -59 17 -65 47c-3 17 -2 43 4 79l44 278c14 87 -2 129 -50 129c-55 0 -108 -52 -157 -128l-63 -388h-99z" />
    <glyph glyph-name="n" unicode="n" horiz-adv-x="581" 
d="M470 387c14 87 -2 129 -50 129c-67 0 -138 -83 -192 -222l-46 -294h-99l64 413c11 68 -3 98 -61 80l-4 23l191 67l-33 -211c50 125 144 211 236 211c83 0 114 -69 93 -200l-42 -262c-1 -9 -5 -40 -3 -59c2 -16 8 -23 19 -23c12 0 28 9 39 20c3 3 10 10 16 19l18 -14
c-17 -23 -32 -39 -47 -51c-25 -20 -54 -30 -82 -30c-35 0 -59 17 -65 47c-3 17 -2 43 4 79z" />
    <glyph glyph-name="o" unicode="o" horiz-adv-x="495" 
d="M244 -17c-166 0 -218 150 -193 306c25 157 123 294 288 294s221 -137 196 -294c-25 -156 -125 -306 -291 -306zM249 12c109 0 161 192 175 276c13 86 21 266 -89 266s-160 -180 -173 -266c-14 -84 -22 -276 87 -276z" />
    <glyph glyph-name="p" unicode="p" horiz-adv-x="567" 
d="M75 -124l85 537c9 55 -7 85 -44 85c-9 0 -19 -2 -30 -5l-4 23l204 67l-27 -168c47 80 117 168 216 168c254 0 152 -600 -176 -600c-36 0 -73 7 -105 21l-20 -128c-8 -54 -22 -101 51 -114l-3 -22h-250l3 22c84 11 90 49 100 114zM247 334l-48 -300c24 -14 51 -22 78 -22
c138 0 208 166 226 281c17 119 -19 213 -83 213c-56 0 -127 -74 -173 -172z" />
    <glyph glyph-name="q" unicode="q" horiz-adv-x="552" 
d="M261 -260l3 22c77 13 78 60 87 114l43 272c-47 -80 -116 -165 -214 -165c-261 0 -134 600 162 600c44 0 78 -14 113 -48l107 48l-112 -707c-10 -65 -16 -103 64 -114l-3 -22h-250zM407 228l38 242c-17 55 -46 80 -90 80c-93 0 -180 -117 -203 -277
c-17 -119 19 -213 83 -213c55 0 126 72 172 168z" />
    <glyph glyph-name="r" unicode="r" horiz-adv-x="449" 
d="M82 0l65 413c9 58 -1 85 -32 85c-9 0 -18 -2 -29 -5l-4 23l191 67l-31 -198c48 130 120 198 203 198c111 0 96 -132 13 -132c-45 0 -45 39 -63 55c-5 4 -10 6 -17 6c-6 0 -14 -2 -22 -6c-42 -22 -80 -84 -129 -214l-46 -292h-99z" />
    <glyph glyph-name="s" unicode="s" horiz-adv-x="410" 
d="M428 150c-16 -101 -110 -167 -238 -167c-100 0 -168 40 -168 97c0 33 23 55 55 55s54 -21 60 -59c7 -42 34 -63 82 -63c60 0 102 33 110 85c25 154 -286 141 -256 330c15 95 102 155 225 155c91 0 149 -34 149 -88c0 -36 -26 -54 -55 -54c-25 0 -53 14 -60 59
c-6 38 -26 53 -60 53c-54 0 -101 -37 -109 -86c-21 -135 296 -119 265 -317z" />
    <glyph glyph-name="t" unicode="t" horiz-adv-x="346" 
d="M300 728l-25 -158h127l-4 -28h-127l-63 -394c-10 -64 6 -94 51 -94c31 0 55 15 73 46l20 -6c-26 -67 -85 -111 -149 -111c-74 0 -111 58 -95 153l64 406h-85l4 27c78 6 138 58 182 159h27z" />
    <glyph glyph-name="u" unicode="u" horiz-adv-x="588" 
d="M226 179c-14 -87 2 -129 50 -129c61 0 125 68 177 185l28 178c9 55 1 85 -32 85c-8 0 -18 -2 -29 -5l-4 23l191 67l-73 -462c-1 -9 -6 -40 -4 -58c2 -16 9 -24 20 -24c12 0 28 9 42 23c0 0 7 7 13 16l18 -14c-32 -43 -72 -81 -130 -81c-34 0 -59 17 -64 46
c-3 17 -2 43 4 80l8 52c-52 -107 -138 -178 -221 -178c-82 0 -114 69 -93 200l42 262c1 9 5 40 3 59c-2 15 -8 23 -19 23c-21 0 -44 -22 -55 -39l-18 14c32 43 72 81 129 81c35 0 59 -17 65 -47c3 -17 2 -43 -4 -79z" />
    <glyph glyph-name="v" unicode="v" horiz-adv-x="541" 
d="M587 499c3 -122 -175 -348 -262 -516h-22c-49 196 -86 381 -130 483c-14 33 -36 46 -61 46c-8 0 -18 -2 -27 -5l-4 23l158 53c55 -116 95 -284 136 -461c44 76 111 180 139 242c26 57 22 83 -14 105c-32 20 -46 48 -34 79c9 23 28 35 49 35c45 0 71 -43 72 -84z" />
    <glyph glyph-name="w" unicode="w" horiz-adv-x="794" 
d="M840 499c3 -122 -175 -348 -262 -516h-22c-25 100 -45 209 -63 300c-52 -100 -120 -208 -168 -300h-22c-49 196 -86 381 -130 483c-14 33 -36 46 -61 46c-8 0 -18 -2 -27 -5l-4 23l158 53c55 -116 94 -280 135 -457c37 64 85 149 111 201c-13 66 -25 117 -36 139
c-16 33 -36 45 -60 45c-8 0 -17 -1 -26 -4l-4 23l158 53c55 -116 70 -284 111 -461c44 76 111 180 140 243c25 56 21 82 -15 104c-32 20 -46 48 -34 79c9 23 28 35 49 35c45 0 71 -43 72 -84z" />
    <glyph glyph-name="x" unicode="x" horiz-adv-x="534" 
d="M331 103c-17 33 -33 69 -49 105c-46 -94 -112 -225 -196 -225c-18 0 -34 6 -46 16c-24 21 -26 54 -4 79c11 13 25 19 41 19c14 0 29 -5 46 -15c11 -7 20 -10 29 -10c16 0 29 14 47 47c16 29 40 77 67 126c-34 79 -66 158 -93 221c-14 33 -36 46 -61 46
c-8 0 -18 -2 -27 -5l-4 23l158 53c32 -67 59 -146 89 -225c50 101 105 226 193 226c18 0 34 -6 47 -17c24 -21 26 -54 4 -79c-11 -13 -25 -19 -41 -19c-14 0 -29 5 -46 15c-11 7 -20 10 -29 10c-16 0 -29 -14 -47 -47c-16 -29 -39 -77 -66 -126c18 -46 36 -90 57 -131
c31 -62 65 -147 105 -147c10 0 19 5 33 19c0 0 7 7 13 16l18 -14c-28 -38 -70 -81 -120 -81c-44 0 -69 25 -118 120z" />
    <glyph glyph-name="y" unicode="y" horiz-adv-x="541" 
d="M85 507l-4 23l158 53c55 -116 95 -284 136 -461c44 76 112 180 140 243c26 56 21 82 -15 104c-32 20 -46 48 -34 79c12 30 41 43 71 31c30 -11 49 -42 50 -80c3 -115 -158 -324 -266 -522c-32 -60 -57 -114 -106 -208c-32 -67 -122 -13 -80 39l165 188
c-47 191 -84 370 -127 470c-19 45 -53 52 -88 41z" />
    <glyph glyph-name="z" unicode="z" horiz-adv-x="448" 
d="M458 122c-4 -83 -58 -139 -128 -139c-78 0 -151 70 -227 70c-34 0 -49 -14 -66 -59l-27 12c52 117 161 200 230 259c79 67 131 124 177 195c-14 -4 -30 -5 -47 -5c-66 0 -128 28 -196 28c-37 0 -68 -8 -76 -43l-21 4c4 83 58 139 128 139c78 0 146 -70 224 -70
c43 0 73 20 106 70c-38 -101 -113 -195 -231 -297c-66 -57 -112 -106 -173 -180c13 3 27 5 41 5c60 0 121 -28 189 -28c46 0 69 13 76 43z" />
    <glyph glyph-name="comma" unicode="," horiz-adv-x="154" 
d="M22 -79l-9 19c34 17 52 38 32 53c-13 9 -26 32 -21 62c6 37 36 66 70 66s59 -28 52 -73c-8 -50 -58 -98 -124 -127z" />
    <glyph glyph-name="zero" unicode="0" horiz-adv-x="551" 
d="M413 857c157 0 231 -169 189 -432c-42 -267 -173 -442 -331 -442c-157 0 -231 171 -189 435c42 266 173 439 331 439zM279 18c87 0 176 167 213 400c37 236 1 404 -87 404s-176 -166 -213 -399c-37 -236 -1 -405 87 -405z" />
    <glyph glyph-name="one" unicode="1" horiz-adv-x="308" 
d="M149 745l-7 20l181 92h22l-114 -721c-9 -54 -22 -101 50 -114l-3 -22h-237l3 22c78 13 79 60 88 114l85 533c10 62 5 89 -23 89c-11 0 -26 -5 -45 -13z" />
    <glyph glyph-name="two" unicode="2" horiz-adv-x="527" 
d="M15 0l3 22c165 130 432 353 466 566c19 120 -45 177 -124 177c-73 0 -159 -47 -209 -137l-22 6c56 148 155 223 274 223c131 0 209 -89 188 -219c-23 -145 -164 -319 -437 -539h202c94 0 104 6 161 93l19 -8l-73 -184h-448z" />
    <glyph glyph-name="three" unicode="3" horiz-adv-x="514" 
d="M398 483c114 -27 153 -119 137 -217c-21 -136 -148 -283 -325 -283c-102 0 -177 48 -177 116c0 37 25 73 64 73c17 0 32 -8 42 -22c35 -48 -14 -133 91 -133c113 0 190 98 206 202c18 113 -37 233 -198 233l3 22c117 6 201 65 216 159c13 82 -34 137 -118 137
c-74 0 -127 -42 -166 -102l-18 9c62 120 145 180 247 180c107 0 170 -72 154 -172c-14 -89 -85 -169 -158 -202z" />
    <glyph glyph-name="four" unicode="4" horiz-adv-x="574" 
d="M58 242l491 615h22l-97 -608c53 27 84 81 122 140l18 -8l-72 -184h-76l-9 -61c-9 -54 -22 -101 50 -114l-3 -22h-237l3 22c78 13 79 60 88 114l9 61h-316zM442 664l-346 -434h276z" />
    <glyph glyph-name="five" unicode="5" horiz-adv-x="534" 
d="M630 857h19l-49 -125h-310l-57 -192c216 1 331 -93 305 -259c-26 -163 -173 -298 -328 -298c-102 0 -177 48 -177 116c0 37 25 73 64 73c17 0 32 -8 42 -22c35 -48 -14 -133 91 -133c106 0 178 98 196 207c21 134 -42 285 -227 287h-10l66 221h-1l30 99h234
c60 0 86 2 112 26z" />
    <glyph glyph-name="six" unicode="6" horiz-adv-x="530" 
d="M498 857l5 -23c-132 -57 -232 -208 -288 -365c51 42 113 65 173 65c126 0 195 -99 171 -250c-27 -169 -154 -301 -298 -301c-161 0 -222 164 -192 352c33 210 180 450 429 522zM202 430c-13 -41 -22 -83 -28 -122c-25 -159 5 -291 104 -291c80 0 148 86 168 211
c22 142 -29 251 -123 251c-37 0 -78 -16 -121 -49z" />
    <glyph glyph-name="seven" unicode="7" horiz-adv-x="522" 
d="M256 -13l-148 -4c42 264 189 509 425 775h-231c-94 0 -104 -6 -162 -93l-18 8l73 184h458l-4 -22c-164 -130 -441 -495 -393 -848z" />
    <glyph glyph-name="eight" unicode="8" horiz-adv-x="532" 
d="M264 449c-92 76 -128 148 -115 229c17 110 115 180 250 180c129 0 210 -65 196 -157c-12 -74 -83 -148 -202 -211c124 -105 170 -193 155 -292c-21 -128 -137 -216 -284 -216c-146 0 -238 87 -219 208c14 85 78 162 219 259zM365 515c84 54 133 117 144 185
c12 78 -32 124 -111 124c-77 0 -144 -44 -155 -110c-13 -81 69 -152 122 -199zM289 426c-83 -60 -136 -139 -149 -224c-18 -111 39 -185 139 -185c88 0 165 59 177 138c18 113 -104 213 -167 271z" />
    <glyph glyph-name="nine" unicode="9" horiz-adv-x="530" 
d="M165 -17l-5 23c131 57 230 207 286 364c-51 -41 -111 -64 -171 -64c-126 0 -195 99 -171 250c27 169 154 301 298 301c161 0 222 -164 192 -352c-33 -210 -180 -450 -429 -522zM459 410c13 41 23 82 29 122c26 159 -4 291 -103 291c-80 0 -148 -86 -168 -211
c-22 -142 29 -251 123 -251c36 0 77 17 119 49z" />
    <glyph glyph-name="uniE000" unicode="&#xe000;" horiz-adv-x="339" 
d="M83 0l65 413c9 58 -1 85 -32 85c-9 0 -18 -2 -29 -5l-4 23l191 67l-26 -167c52 100 185 308 309 308c47 0 74 -30 67 -71c-4 -31 -37 -56 -68 -56c-43 0 -42 46 -75 46c-73 0 -212 -225 -243 -288l-56 -355h-99z" />
    <glyph glyph-name="semicolon" unicode=";" horiz-adv-x="188" 
d="M164 557c33 0 58 -28 51 -68c-6 -38 -40 -70 -73 -70c-35 0 -55 33 -50 70c7 39 37 68 72 68zM32 -17l-9 19c34 17 51 38 32 53c-13 9 -26 32 -21 62c5 37 36 66 70 66s59 -28 51 -73c-7 -50 -57 -98 -123 -127z" />
    <glyph glyph-name="colon" unicode=":" horiz-adv-x="268" 
d="M164 557c33 0 58 -28 51 -68c-6 -38 -40 -70 -73 -70c-35 0 -55 33 -50 70c7 39 37 68 72 68zM105 183c33 0 58 -28 51 -68c-6 -38 -40 -70 -73 -70c-35 0 -56 33 -50 70c6 39 37 68 72 68z" />
    <glyph glyph-name="exclam" unicode="!" horiz-adv-x="153" 
d="M152 824h111c-66 -249 -108 -439 -146 -638h-23c26 199 44 389 58 638zM98 136c33 0 57 -28 51 -68c-6 -38 -40 -70 -73 -70c-35 0 -56 33 -50 70c6 39 37 68 72 68z" />
    <glyph glyph-name="question" unicode="?" horiz-adv-x="434" 
d="M201 185l10 138c141 93 199 161 212 247c15 95 -31 158 -113 158c-71 0 -138 -47 -180 -126l-19 6c50 134 138 211 246 211c114 0 179 -85 159 -210c-22 -144 -137 -217 -261 -291l-32 -133h-22zM206 136c33 0 57 -28 51 -68c-6 -38 -40 -70 -73 -70c-35 0 -56 33 -50 70
c6 39 37 68 72 68z" />
    <glyph glyph-name="at" unicode="@" horiz-adv-x="834" 
d="M663 -11l24 -30c-89 -65 -193 -99 -305 -99c-271 0 -369 193 -336 397c35 226 231 464 528 464c220 0 347 -143 313 -356c-29 -181 -161 -331 -290 -331c-51 0 -80 24 -84 69c-56 -46 -109 -68 -163 -68c-99 0 -153 80 -134 200c26 165 159 300 296 300
c38 0 69 -9 97 -28l4 17h92l-91 -349c-1 -4 -2 -7 -4 -20c-6 -38 11 -60 45 -60c80 0 169 123 191 264c31 194 -80 322 -278 322c-270 0 -450 -218 -482 -424c-29 -183 58 -357 302 -357c101 0 194 30 275 89zM514 141v1c2 8 3 16 5 23l64 244v12c-1 6 -2 12 -3 15
c-7 41 -37 66 -79 66c-79 0 -163 -104 -182 -227c-17 -105 21 -175 95 -175c35 0 69 14 100 41z" />
    <glyph glyph-name="ampersand" unicode="&#x26;" horiz-adv-x="688" 
d="M382 248c-52 0 -81 31 -74 76c7 46 48 84 99 93l1 -21c-51 -13 -51 -70 12 -70c112 0 150 175 269 175c49 0 83 -27 82 -63c-1 -33 -27 -60 -62 -64c-56 -7 -45 51 -91 51c-24 0 -45 -18 -65 -43c95 -33 137 -92 124 -173c-20 -128 -166 -225 -339 -225
c-190 0 -307 115 -282 276c20 122 113 215 256 255c-66 30 -108 106 -96 177c15 98 123 165 265 165c88 0 147 -26 146 -64l-21 -132h-23c1 101 -46 166 -122 166c-73 0 -136 -64 -150 -152c-16 -98 45 -160 157 -158l-4 -22c-161 12 -277 -77 -302 -234
c-23 -145 49 -244 179 -244c122 0 229 88 247 204c9 60 -8 108 -51 141c-39 -51 -81 -114 -155 -114z" />
    <glyph glyph-name="percent" unicode="%" horiz-adv-x="649" 
d="M234 497c-108 0 -122 110 -110 182c11 72 58 178 166 178s122 -107 110 -181c-11 -72 -58 -179 -166 -179zM109 -17l-31 20l599 854l31 -20zM196 586c5 -35 19 -58 43 -58c51 0 81 110 87 150c3 19 6 57 2 90c-6 35 -19 58 -42 58c-53 0 -82 -108 -89 -150
c-3 -19 -6 -57 -1 -90zM492 -16c-109 0 -122 109 -111 182c12 72 58 178 166 178c109 0 123 -108 112 -181c-12 -73 -59 -179 -167 -179zM454 73c4 -36 18 -58 42 -58c52 0 82 109 88 150c3 18 6 57 1 90c-4 35 -17 58 -41 58c-55 0 -81 -108 -88 -150c-3 -19 -7 -57 -2 -90
z" />
    <glyph glyph-name="asciitilde" unicode="~" horiz-adv-x="402" 
d="M397 373l29 -31c-36 -42 -66 -56 -94 -56c-55 0 -99 54 -153 54c-21 0 -43 -8 -67 -29l-28 31c41 41 76 55 107 55c61 0 106 -53 152 -53c17 0 35 8 54 29z" />
    <glyph glyph-name="grave" unicode="`" horiz-adv-x="208" 
d="M281 652h-30l-87 192h93z" />
    <glyph glyph-name="asterisk" unicode="*" horiz-adv-x="453" 
d="M225 469l-66 55l138 118l-161 25l42 89l137 -77l-1 165h93l-53 -165l161 77l14 -89l-169 -26l100 -117l-84 -55l-52 150z" />
    <glyph glyph-name="asciicircum" unicode="^" horiz-adv-x="366" 
d="M133 652l169 192h30l107 -192h-93l-35 154l-85 -154h-93z" />
    <glyph glyph-name="numbersign" unicode="#" horiz-adv-x="736" 
d="M390 0h-36l96 243h-173l-96 -243h-36l96 243h-173l25 63h173l83 211h-174l25 63h174l104 264h36l-104 -264h173l104 264h36l-104 -264h179l-25 -63h-179l-83 -211h180l-25 -63h-180zM385 517l-83 -211h173l83 211h-173z" />
    <glyph glyph-name="bar" unicode="|" horiz-adv-x="190" 
d="M107 -82h-50l164 1034h50z" />
    <glyph glyph-name="dollar" unicode="$" horiz-adv-x="490" 
d="M62 227h21c2 -109 64 -187 153 -198l55 351c-90 64 -189 125 -168 259c20 122 122 205 242 205l14 89h50l-15 -95c48 -11 80 -32 106 -32c18 0 29 11 37 38h20l-24 -234l-21 -3c-9 113 -52 182 -123 199l-52 -327c89 -64 183 -133 162 -267c-19 -120 -117 -207 -239 -216
l-12 -78h-50l13 79c-70 8 -102 41 -136 41c-21 0 -36 -13 -49 -43h-21zM312 512l47 298c-75 -5 -134 -57 -145 -128c-12 -75 37 -123 98 -170zM336 346l-50 -316c68 11 119 64 131 139c13 81 -27 132 -81 177z" />
    <glyph glyph-name="parenleft" unicode="(" horiz-adv-x="297" 
d="M410 915l-4 -25c-70 0 -166 -210 -202 -437c-37 -232 -6 -445 64 -445l-4 -25c-125 0 -204 209 -162 470c40 256 182 462 308 462z" />
    <glyph glyph-name="parenright" unicode=")" horiz-adv-x="297" 
d="M177 915c126 0 202 -206 162 -462c-42 -261 -187 -470 -312 -470l4 25c70 0 169 213 206 445c36 227 6 437 -64 437z" />
    <glyph glyph-name="braceleft" unicode="{" horiz-adv-x="276" 
d="M248 15l-4 -30c-99 0 -203 -14 -180 128c14 88 65 159 77 236c8 49 -4 79 -40 96l3 24c42 17 63 45 71 95c12 76 -17 145 -4 228c24 149 150 137 222 137l-5 -31c-60 0 -99 -54 -116 -161c-8 -48 -10 -102 -16 -137c-12 -75 -46 -116 -119 -142c64 -27 86 -69 74 -145
c-6 -34 -20 -88 -28 -135c-17 -108 5 -163 65 -163z" />
    <glyph glyph-name="braceright" unicode="}" horiz-adv-x="276" 
d="M32 15c60 0 100 55 117 163c8 47 10 101 16 135c12 76 46 118 120 145c-65 26 -87 67 -75 142c6 35 20 89 28 137c17 107 -6 161 -66 161l5 31c72 0 202 12 178 -137c-13 -83 -64 -152 -76 -228c-8 -50 5 -78 41 -95l-4 -24c-41 -17 -63 -47 -71 -96
c-12 -77 17 -148 3 -236c-23 -142 -122 -128 -220 -128z" />
    <glyph glyph-name="bracketleft" unicode="[" horiz-adv-x="231" 
d="M20 -62l165 1039h170l-7 -45h-120l-151 -949h120l-7 -45h-170z" />
    <glyph glyph-name="bracketright" unicode="]" horiz-adv-x="230" 
d="M355 977l-165 -1039h-170l7 45h120l151 949h-120l7 45h170z" />
    <glyph glyph-name="underscore" unicode="_" horiz-adv-x="369" 
d="M11 -57l6 40h329l-6 -40h-329z" />
    <glyph glyph-name="equal" unicode="=" horiz-adv-x="349" 
d="M96 417l6 40h289l-6 -40h-289zM77 294l6 40h289l-6 -40h-289z" />
    <glyph glyph-name="hyphen" unicode="-" horiz-adv-x="339" 
d="M86 355l7 40h279l-7 -40h-279z" />
    <glyph glyph-name="plus" unicode="+" horiz-adv-x="349" 
d="M86 355l7 40h123l20 124h40l-20 -124h126l-7 -40h-125l-20 -125h-40l20 125h-124z" />
    <glyph glyph-name="less" unicode="&#x3c;" horiz-adv-x="366" 
d="M311 7l-236 279l324 279l23 -24l-297 -255l216 -255z" />
    <glyph glyph-name="greater" unicode="&#x3e;" horiz-adv-x="366" 
d="M145 565l236 -279l-324 -279l-22 24l296 255l-215 255z" />
    <glyph glyph-name="slash" unicode="/" horiz-adv-x="322" 
d="M64 -17h-47l388 901h47z" />
    <glyph glyph-name="backslash" unicode="\" horiz-adv-x="322" 
d="M197 884l102 -901h-47l-102 901h47z" />
    <glyph glyph-name="quotesingle" unicode="'" horiz-adv-x="168" 
d="M207 661h-35l-2 223h108z" />
    <glyph glyph-name="quotedbl" unicode="&#x22;" horiz-adv-x="279" 
d="M200 682h-30v202h93zM326 682h-30v202h93z" />
    <glyph glyph-name="Euro" unicode="&#x20ac;" horiz-adv-x="623" 
d="M696 607l-20 -4c-10 137 -64 207 -156 207c-138 0 -237 -153 -274 -321h145l-6 -40h-146c-4 -28 -7 -56 -7 -83h140l-6 -40h-134c6 -144 68 -265 201 -265c79 0 144 44 196 135l19 -8c-73 -135 -167 -205 -283 -205c-171 0 -242 161 -236 343h-52l6 40h48
c2 27 7 56 13 83h-48l6 40h51c51 187 179 355 357 355c83 0 125 -38 158 -38c16 0 26 11 34 38h20z" />
    <glyph glyph-name="plusminus" unicode="&#xb1;" horiz-adv-x="349" 
d="M59 183l6 40h124l20 124h40l-20 -124h125l-6 -40h-125l-20 -125h-40l20 125h-124zM37 -17l7 40h269l-7 -40h-269z" />
    <glyph glyph-name="multiply" unicode="&#xd7;" horiz-adv-x="332" 
d="M116 243l-23 28l102 88l-74 87l32 28l74 -87l102 88l24 -28l-102 -88l74 -89l-33 -28l-74 88z" />
    <glyph glyph-name="divide" unicode="&#xf7;" horiz-adv-x="319" 
d="M244 537c33 0 58 -28 51 -68c-6 -38 -40 -70 -73 -70c-35 0 -56 33 -50 70c6 39 37 68 72 68zM344 281h-279l6 40h279zM191 203c33 0 58 -28 51 -68c-6 -38 -40 -70 -73 -70c-35 0 -55 33 -50 70c7 39 37 68 72 68z" />
    <glyph glyph-name="ellipsis" unicode="&#x2026;" horiz-adv-x="459" 
d="M95 121c33 0 58 -28 51 -68c-6 -38 -40 -70 -73 -70c-35 0 -55 33 -50 70c7 39 37 68 72 68zM248 121c33 0 58 -28 51 -68c-6 -38 -40 -70 -73 -70c-35 0 -55 33 -50 70c7 39 37 68 72 68zM401 121c33 0 58 -28 51 -68c-6 -38 -40 -70 -73 -70c-35 0 -55 33 -50 70
c7 39 37 68 72 68z" />
    <glyph glyph-name="minus" unicode="&#x2212;" horiz-adv-x="349" 
d="M86 355l7 40h289l-7 -40h-289z" />
    <glyph glyph-name="brokenbar" unicode="&#xa6;" horiz-adv-x="190" 
d="M198 495h-50l73 457h50zM129 375h50l-72 -457h-50z" />
    <glyph glyph-name="yen" unicode="&#xa5;" horiz-adv-x="742" 
d="M461 371l216 359c38 63 30 93 -27 93l4 21h183l-4 -21c-42 0 -86 -33 -121 -93l-225 -371h77l-6 -40h-94l-14 -83h94l-6 -40h-94l-10 -66c-9 -52 -21 -97 48 -109l-3 -21h-230l3 21c74 12 75 57 84 109l10 66h-97l6 40h97l14 83h-97l6 40h77l-133 380
c-21 61 -36 84 -84 84l4 21h240l-4 -21c-48 0 -62 -28 -42 -84z" />
    <glyph glyph-name="endash" unicode="&#x2013;" horiz-adv-x="339" 
d="M86 355l7 40h279l-7 -40h-279z" />
    <glyph glyph-name="emdash" unicode="&#x2014;" horiz-adv-x="398" 
d="M86 355l7 40h338l-7 -40h-338z" />
    <glyph glyph-name="macron" unicode="&#xaf;" horiz-adv-x="339" 
d="M144 718l6 40h279l-6 -40h-279z" />
    <glyph glyph-name="logicalnot" unicode="&#xac;" horiz-adv-x="339" 
d="M86 355l7 40h279l-24 -149h-40l18 109h-240z" />
    <glyph glyph-name="bullet" unicode="&#x2022;" horiz-adv-x="200" 
d="M170 447c38 0 66 -32 58 -78c-6 -43 -45 -79 -83 -79c-39 0 -63 37 -57 79c8 45 43 78 82 78z" />
    <glyph glyph-name="dagger" unicode="&#x2020;" horiz-adv-x="339" 
d="M104 468l6 40h119l38 239h40l-38 -239h120l-6 -40h-120l-74 -468h-40l74 468h-119z" />
    <glyph glyph-name="daggerdbl" unicode="&#x2021;" horiz-adv-x="339" 
d="M104 468l6 40h119l38 239h40l-38 -239h120l-6 -40h-120l-31 -196h120l-6 -40h-120l-37 -232h-40l37 232h-119l6 40h119l31 196h-119z" />
    <glyph glyph-name="guilsinglleft" unicode="&#x2039;" horiz-adv-x="366" 
d="M311 7l-236 279l324 279l23 -24l-297 -255l216 -255z" />
    <glyph glyph-name="guilsinglright" unicode="&#x203a;" horiz-adv-x="366" 
d="M145 565l236 -279l-324 -279l-22 24l296 255l-215 255z" />
    <glyph glyph-name="guillemotright" unicode="&#xbb;" horiz-adv-x="509" 
d="M145 565l236 -279l-324 -279l-22 24l296 255l-215 255zM287 565l236 -279l-324 -279l-22 24l296 255l-215 255z" />
    <glyph glyph-name="guillemotleft" unicode="&#xab;" horiz-adv-x="509" 
d="M453 7l-236 279l324 279l23 -24l-297 -255l216 -255zM311 7l-236 279l324 279l23 -24l-297 -255l216 -255z" />
    <glyph glyph-name="florin" unicode="&#x192;" horiz-adv-x="439" 
d="M267 542l-69 -435c-10 -60 -20 -100 -34 -134c-45 -109 -135 -180 -225 -180c-59 0 -116 31 -128 70c-16 55 25 83 59 83c11 0 21 -3 28 -8c36 -27 22 -106 88 -106c48 0 76 41 90 130l92 580h-82l4 28h82c10 60 20 100 35 134c44 109 134 180 224 180
c59 0 116 -31 128 -70c17 -55 -25 -83 -59 -83c-11 0 -21 3 -28 8c-36 27 -22 106 -88 106c-48 0 -76 -41 -90 -130l-23 -145h104l-4 -28h-104z" />
    <glyph glyph-name="quoteleft" unicode="&#x2018;" horiz-adv-x="208" 
d="M133 652l149 192h30l-86 -192h-93z" />
    <glyph glyph-name="quoteright" unicode="&#x2019;" horiz-adv-x="208" 
d="M312 844l-149 -192h-30l86 192h93z" />
    <glyph glyph-name="quotedblright" unicode="&#x201d;" horiz-adv-x="343" 
d="M302 844l-139 -192h-30l76 192h93zM447 844l-139 -192h-30l76 192h93z" />
    <glyph glyph-name="quotedblleft" unicode="&#x201c;" horiz-adv-x="343" 
d="M278 652l139 192h30l-76 -192h-93zM133 652l139 192h30l-76 -192h-93z" />
    <glyph glyph-name="quotesinglbase" unicode="&#x201a;" horiz-adv-x="208" 
d="M196 114l-148 -192h-30l85 192h93z" />
    <glyph glyph-name="quotedblbase" unicode="&#x201e;" horiz-adv-x="344" 
d="M332 114l-148 -192h-30l85 192h93zM196 114l-148 -192h-30l85 192h93z" />
    <glyph glyph-name="cent" unicode="&#xa2;" horiz-adv-x="472" 
d="M351 683c-105 0 -172 -103 -190 -213c-20 -128 26 -265 156 -265c73 0 139 43 180 119l21 -4c-43 -120 -133 -198 -239 -207l-24 -153h-50l24 154c-133 18 -181 156 -159 296c22 137 112 276 253 299l30 188h50l-29 -185c90 -3 158 -50 160 -111c2 -51 -31 -72 -61 -72
c-16 0 -31 6 -39 17c-29 40 18 137 -83 137z" />
    <glyph glyph-name="registered" unicode="&#xae;" horiz-adv-x="695" 
d="M344 -17c-175 0 -294 143 -266 318c27 175 192 318 367 318s295 -143 268 -318c-28 -175 -194 -318 -369 -318zM350 19c155 0 303 127 328 282c24 155 -84 283 -239 283s-302 -128 -326 -283c-25 -155 82 -282 237 -282zM342 92h-136l2 17l8 1c24 4 28 12 32 35l50 314
c3 22 1 30 -21 34l-8 1l3 18h146c84 0 143 -32 130 -116c-10 -62 -60 -109 -127 -125l50 -94c11 -21 38 -63 60 -67l8 -1l-2 -17h-95l-97 174h-2l-5 -1h-2l-20 -124c-3 -20 2 -28 20 -31l8 -1zM371 484l-31 -193c4 -1 9 -1 14 -1c66 0 110 43 119 102c8 53 -14 97 -72 97
c-11 0 -21 -2 -30 -5z" />
    <glyph glyph-name="copyright" unicode="&#xa9;" horiz-adv-x="695" 
d="M344 -17c-175 0 -294 143 -266 318c27 175 192 318 367 318s295 -143 268 -318c-28 -175 -194 -318 -369 -318zM350 19c155 0 303 127 328 282c24 155 -84 283 -239 283s-302 -128 -326 -283c-25 -155 82 -282 237 -282zM487 197l16 -6c-28 -57 -74 -117 -155 -117
c-119 0 -139 132 -126 217c14 88 78 220 201 220c46 0 64 -19 81 -19c8 0 12 5 14 19h16l-16 -136l-15 -2v9c-3 47 -19 104 -75 104c-77 0 -122 -109 -133 -175c-11 -74 5 -182 94 -182c45 0 79 28 98 68z" />
    <glyph glyph-name="uniE001" unicode="&#xe001;" horiz-adv-x="904" 
d="M161 545c-18 -116 11 -201 70 -201c62 0 47 96 89 136c12 11 28 17 44 17c30 0 56 -21 38 -72c-22 -63 -104 -110 -182 -110c-104 0 -157 85 -136 218c31 193 195 351 366 351h242c194 0 293 -77 274 -196c-14 -88 -87 -165 -180 -190c110 -23 171 -130 151 -256
c-23 -150 -147 -242 -345 -242h-282l3 22c78 13 79 60 88 114l96 612c13 82 0 106 -56 106c-133 0 -252 -132 -280 -309zM616 846l-51 -320c37 -9 61 -13 88 -13c113 0 192 71 208 169c16 102 -46 172 -171 172c-26 0 -49 -3 -74 -8zM558 480l-69 -434c26 -11 52 -16 85 -16
c136 0 229 88 250 222c22 141 -51 232 -212 232c-17 0 -35 -1 -54 -4z" />
    <glyph glyph-name="uniE002" unicode="&#xe002;" horiz-adv-x="986" 
d="M511 748c13 82 0 106 -56 106c-133 0 -252 -132 -280 -309c-18 -116 11 -201 70 -201c62 0 47 96 89 136c12 11 28 17 44 17c30 0 56 -21 38 -72c-22 -63 -104 -110 -182 -110c-104 0 -157 85 -136 218c31 193 195 351 366 351h249c254 0 381 -173 338 -441
c-42 -267 -224 -443 -474 -443h-253l3 22c78 13 79 60 88 114zM705 854c-24 0 -50 -3 -75 -8l-127 -800c26 -11 48 -16 82 -16c185 0 311 148 350 390c40 256 -48 434 -230 434z" />
    <glyph glyph-name="uniE003" unicode="&#xe003;" horiz-adv-x="864" 
d="M497 748c13 82 0 106 -56 106c-133 0 -252 -132 -280 -309c-18 -116 11 -201 70 -201c62 0 47 96 89 136c12 11 28 17 44 17c30 0 56 -21 38 -72c-22 -63 -104 -110 -182 -110c-104 0 -157 85 -136 218c31 193 195 351 366 351h509l-20 -176h-22c3 103 -28 143 -112 143
h-188l-61 -382h128c64 0 102 4 127 79h22l-31 -193h-22c-1 75 -37 79 -101 79h-128l-53 -335c-9 -54 2 -66 45 -66h123c108 0 152 73 205 159l19 -8l-72 -184h-508l3 22c78 13 79 60 88 114z" />
    <glyph glyph-name="uniE004" unicode="&#xe004;" horiz-adv-x="862" 
d="M450 884h539l-20 -176h-22c3 103 -28 143 -112 143h-218l-62 -392h128c64 0 101 4 126 79h22l-30 -193h-22c-1 75 -38 79 -102 79h-128l-45 -288c-9 -54 -22 -101 50 -114l-3 -22h-241l3 22c78 13 79 60 88 114l96 612c13 82 0 106 -56 106c-133 0 -252 -132 -280 -309
c-18 -116 11 -201 70 -201c62 0 47 96 89 136c12 11 28 17 44 17c30 0 56 -21 38 -72c-22 -63 -104 -110 -182 -110c-104 0 -157 85 -136 218c31 193 195 351 366 351z" />
    <glyph glyph-name="uniE005" unicode="&#xe005;" horiz-adv-x="1004" 
d="M1049 748l-96 -612c-9 -54 -22 -101 50 -114l-3 -22h-241l3 22c78 13 79 60 88 114l42 269h-346l-42 -269c-9 -54 -22 -101 50 -114l-3 -22h-241l3 22c78 13 79 60 88 114l96 612c13 82 0 106 -56 106c-133 0 -252 -132 -280 -309c-18 -116 11 -201 70 -201
c62 0 47 96 89 136c12 11 28 17 44 17c30 0 56 -21 38 -72c-22 -63 -104 -110 -182 -110c-104 0 -157 85 -136 218c31 193 195 351 366 351h241l-3 -22c-78 -13 -79 -60 -88 -114l-48 -308h346l48 308c9 54 22 101 -50 114l3 22h241l-3 -22c-78 -13 -79 -60 -88 -114z" />
    <glyph glyph-name="uniE006" unicode="&#xe006;" horiz-adv-x="555" 
d="M450 884h241l-3 -22c-78 -13 -79 -60 -88 -114l-96 -612c-9 -54 -22 -101 50 -114l-3 -22h-241l3 22c78 13 79 60 88 114l96 612c13 82 0 106 -56 106c-133 0 -252 -132 -280 -309c-18 -116 11 -201 70 -201c62 0 47 96 89 136c12 11 28 17 44 17c30 0 56 -21 38 -72
c-22 -63 -104 -110 -182 -110c-104 0 -157 85 -136 218c31 193 195 351 366 351z" />
    <glyph glyph-name="uniE007" unicode="&#xe007;" horiz-adv-x="967" 
d="M963 0h-165l-245 451l-49 -315c-9 -54 -22 -101 50 -114l-3 -22h-241l3 22c78 13 79 60 88 114l96 612c13 82 0 106 -56 106c-133 0 -252 -132 -280 -309c-18 -116 11 -201 70 -201c62 0 47 96 89 136c12 11 28 17 44 17c30 0 56 -21 38 -72c-22 -63 -104 -110 -182 -110
c-104 0 -157 85 -136 218c31 193 195 351 366 351h241l-3 -22c-78 -13 -79 -60 -88 -114l-45 -286l287 274c69 67 83 126 20 126l3 22h213l-3 -22c-71 0 -149 -86 -214 -148l-212 -204l184 -340c57 -105 93 -140 133 -148z" />
    <glyph glyph-name="uniE008" unicode="&#xe008;" horiz-adv-x="894" 
d="M450 884h250l-3 -22c-78 -13 -79 -60 -88 -114l-102 -649c-9 -54 2 -66 45 -66h143c108 0 152 73 205 159l19 -8l-72 -184h-537l3 22c78 13 79 60 88 114l96 612c13 82 0 106 -56 106c-133 0 -252 -132 -280 -309c-18 -116 11 -201 70 -201c62 0 47 96 89 136
c12 11 28 17 44 17c30 0 56 -21 38 -72c-22 -63 -104 -110 -182 -110c-104 0 -157 85 -136 218c31 193 195 351 366 351z" />
    <glyph glyph-name="uniE009" unicode="&#xe009;" horiz-adv-x="1107" 
d="M1071 884l-20 -126l-357 -758h-22l-140 746l-96 -610c-9 -54 -2 -101 70 -114l-3 -22h-213l3 22c78 13 99 60 108 114l96 612c13 82 0 106 -56 106c-133 0 -252 -132 -280 -309c-18 -116 11 -201 70 -201c62 0 47 96 89 136c12 11 28 17 44 17c30 0 56 -21 38 -72
c-22 -63 -104 -110 -182 -110c-104 0 -157 85 -136 218c31 193 195 351 366 351h161l139 -700zM953 136l118 748h172l-3 -22c-78 -13 -79 -60 -88 -114l-96 -612c-9 -54 -22 -101 50 -114l-3 -22h-241l3 22c78 13 79 60 88 114z" />
    <glyph glyph-name="uniE00A" unicode="&#xe00a;" horiz-adv-x="1016" 
d="M533 752l-97 -616c-9 -54 -2 -101 70 -114l-3 -22h-213l3 22c78 13 99 60 108 114l96 612c13 82 0 106 -56 106c-133 0 -252 -132 -280 -309c-18 -116 11 -201 70 -201c62 0 47 96 89 136c12 11 28 17 44 17c30 0 56 -21 38 -72c-22 -63 -104 -110 -182 -110
c-104 0 -157 85 -136 218c31 193 195 351 366 351h151l314 -673l84 537c9 54 2 101 -70 114l3 22h213l-3 -22c-78 -13 -99 -60 -108 -114l-115 -727v-1l-6 -37h-22z" />
    <glyph glyph-name="uniE00B" unicode="&#xe00b;" horiz-adv-x="898" 
d="M450 884h282c189 0 284 -106 256 -284s-157 -300 -318 -300c-43 0 -86 9 -136 28l-30 -192c-9 -54 -22 -101 50 -114l-3 -22h-241l3 22c78 13 79 60 88 114l96 612c13 82 0 106 -56 106c-133 0 -252 -132 -280 -309c-18 -116 11 -201 70 -201c62 0 47 96 89 136
c12 11 28 17 44 17c30 0 56 -21 38 -72c-22 -63 -104 -110 -182 -110c-104 0 -157 85 -136 218c31 193 195 351 366 351zM630 342c122 0 220 107 245 267c25 155 -39 245 -172 245c-32 0 -60 -5 -88 -16l-75 -472c34 -17 59 -24 90 -24z" />
    <glyph glyph-name="uniE00C" unicode="&#xe00c;" horiz-adv-x="958" 
d="M450 884h282c178 0 272 -92 249 -243c-22 -133 -123 -239 -264 -261c-2 0 -3 -1 -6 -1l113 -209c54 -100 91 -140 133 -148l-3 -22h-165l-199 367c-15 -2 -31 -4 -51 -9l-35 -222c-9 -54 -22 -101 50 -114l-3 -22h-241l3 22c78 13 79 60 88 114l96 612
c13 82 0 106 -56 106c-133 0 -252 -132 -280 -309c-18 -116 11 -201 70 -201c62 0 47 96 89 136c12 11 28 17 44 17c30 0 56 -21 38 -72c-22 -63 -104 -110 -182 -110c-104 0 -157 85 -136 218c31 193 195 351 366 351zM596 400c142 0 248 90 270 232
c21 133 -45 222 -166 222c-29 0 -57 -5 -85 -16l-69 -434c19 -3 35 -4 50 -4z" />
    <glyph glyph-name="uniE00D" unicode="&#xe00d;" horiz-adv-x="1020" 
d="M450 884h241l-3 -22c-78 -13 -79 -60 -88 -114l-71 -450c-27 -174 27 -262 163 -262s220 89 247 262l71 450c11 69 -10 103 -70 114l3 22h213l-3 -22c-64 -11 -97 -45 -108 -114l-71 -450c-34 -215 -137 -315 -324 -315s-258 100 -224 315l71 450c13 82 0 106 -56 106
c-133 0 -252 -132 -280 -309c-18 -116 11 -201 70 -201c62 0 47 96 89 136c12 11 28 17 44 17c30 0 56 -21 38 -72c-22 -63 -104 -110 -182 -110c-104 0 -157 85 -136 218c31 193 195 351 366 351z" />
    <glyph glyph-name="uniE00E" unicode="&#xe00e;" horiz-adv-x="912" 
d="M374 854c-102 0 -181 -96 -205 -247c-23 -144 16 -263 87 -263c64 0 49 96 91 136c12 11 28 17 44 17c30 0 56 -21 38 -72c-22 -63 -104 -110 -182 -110c-117 0 -180 108 -155 264c28 176 150 305 289 305h240l-3 -22c-56 0 -72 -37 -64 -94l83 -580l261 577
c30 66 16 97 -45 97l3 22h191l-3 -22c-43 0 -81 -30 -112 -97l-354 -782h-22l-115 789c-9 64 -23 82 -67 82z" />
    <glyph glyph-name="uniE00F" unicode="&#xe00f;" horiz-adv-x="1215" 
d="M699 862l3 22h251l-3 -22c-56 0 -70 -37 -64 -94l65 -572l249 569c29 66 16 97 -45 97l3 22h191l-3 -22c-43 0 -82 -30 -112 -97l-344 -782h-22l-60 507l-230 -507h-22l-115 789c-9 64 -23 82 -67 82c-102 0 -181 -96 -205 -247c-23 -144 16 -263 87 -263
c64 0 49 96 91 136c12 11 28 17 44 17c30 0 56 -21 38 -72c-22 -63 -104 -110 -182 -110c-117 0 -180 108 -155 264c28 176 150 305 289 305h240l-3 -22c-56 0 -72 -37 -64 -94l83 -580l163 362l-26 222c-8 70 -25 90 -75 90z" />
    <glyph glyph-name="uniE010" unicode="&#xe010;" horiz-adv-x="963" 
d="M374 854c-102 0 -181 -96 -205 -247c-23 -144 16 -263 87 -263c64 0 49 96 91 136c12 11 28 17 44 17c30 0 56 -21 38 -72c-22 -63 -104 -110 -182 -110c-117 0 -180 108 -155 264c28 176 150 305 289 305h237l-3 -22c-51 0 -66 -29 -45 -88l134 -385l226 376
c40 66 32 97 -27 97l3 22h191l-3 -22c-44 0 -91 -35 -128 -97l-259 -430l-31 -199c-9 -54 -22 -101 50 -114l-3 -22h-241l3 22c78 13 79 60 88 114l31 199l-153 439c-15 42 -24 80 -77 80z" />
    <glyph glyph-name="uniE011" unicode="&#xe011;" horiz-adv-x="933" 
d="M116 545c-11 -73 84 -42 118 -78c38 -39 -11 -103 -69 -91c-60 12 -91 84 -77 174c17 108 97 169 222 169c33 0 67 -4 103 -10c84 111 206 177 344 177c127 0 206 -56 193 -139s-107 -125 -278 -125c-71 0 -140 7 -207 13c-23 -49 -40 -105 -50 -166
c-38 -243 63 -420 240 -420c42 0 82 10 117 28l38 240c9 54 22 101 -51 114l4 22h237l-4 -22c-77 -13 -78 -60 -87 -114v-2l-48 -303c-28 -174 -116 -262 -262 -262c-107 0 -182 48 -182 116c0 37 26 73 65 73c16 0 31 -8 41 -22c35 -48 -14 -133 87 -133
c82 0 125 56 146 188l11 67c-53 -37 -114 -56 -179 -56c-206 0 -327 193 -285 456c12 75 35 143 67 202h-8l-16 1c-69 0 -216 -6 -230 -97zM496 692c78 -17 157 -36 228 -36c86 0 136 32 146 97c10 66 -30 103 -111 103c-104 0 -198 -62 -263 -164z" />
    <glyph glyph-name="uniE012" unicode="&#xe012;" horiz-adv-x="541" 
d="M369 570c97 0 82 98 124 138c12 11 28 17 44 17c30 0 56 -21 38 -72c-22 -63 -104 -111 -225 -111h-75l-65 -410c-19 -118 34 -211 121 -211c79 0 142 78 161 200c18 111 -9 200 -60 200c-52 0 -36 -96 -79 -136c-14 -13 -28 -19 -42 -19c-31 0 -54 32 -40 74
c20 59 99 110 169 110c92 0 143 -87 123 -211c-24 -149 -131 -249 -267 -249c-140 0 -207 105 -179 282l59 370h-85l4 27c80 6 139 61 182 159h27l-23 -158h88z" />
    <glyph glyph-name="uniE013" unicode="&#xe013;" horiz-adv-x="813" 
d="M239 583c55 -116 94 -280 135 -457c37 64 85 149 111 201c-13 66 -25 117 -36 139c-16 33 -36 45 -60 45c-8 0 -17 -1 -26 -4l-4 23l158 53c55 -116 67 -260 108 -437c108 228 227 610 427 610c52 0 78 -27 72 -59c-5 -30 -32 -51 -62 -51c-28 0 -54 16 -77 16
c-123 0 -285 -432 -407 -679h-22c-25 100 -45 209 -63 300c-52 -100 -120 -208 -168 -300h-22c-49 196 -86 381 -130 483c-9 21 -32 47 -58 47c-7 0 -14 -2 -21 -7c-37 -23 -23 -80 -60 -115c-13 -12 -27 -17 -40 -17c-30 0 -55 30 -40 72c18 49 70 65 138 88z" />
    <glyph glyph-name="uniE014" unicode="&#xe014;" horiz-adv-x="582" 
d="M178 599c10 66 24 125 40 177c-56 21 -115 37 -184 37c-79 0 -128 -21 -134 -57c-7 -48 80 -23 115 -54c39 -33 -3 -91 -62 -81c-57 10 -93 74 -82 140c12 78 83 128 177 128c66 0 129 -24 190 -55c87 224 231 308 375 308c337 0 284 -460 -77 -460
c-89 0 -162 28 -233 58c-8 -34 -15 -71 -21 -111l-40 -255c50 124 144 209 235 209c83 0 114 -69 93 -200l-42 -262c-1 -9 -5 -40 -3 -59c2 -16 8 -23 19 -23c12 0 28 9 39 20c3 3 10 10 16 19l18 -14c-17 -23 -32 -39 -47 -51c-25 -20 -54 -30 -82 -30c-35 0 -59 17 -65 47
c-3 17 -2 43 4 79l44 278c14 87 -2 129 -50 129c-66 0 -137 -82 -191 -220l-47 -296h-99zM317 792c76 -41 148 -80 220 -80c229 0 294 400 63 400c-107 0 -217 -86 -283 -320z" />
    <glyph glyph-name="uniE015" unicode="&#xe015;" horiz-adv-x="582" 
d="M84 0l94 599c10 66 24 124 40 176c-56 21 -115 38 -185 38c-79 0 -129 -21 -134 -57c-8 -48 80 -23 115 -54c39 -33 -3 -91 -62 -81c-57 10 -93 74 -82 140c12 78 83 128 177 128c66 0 129 -24 191 -55c87 225 230 308 374 308c337 0 284 -460 -77 -460
c-89 0 -161 28 -232 58c-8 -34 -15 -71 -21 -111c-13 -85 -26 -169 -39 -253c50 123 143 207 234 207c83 0 114 -69 93 -200l-56 -347c-10 -64 5 -94 50 -94c31 0 55 15 73 46l20 -6c-25 -67 -83 -101 -147 -101c-74 0 -111 58 -96 153l57 353c14 87 -2 129 -50 129
c-66 0 -137 -80 -191 -218c-4 -25 -8 -49 -12 -74l-23 -150c-4 -25 -8 -49 -12 -74h-99zM317 792c75 -41 148 -80 219 -80c229 0 294 400 63 400c-107 0 -216 -85 -282 -320z" />
    <glyph glyph-name="uniE016" unicode="&#xe016;" horiz-adv-x="427" 
d="M418 -21c-25 -156 -156 -227 -273 -227c-109 0 -206 63 -188 177c10 65 53 118 95 118c33 0 54 -32 41 -65c-15 -42 -75 -59 -83 -106c-8 -52 62 -92 138 -92c77 0 160 41 178 151c36 230 -292 240 -256 468c17 110 106 181 221 181c97 0 170 -48 172 -112
c1 -43 -35 -71 -66 -71c-13 0 -25 5 -34 16c-30 40 17 136 -84 136c-66 0 -117 -43 -127 -107c-29 -178 307 -205 266 -467z" />
    <glyph glyph-name="uniE017" unicode="&#xe017;" horiz-adv-x="409" 
d="M329 561c-4 -24 -31 -39 -55 -39c-9 0 -18 3 -24 7c-27 -169 204 -206 177 -378c-16 -101 -108 -168 -231 -168c-103 0 -178 47 -180 112c-1 43 35 71 66 71c13 0 25 -5 34 -16c29 -40 -17 -136 95 -136c71 0 125 39 134 96c21 129 -212 183 -188 333
c13 78 89 146 142 146c21 0 33 -11 30 -28z" />
    <glyph glyph-name="uniE018" unicode="&#xe018;" horiz-adv-x="541" 
d="M487 121c-1 -9 -5 -40 -3 -59c2 -16 8 -23 19 -23c21 0 44 22 55 39l18 -14c-32 -43 -71 -81 -129 -81c-35 0 -59 17 -65 47c-3 17 -2 43 4 79l5 35c-47 -78 -114 -161 -211 -161c-261 0 -134 600 162 600c44 0 77 -13 112 -46l7 46c11 71 27 135 45 191
c-57 22 -117 39 -187 39c-79 0 -128 -21 -134 -57c-7 -48 80 -23 115 -54c39 -33 -3 -91 -62 -81c-57 10 -93 74 -82 140c12 78 83 128 177 128c67 0 132 -25 194 -57c88 220 230 310 371 310c337 0 284 -460 -77 -460c-89 0 -162 28 -233 58c-8 -34 -15 -71 -21 -111z
M602 792c76 -41 148 -80 220 -80c229 0 294 400 63 400c-107 0 -217 -86 -283 -320zM404 223l40 250c-17 52 -46 77 -89 77c-94 0 -180 -117 -203 -277c-17 -119 20 -213 83 -213c54 0 123 69 169 163z" />
    <glyph glyph-name="uniE019" unicode="&#xe019;" 
d="M471 629c6 40 11 77 14 111c-81 -30 -163 -58 -252 -58c-361 0 -268 460 69 460c144 0 261 -84 277 -308c71 31 142 55 208 55c94 0 149 -50 137 -128c-11 -66 -67 -130 -128 -140s-85 48 -36 81c45 31 125 6 133 54c5 36 -37 57 -116 57c-69 0 -133 -17 -196 -38
c0 -52 -6 -110 -16 -176l-76 -478c-1 -9 -5 -40 -3 -59c2 -16 8 -23 19 -23c21 0 44 22 55 39l18 -14c-32 -43 -71 -81 -129 -81c-35 0 -59 17 -65 47c-3 17 -2 43 4 79l6 39c-47 -80 -115 -165 -214 -165c-261 0 -134 600 162 600c45 0 79 -14 114 -49zM487 792
c8 234 -75 320 -182 320c-231 0 -292 -400 -63 -400c72 0 156 39 245 80zM407 229l38 239c-17 56 -45 82 -90 82c-94 0 -180 -117 -203 -277c-17 -119 20 -213 83 -213c55 0 126 72 172 169z" />
    <glyph glyph-name="uniE01A" unicode="&#xe01a;" horiz-adv-x="555" 
d="M276 599l-29 -184c47 80 116 168 216 168c254 0 152 -600 -176 -600c-75 0 -148 31 -193 84l88 562c6 40 10 77 13 111c-81 -30 -162 -58 -251 -58c-361 0 -268 460 69 460c144 0 260 -83 276 -308c71 31 143 55 209 55c94 0 149 -50 137 -128
c-11 -66 -67 -130 -128 -140s-85 48 -36 81c45 31 126 6 133 54c6 36 -37 57 -116 57c-69 0 -134 -17 -197 -38c0 -52 -5 -110 -15 -176zM198 792c7 235 -75 320 -182 320c-231 0 -292 -400 -63 -400c72 0 157 39 245 80zM234 334l-47 -301c24 -14 51 -21 78 -21
c138 0 208 166 226 281c17 119 -19 213 -83 213c-56 0 -128 -73 -174 -172z" />
    <glyph glyph-name="uniE01B" unicode="&#xe01b;" horiz-adv-x="555" 
d="M250 287c133 36 213 101 213 172c0 36 -20 57 -55 57c-65 0 -121 -70 -180 -222l-47 -294h-99l95 599c10 66 24 124 40 176c-56 21 -115 38 -184 38c-79 0 -129 -21 -134 -57c-8 -48 80 -23 115 -54c39 -33 -3 -91 -62 -81c-57 10 -93 74 -82 140c12 78 83 128 177 128
c66 0 130 -24 191 -55c87 224 230 308 374 308c337 0 284 -460 -77 -460c-89 0 -161 28 -232 58c-8 -34 -16 -71 -22 -111l-41 -255c49 128 133 209 219 209c64 0 106 -45 106 -112c0 -89 -76 -149 -214 -173l82 -146c23 -41 48 -84 65 -100c18 -16 39 -13 58 7
c3 3 10 10 16 19l18 -14c-17 -23 -32 -39 -51 -54c-25 -20 -45 -27 -71 -27c-37 0 -57 15 -83 61c-48 86 -86 156 -135 243zM316 792c75 -41 148 -80 220 -80c229 0 294 400 63 400c-107 0 -216 -85 -283 -320z" />
    <glyph glyph-name="uniE01C" unicode="&#xe01c;" horiz-adv-x="555" 
d="M250 287c133 36 213 101 213 172c0 36 -20 57 -55 57c-65 0 -121 -71 -180 -223l-47 -293h-99l100 629c6 40 11 77 14 111c-81 -30 -163 -58 -252 -58c-361 0 -268 460 69 460c144 0 261 -84 277 -308c71 31 142 55 208 55c94 0 149 -50 137 -128
c-11 -66 -67 -130 -128 -140s-85 48 -36 81c45 31 125 6 133 54c5 36 -37 57 -116 57c-69 0 -133 -17 -196 -38c0 -52 -6 -110 -16 -176l-36 -226c49 128 133 210 219 210c64 0 106 -45 106 -112c0 -89 -76 -149 -214 -173l82 -146c23 -41 48 -84 65 -100
c18 -16 39 -13 58 7c3 3 10 10 16 19l18 -14c-17 -23 -32 -39 -51 -54c-25 -20 -45 -27 -71 -27c-37 0 -57 15 -83 61c-48 86 -86 156 -135 243zM198 792c8 234 -75 320 -182 320c-231 0 -292 -400 -63 -400c72 0 156 39 245 80z" />
    <glyph glyph-name="uniE01D" unicode="&#xe01d;" horiz-adv-x="255" 
d="M281 629l-80 -508c-1 -9 -5 -40 -3 -59c2 -16 8 -23 19 -23c12 0 29 9 40 20c4 4 10 12 15 19l18 -14c-16 -22 -32 -39 -47 -51c-24 -19 -53 -30 -82 -30c-35 0 -60 17 -65 47c-3 18 -2 44 4 79l77 490c10 66 24 125 40 177c-56 21 -115 37 -184 37
c-79 0 -129 -21 -134 -57c-8 -48 80 -23 115 -54c39 -33 -3 -91 -62 -81c-57 10 -93 74 -82 140c12 78 83 128 177 128c66 0 129 -24 190 -55c87 224 231 308 375 308c337 0 284 -460 -77 -460c-89 0 -161 28 -232 58c-8 -34 -16 -71 -22 -111zM316 792
c75 -41 148 -80 220 -80c229 0 294 400 63 400c-107 0 -216 -85 -283 -320z" />
    <glyph glyph-name="uniE01E" unicode="&#xe01e;" horiz-adv-x="255" 
d="M276 599l-75 -478c-1 -9 -5 -40 -3 -59c2 -16 8 -23 19 -23c12 0 29 9 40 20c4 4 10 12 15 19l18 -14c-16 -22 -32 -39 -47 -51c-24 -19 -53 -30 -82 -30c-35 0 -60 17 -65 47c-3 18 -2 44 4 79l82 520c6 40 11 77 14 111c-81 -30 -163 -58 -252 -58
c-361 0 -268 460 69 460c144 0 260 -83 276 -308c71 31 143 55 209 55c94 0 149 -50 137 -128c-11 -66 -67 -130 -128 -140s-85 48 -36 81c45 31 125 6 133 54c5 36 -37 57 -116 57c-69 0 -134 -17 -197 -38c0 -52 -5 -110 -15 -176zM198 792c8 234 -75 320 -182 320
c-231 0 -292 -400 -63 -400c72 0 156 39 245 80z" />
    <glyph glyph-name="uniE01F" unicode="&#xe01f;" horiz-adv-x="439" 
d="M86 542l4 28c75 6 94 68 106 113c9 32 18 62 28 90c-58 22 -119 40 -191 40c-79 0 -129 -21 -134 -57c-8 -48 80 -23 115 -54c39 -33 -3 -91 -62 -81c-57 10 -93 74 -82 140c12 78 83 128 177 128c69 0 134 -26 198 -59c83 203 205 312 368 312c336 0 283 -460 -78 -460
c-89 0 -162 28 -233 58c-8 -34 -15 -71 -21 -111l-10 -59h104l-4 -28h-104l-83 -523c-29 -185 -110 -279 -238 -279c-70 0 -111 28 -104 67c4 24 24 40 50 40c54 0 67 -70 103 -70c13 0 29 9 37 24c13 22 34 103 44 164l92 577h-82zM316 792c76 -41 148 -80 220 -80
c229 0 294 400 63 400c-107 0 -217 -86 -283 -320z" />
    <glyph glyph-name="uniE020" unicode="&#xe020;" horiz-adv-x="936" 
d="M934 22l-3 -22h-252l3 22c56 0 82 37 73 94l-18 113h-250c-82 -201 -163 -339 -302 -339c-118 0 -187 99 -164 240c19 123 97 210 189 210c70 0 133 -51 134 -110c1 -42 -32 -74 -63 -74c-14 0 -26 6 -36 19c-30 40 16 136 -36 136c-51 0 -106 -89 -123 -198
c-18 -111 12 -190 71 -190c187 0 497 807 567 961h22l123 -772c11 -70 20 -90 65 -90zM501 264h231l-66 419c-65 -150 -116 -295 -165 -419z" />
    <glyph glyph-name="uniE021" unicode="&#xe021;" horiz-adv-x="746" 
d="M373 218c-74 0 -138 -70 -153 -168c-22 -137 59 -235 197 -235c131 0 238 88 257 213c42 262 -349 336 -322 612c-17 1 -35 2 -52 2c-108 0 -175 -35 -185 -96c-11 -74 84 -43 118 -79c38 -39 -11 -103 -69 -91c-60 12 -91 84 -77 175c17 106 86 168 188 168
c29 0 60 -6 91 -13c37 109 135 178 261 178c114 0 188 -57 175 -137c-12 -80 -101 -125 -247 -125c-38 0 -72 3 -105 7c35 -209 373 -295 331 -567c-26 -166 -176 -277 -375 -277c-189 0 -301 101 -277 252c19 123 117 212 231 212c95 0 166 -61 155 -131
c-5 -33 -32 -64 -67 -64c-17 0 -34 8 -41 25c-11 21 4 56 9 86c6 37 -7 53 -43 53zM448 684c51 -15 101 -28 146 -28c72 0 118 35 128 96c10 64 -28 102 -102 102c-91 0 -155 -58 -170 -153c-1 -6 -2 -11 -2 -17z" />
    <glyph glyph-name="uniE022" unicode="&#xe022;" horiz-adv-x="616" 
d="M426 824c-10 -3 -17 -15 -20 -33c-23 -149 298 -264 254 -546c-26 -164 -156 -262 -346 -262c-183 0 -292 90 -271 222c17 110 115 192 228 192c97 0 168 -60 157 -131c-5 -33 -31 -64 -66 -64c-17 0 -33 9 -42 25c-11 21 5 56 10 86c5 37 -8 53 -45 53
c-74 0 -137 -63 -151 -153c-19 -117 59 -200 189 -200c127 0 222 79 241 202c39 245 -277 331 -245 531c13 78 73 138 139 138c30 0 48 -12 45 -31c-4 -20 -27 -36 -52 -36c-10 0 -19 2 -25 7z" />
    <glyph glyph-name="uniE023" unicode="&#xe023;" horiz-adv-x="257" 
d="M323 884l-122 -773c-14 -90 -19 -165 -14 -227c85 39 175 74 279 74c134 0 217 -59 204 -144c-16 -95 -141 -166 -296 -166c-129 0 -213 49 -254 150c-92 -51 -183 -97 -267 -97c-88 0 -141 52 -129 128c10 66 67 130 127 140c62 10 85 -48 36 -81
c-45 -31 -125 -6 -132 -54c-6 -35 35 -57 107 -57c86 0 164 31 243 68c-19 76 -18 175 1 296l91 573c11 68 -3 98 -61 80l-5 23zM193 -161c20 -108 80 -161 181 -161c103 0 186 55 198 132c11 69 -41 118 -127 118c-79 0 -165 -41 -252 -89z" />
    <glyph glyph-name="uniE024" unicode="&#xe024;" horiz-adv-x="582" 
d="M569 383l-43 -272c-14 -90 -19 -165 -14 -227c85 39 175 74 279 74c134 0 217 -59 204 -144c-16 -95 -141 -166 -296 -166c-129 0 -213 49 -254 150c-92 -51 -183 -97 -267 -97c-88 0 -141 52 -129 128c10 66 67 130 127 140c62 10 85 -48 36 -81
c-45 -31 -125 -6 -132 -54c-6 -35 35 -57 107 -57c86 0 164 31 243 68c-19 76 -18 175 1 296l39 246c14 87 -1 129 -49 129c-66 0 -137 -81 -191 -220l-47 -296h-99l112 714c11 73 -7 97 -61 80l-5 23l192 67l-80 -510c50 124 144 209 235 209c83 0 113 -69 92 -200z
M518 -161c20 -108 80 -161 181 -161c103 0 186 55 198 132c11 69 -41 118 -127 118c-79 0 -165 -41 -252 -89z" />
    <glyph glyph-name="uniE025" unicode="&#xe025;" horiz-adv-x="560" 
d="M798 756c53 0 79 -27 73 -59c-5 -30 -32 -51 -62 -51c-28 0 -54 16 -77 16c-123 0 -285 -432 -407 -679h-22c-49 196 -86 381 -130 483c-9 21 -32 47 -58 47c-7 0 -14 -2 -21 -7c-37 -23 -23 -80 -60 -115c-13 -12 -27 -17 -40 -17c-30 0 -55 30 -40 72
c18 49 70 65 138 88l147 49c54 -113 92 -265 133 -436c108 229 226 609 426 609z" />
    <glyph glyph-name="uniE026" unicode="&#xe026;" horiz-adv-x="560" 
d="M732 662c-123 0 -285 -432 -407 -679h-22c-49 196 -86 381 -130 483c-14 33 -36 46 -61 46c-8 0 -18 -2 -27 -5l-4 23l158 53c54 -113 92 -265 133 -437c108 228 227 610 427 610c52 0 78 -27 72 -59c-5 -30 -32 -51 -62 -51c-28 0 -54 16 -77 16z" />
    <glyph glyph-name="uniE027" unicode="&#xe027;" horiz-adv-x="556" 
d="M177 599c10 66 24 124 40 176c-56 21 -115 38 -184 38c-79 0 -129 -21 -134 -57c-8 -48 80 -23 115 -54c39 -33 -3 -91 -62 -81c-57 10 -93 74 -82 140c12 78 83 128 177 128c66 0 130 -24 191 -55c87 224 230 308 374 308c337 0 284 -460 -77 -460
c-89 0 -162 28 -233 58c-8 -34 -15 -71 -21 -111l-34 -215c47 81 117 169 217 169c254 0 152 -600 -176 -600c-75 0 -148 31 -193 84zM316 792c76 -41 148 -80 220 -80c229 0 294 400 63 400c-107 0 -217 -86 -283 -320zM235 332l-47 -299c24 -14 51 -21 78 -21
c138 0 208 166 226 281c17 119 -19 213 -83 213c-56 0 -128 -75 -174 -174z" />
    <glyph glyph-name="uniE028" unicode="&#xe028;" horiz-adv-x="581" 
d="M569 383l-55 -347c-10 -64 5 -94 50 -94c31 0 55 15 73 46l20 -6c-25 -67 -83 -101 -147 -101c-74 0 -111 58 -96 153l56 353c14 87 -2 129 -50 129c-67 0 -138 -83 -192 -222l-46 -294h-99l64 413c9 55 1 85 -32 85c-8 0 -18 -2 -29 -5l-4 23l191 67l-33 -211
c50 125 144 211 236 211c83 0 114 -69 93 -200z" />
    <glyph glyph-name="uniE029" unicode="&#xe029;" horiz-adv-x="582" 
d="M569 383l-43 -272c-14 -90 -19 -165 -14 -227c85 39 175 74 279 74c134 0 217 -59 204 -144c-16 -95 -141 -166 -296 -166c-129 0 -213 49 -254 150c-92 -51 -183 -97 -267 -97c-88 0 -141 52 -129 128c10 66 67 130 127 140c62 10 85 -48 36 -81
c-45 -31 -125 -6 -132 -54c-6 -35 35 -57 107 -57c86 0 164 31 243 68c-19 76 -18 175 1 296l39 246c14 87 -2 129 -50 129c-67 0 -138 -83 -192 -222l-46 -294h-99l64 413c9 55 1 85 -32 85c-8 0 -18 -2 -29 -5l-4 23l191 67l-33 -211c50 125 144 211 236 211
c83 0 114 -69 93 -200zM518 -161c20 -108 80 -161 181 -161c103 0 186 55 198 132c11 69 -41 118 -127 118c-79 0 -165 -41 -252 -89z" />
    <glyph glyph-name="uniE02A" unicode="&#xe02a;" horiz-adv-x="873" 
d="M455 387c14 87 -2 129 -50 129c-68 0 -123 -83 -177 -222l-46 -294h-99l64 413c9 55 1 85 -32 85c-8 0 -18 -2 -29 -5l-4 23l191 67l-33 -209c49 128 133 209 221 209c72 0 105 -53 98 -154c53 93 132 154 209 154c82 0 114 -69 93 -200l-54 -347c-10 -65 5 -94 50 -94
c31 0 55 15 73 46l20 -6c-24 -63 -79 -101 -147 -101c-74 0 -111 58 -96 153l55 353c14 87 -2 129 -50 129c-55 0 -108 -52 -157 -129l-1 -3v-1l-62 -383h-99z" />
    <glyph glyph-name="uniE02B" unicode="&#xe02b;" horiz-adv-x="873" 
d="M455 387c14 87 -2 129 -50 129c-68 0 -123 -83 -177 -222l-46 -294h-99l64 413c9 55 1 85 -32 85c-8 0 -18 -2 -29 -5l-4 23l191 67l-33 -209c49 128 133 209 221 209c72 0 105 -53 98 -154c53 93 132 154 209 154c82 0 114 -69 93 -200l-42 -272
c-14 -90 -18 -166 -13 -227c85 39 174 74 278 74c134 0 217 -59 204 -144c-16 -95 -141 -166 -296 -166c-129 0 -213 49 -254 150c-92 -51 -183 -97 -267 -97c-88 0 -141 52 -129 128c10 66 67 130 127 140c62 10 85 -48 36 -81c-45 -31 -125 -6 -132 -54
c-6 -35 35 -57 107 -57c86 0 164 31 243 68c-18 76 -18 175 1 296l38 246c14 87 -2 129 -50 129c-55 0 -108 -52 -157 -129l-1 -3v-1l-62 -383h-99zM812 -161c20 -108 79 -161 180 -161c103 0 186 55 198 132c11 69 -41 118 -127 118c-79 0 -164 -41 -251 -89z" />
    <glyph glyph-name="uniE02C" unicode="&#xe02c;" horiz-adv-x="298" 
d="M275 542l-68 -431c-14 -90 -19 -165 -14 -227c85 39 175 74 279 74c134 0 217 -59 204 -144c-16 -95 -141 -166 -296 -166c-129 0 -213 49 -254 150c-92 -51 -183 -97 -267 -97c-88 0 -141 52 -129 128c10 66 67 130 127 140c62 10 85 -48 36 -81
c-45 -31 -125 -6 -132 -54c-6 -35 35 -57 107 -57c86 0 164 31 243 68c-19 76 -18 175 1 296l64 401h-85l4 27c80 6 139 61 182 159h27l-25 -158h127l-4 -28h-127zM199 -161c20 -108 80 -161 181 -161c103 0 186 55 198 132c11 69 -41 118 -127 118c-79 0 -165 -41 -252 -89
z" />
    <glyph glyph-name="uniE02D" unicode="&#xe02d;" horiz-adv-x="350" 
d="M304 728l-23 -158h88c97 0 82 98 124 138c12 11 28 17 44 17c30 0 56 -21 38 -72c-22 -63 -104 -111 -225 -111h-76l-62 -394c-10 -64 6 -94 51 -94c31 0 55 15 73 46l20 -6c-26 -67 -85 -111 -149 -111c-74 0 -111 58 -95 153l64 406h-85l4 27c80 6 139 61 182 159h27z
" />
    <glyph glyph-name="uniE02E" unicode="&#xe02e;" horiz-adv-x="554" 
d="M516 373c18 56 11 77 -19 96c-33 20 -47 48 -34 79c8 23 27 35 48 35c44 0 72 -41 72 -82c0 -24 -9 -59 -28 -109c-65 -175 -290 -652 -455 -652c-38 0 -67 24 -67 57c0 30 26 57 55 57c28 0 40 -26 67 -26c41 0 97 60 153 141c-48 193 -92 397 -135 497
c-14 33 -36 46 -61 46c-8 0 -18 -2 -27 -5l-4 23l158 53c56 -118 102 -311 144 -491c62 109 114 223 133 281z" />
    <glyph glyph-name="uniE02F" unicode="&#xe02f;" horiz-adv-x="609" 
d="M464 184c-107 -214 -250 -444 -364 -444c-38 0 -67 24 -67 57c0 30 26 57 55 57c28 0 40 -26 67 -26c40 0 94 58 152 142c-48 193 -91 396 -134 496c-9 21 -32 47 -58 47c-7 0 -14 -2 -21 -7c-37 -23 -23 -80 -60 -115c-13 -12 -27 -17 -40 -17c-30 0 -55 30 -40 72
c18 49 70 65 138 88l147 49c56 -117 102 -310 144 -490c22 39 45 80 66 122c20 39 48 96 123 244c61 119 151 297 288 297c44 0 74 -18 68 -53c-4 -31 -32 -57 -64 -57c-27 0 -53 16 -76 16c-60 0 -129 -102 -251 -337c-24 -46 -48 -91 -73 -141z" />
    <glyph glyph-name="uniE030" unicode="&#xe030;" horiz-adv-x="609" 
d="M464 184c-107 -214 -250 -444 -364 -444c-38 0 -67 24 -67 57c0 30 26 57 55 57c28 0 40 -26 67 -26c40 0 94 58 152 142c-48 193 -91 396 -134 496c-14 33 -36 46 -61 46c-8 0 -18 -2 -27 -5l-4 23l158 53c56 -117 102 -310 144 -490c22 39 45 80 66 122
c20 39 48 96 123 244c61 119 151 297 288 297c44 0 74 -18 68 -53c-4 -31 -32 -57 -64 -57c-27 0 -53 16 -76 16c-60 0 -129 -102 -251 -337c-24 -46 -48 -91 -73 -141z" />
    <glyph glyph-name="uniE031" unicode="&#xe031;" horiz-adv-x="582" 
d="M276 599l-35 -228c50 126 144 212 236 212c83 0 114 -69 93 -200l-42 -262c-1 -9 -5 -40 -3 -59c2 -16 8 -23 19 -23c12 0 28 9 39 20c3 3 10 10 16 19l18 -14c-17 -23 -32 -39 -47 -51c-25 -20 -54 -30 -82 -30c-35 0 -59 17 -65 47c-3 17 -2 43 4 79l44 278
c14 87 -2 129 -50 129c-67 0 -138 -83 -192 -223l-46 -293h-99l98 629c6 40 10 77 13 111c-81 -30 -162 -58 -251 -58c-361 0 -268 460 69 460c144 0 261 -84 277 -308c71 31 142 55 208 55c94 0 149 -50 137 -128c-11 -66 -67 -130 -128 -140s-85 48 -36 81
c45 31 125 6 133 54c5 36 -37 57 -116 57c-69 0 -133 -17 -196 -38c0 -52 -6 -110 -16 -176zM198 792c7 235 -75 320 -182 320c-231 0 -292 -400 -63 -400c72 0 157 39 245 80z" />
    <glyph glyph-name="uniE032" unicode="&#xe032;" horiz-adv-x="276" 
d="M259 790c37 0 63 -31 57 -70c-6 -38 -42 -69 -79 -69c-38 0 -65 31 -59 69c6 39 43 70 81 70zM286 583l-70 -442c-19 -121 -49 -220 -92 -296c68 -37 136 -68 222 -68c72 0 119 22 125 57c7 48 -81 23 -116 54c-39 33 4 91 62 81s93 -74 83 -140
c-12 -76 -81 -128 -169 -128c-84 0 -161 47 -237 98c-73 -101 -173 -151 -302 -151c-155 0 -258 71 -242 166c13 85 114 144 248 144c104 0 183 -36 256 -75c25 62 45 138 59 228l47 302c9 55 -7 85 -44 85c-9 0 -19 -2 -30 -5l-4 23zM34 -161c-72 48 -144 89 -223 89
c-86 0 -154 -49 -165 -118c-12 -77 53 -132 156 -132c101 0 177 53 232 161z" />
    <glyph glyph-name="uniE033" unicode="&#xe033;" horiz-adv-x="567" 
d="M86 493l-4 23l204 67l-27 -168c47 80 117 168 216 168c254 0 152 -600 -176 -600c-39 0 -77 9 -111 24c-17 -62 -38 -116 -64 -162c68 -37 136 -68 222 -68c72 0 119 22 125 57c7 48 -81 23 -116 54c-39 33 4 91 62 81s93 -74 83 -140c-12 -76 -81 -128 -169 -128
c-84 0 -161 47 -237 98c-73 -101 -173 -151 -302 -151c-155 0 -258 71 -242 166c13 85 114 144 248 144c104 0 183 -36 256 -75c25 62 45 138 59 228l47 302c9 55 -7 85 -44 85c-9 0 -19 -2 -30 -5zM216 141c-6 -37 -13 -72 -21 -105c25 -16 53 -24 82 -24
c138 0 208 166 226 281c17 119 -19 213 -83 213c-56 0 -127 -74 -173 -172zM34 -161c-72 48 -144 89 -223 89c-86 0 -154 -49 -165 -118c-12 -77 53 -132 156 -132c101 0 177 53 232 161z" />
    <glyph glyph-name="uniE034" unicode="&#xe034;" horiz-adv-x="589" 
d="M533 111c-14 -90 -19 -165 -14 -227c85 39 175 74 279 74c134 0 218 -59 204 -144c-15 -95 -141 -166 -296 -166c-129 0 -213 49 -254 150c-92 -51 -183 -97 -267 -97c-88 0 -141 52 -129 128c10 66 67 130 127 140c62 10 85 -48 36 -81c-45 -31 -124 -6 -132 -54
c-5 -35 35 -57 107 -57c86 0 164 31 243 68c-19 76 -18 175 1 296l3 19c-52 -107 -138 -177 -221 -177c-82 0 -114 69 -93 200l42 262c1 9 5 40 3 59c-2 15 -8 23 -19 23c-21 0 -44 -22 -55 -39l-18 14c32 43 72 81 129 81c35 0 59 -17 65 -47c3 -17 2 -43 -4 -79l-44 -278
c-14 -87 2 -129 50 -129c61 0 125 68 177 185l28 178c9 55 1 85 -32 85c-8 0 -18 -2 -29 -5l-4 23l191 67zM525 -161c20 -108 80 -161 181 -161c103 0 186 55 198 132c11 69 -41 118 -127 118c-79 0 -165 -41 -252 -89z" />
    <glyph glyph-name="uniE035" unicode="&#xe035;" horiz-adv-x="588" 
d="M434 111l8 51c-52 -108 -138 -179 -222 -179c-82 0 -114 69 -93 200l42 262c1 9 5 40 3 59c-2 15 -8 23 -19 23c-21 0 -44 -22 -55 -39l-18 14c32 43 72 81 129 81c35 0 59 -17 65 -47c3 -17 2 -43 -4 -79l-44 -278c-14 -87 2 -129 50 -129c62 0 125 68 177 186l28 177
c9 55 1 85 -32 85c-8 0 -18 -2 -29 -5l-4 23l191 67l-70 -442c-19 -121 -49 -220 -92 -296c68 -37 136 -68 222 -68c72 0 119 22 125 57c7 48 -81 23 -116 54c-39 33 4 91 62 81s93 -74 83 -140c-12 -76 -81 -128 -169 -128c-84 0 -161 47 -237 98
c-73 -101 -173 -151 -302 -151c-155 0 -258 71 -242 166c13 85 114 144 248 144c104 0 183 -36 256 -75c25 62 45 138 59 228zM355 -161c-72 48 -144 89 -223 89c-86 0 -154 -49 -165 -118c-12 -77 53 -132 156 -132c101 0 177 53 232 161z" />
    <glyph glyph-name="uniE036" unicode="&#xe036;" horiz-adv-x="588" 
d="M607 583l-92 -581c-27 -172 -114 -262 -261 -262c-107 0 -183 48 -183 116c0 37 26 73 65 73c16 0 31 -8 41 -22c36 -48 -14 -133 87 -133c82 0 125 56 146 188l31 199c-52 -107 -137 -178 -221 -178c-82 0 -114 69 -93 200l42 262c1 9 5 40 3 59c-2 15 -8 23 -19 23
c-21 0 -44 -22 -55 -39l-18 14c32 43 72 81 129 81c35 0 59 -17 65 -47c3 -17 2 -43 -4 -79l-44 -278c-14 -87 2 -129 50 -129c61 0 125 68 177 185l28 178c9 55 1 85 -32 85c-8 0 -18 -2 -29 -5l-4 23z" />
    <glyph glyph-name="uniE037" unicode="&#xe037;" horiz-adv-x="544" 
d="M393 141l1 7c-47 -80 -116 -165 -214 -165c-261 0 -134 600 162 600c45 0 79 -14 114 -49l107 49l-75 -472c-14 -90 -19 -165 -14 -227c85 39 175 74 279 74c134 0 218 -59 204 -144c-15 -95 -141 -166 -296 -166c-129 0 -213 49 -254 150c-92 -51 -183 -97 -267 -97
c-88 0 -141 52 -129 128c10 66 67 130 127 140c62 10 85 -48 36 -81c-45 -31 -124 -6 -132 -54c-5 -35 35 -57 107 -57c86 0 164 31 243 68c-19 76 -18 175 1 296zM407 229l38 239c-17 56 -45 82 -90 82c-94 0 -180 -117 -203 -277c-17 -119 20 -213 83 -213
c55 0 126 72 172 169zM480 -161c20 -108 80 -161 181 -161c103 0 186 55 198 132c11 69 -41 118 -127 118c-79 0 -165 -41 -252 -89z" />
    <glyph glyph-name="uniE038" unicode="&#xe038;" horiz-adv-x="822" 
d="M456 534l107 49l-72 -451c-19 -118 34 -211 121 -211c79 0 142 78 161 200c18 111 -9 200 -60 200c-52 0 -36 -96 -79 -136c-14 -13 -28 -19 -42 -19c-31 0 -54 32 -40 74c20 59 99 110 169 110c92 0 143 -87 123 -211c-24 -149 -131 -249 -267 -249
c-134 0 -201 96 -182 259c-47 -80 -116 -166 -215 -166c-261 0 -134 600 162 600c45 0 79 -14 114 -49zM407 229l38 239c-17 56 -45 82 -90 82c-94 0 -180 -117 -203 -277c-17 -119 20 -213 83 -213c55 0 126 72 172 169z" />
    <glyph glyph-name="uniE039" unicode="&#xe039;" horiz-adv-x="860" 
d="M569 383l-40 -251c-19 -118 34 -211 121 -211c79 0 142 78 161 200c18 111 -9 200 -60 200c-52 0 -36 -96 -79 -136c-14 -13 -28 -19 -42 -19c-31 0 -54 32 -40 74c20 59 99 110 169 110c92 0 143 -87 123 -211c-24 -149 -131 -249 -267 -249c-140 0 -207 105 -179 282
l34 215c14 87 -2 129 -50 129c-67 0 -138 -83 -192 -222l-46 -294h-99l64 413c9 55 1 85 -32 85c-8 0 -18 -2 -29 -5l-4 23l191 67l-33 -211c50 125 144 211 236 211c83 0 114 -69 93 -200z" />
    <glyph glyph-name="uniE03A" unicode="&#xe03a;" horiz-adv-x="1153" 
d="M455 387c14 87 -2 129 -50 129c-68 0 -123 -83 -177 -222l-46 -294h-99l64 413c9 55 1 85 -32 85c-8 0 -18 -2 -29 -5l-4 23l191 67l-33 -209c49 128 133 209 221 209c72 0 105 -53 98 -154c53 93 132 154 209 154c82 0 114 -69 93 -200l-39 -251
c-18 -118 34 -211 121 -211c79 0 142 78 161 200c18 111 -9 200 -60 200c-52 0 -36 -96 -79 -136c-14 -13 -28 -19 -42 -19c-31 0 -54 32 -40 74c20 59 99 110 169 110c92 0 143 -87 123 -211c-24 -149 -131 -249 -267 -249c-140 0 -206 105 -179 282l33 215
c14 87 -2 129 -50 129c-55 0 -108 -52 -157 -129l-1 -3v-1l-62 -383h-99z" />
    <glyph glyph-name="uniE03B" unicode="&#xe03b;" horiz-adv-x="822" 
d="M491 132c-19 -118 34 -211 121 -211c79 0 142 78 161 200c18 111 -9 200 -60 200c-52 0 -36 -96 -79 -136c-14 -13 -28 -19 -42 -19c-31 0 -54 32 -40 74c20 59 99 110 169 110c92 0 143 -87 123 -211c-24 -149 -131 -249 -267 -249c-134 0 -201 96 -182 259
c-47 -80 -116 -166 -215 -166c-261 0 -134 600 162 600c45 0 79 -14 114 -49l28 180c9 55 1 85 -32 85c-8 0 -18 -2 -29 -5l-5 23l192 67zM407 229l38 239c-17 56 -45 82 -90 82c-94 0 -180 -117 -203 -277c-17 -119 20 -213 83 -213c55 0 126 72 172 169z" />
    <glyph glyph-name="uniE03C" unicode="&#xe03c;" horiz-adv-x="860" 
d="M569 383l-40 -251c-19 -118 34 -211 121 -211c79 0 142 78 161 200c18 111 -9 200 -60 200c-52 0 -36 -96 -79 -136c-46 -44 -102 -5 -82 55c20 59 99 110 169 110c92 0 143 -87 123 -211c-24 -149 -131 -249 -267 -249c-140 0 -207 105 -179 282l34 215
c14 87 -1 129 -49 129c-66 0 -137 -81 -191 -220l-47 -296h-99l112 714c11 73 -7 97 -61 80l-5 23l192 67l-80 -510c50 124 144 209 235 209c82 0 113 -68 92 -200z" />
    <glyph glyph-name="uniE03D" unicode="&#xe03d;" horiz-adv-x="535" 
d="M323 884l-119 -752c-19 -118 34 -211 121 -211c79 0 142 78 161 200c18 111 -9 200 -60 200c-52 0 -36 -96 -79 -136c-46 -44 -102 -5 -82 55c20 59 99 110 169 110c92 0 143 -87 123 -211c-24 -149 -131 -249 -267 -249c-140 0 -207 105 -179 282l86 542
c11 68 -3 98 -61 80l-5 23z" />
    <glyph glyph-name="uniE03E" unicode="&#xe03e;" horiz-adv-x="866" 
d="M226 179c-14 -87 2 -129 50 -129c61 0 125 67 176 182l29 181c9 55 1 85 -32 85c-8 0 -18 -2 -29 -5l-4 23l191 67l-72 -451c-19 -118 34 -211 121 -211c79 0 142 78 161 200c18 111 -9 200 -60 200c-52 0 -36 -96 -79 -136c-14 -13 -28 -19 -42 -19c-31 0 -54 32 -40 74
c20 59 99 110 169 110c92 0 143 -87 123 -211c-24 -149 -131 -249 -267 -249s-203 99 -181 268c-52 -105 -137 -175 -220 -175c-82 0 -114 69 -93 200l42 262c1 9 5 40 3 59c-2 15 -8 23 -19 23c-21 0 -44 -22 -55 -39l-18 14c32 43 72 81 129 81c35 0 59 -17 65 -47
c3 -17 2 -43 -4 -79z" />
    <glyph glyph-name="uniE03F" unicode="&#xe03f;" horiz-adv-x="843" 
d="M181 0h-99l113 714c11 68 -3 98 -61 80l-5 23l192 67l-81 -511c49 128 133 210 219 210c64 0 106 -45 106 -112c0 -89 -76 -149 -214 -173l82 -146c91 -161 149 -229 208 -229c75 0 133 72 152 189c17 110 -10 199 -61 199c-52 0 -36 -96 -78 -136
c-46 -44 -103 -5 -83 55c21 59 100 110 170 110c92 0 142 -87 122 -211c-23 -151 -131 -239 -271 -239c-90 0 -146 42 -207 154c-47 86 -86 156 -135 243c133 36 213 101 213 172c0 36 -20 57 -55 57c-65 0 -122 -71 -181 -223z" />
    <glyph glyph-name="uniE040" unicode="&#xe040;" horiz-adv-x="541" 
d="M294 153c-48 0 -85 11 -114 30c-14 -17 -25 -34 -27 -49c-8 -49 84 -44 138 -44c94 0 267 18 244 -131c-6 -38 -22 -71 -46 -99c77 -43 152 -83 243 -83c72 0 119 22 125 57c7 48 -81 23 -116 54c-39 33 4 91 62 81s93 -74 83 -140c-12 -76 -81 -128 -169 -128
c-94 0 -179 61 -268 121c-70 -54 -173 -82 -267 -82c-130 0 -216 52 -204 125c10 63 87 103 194 103c120 0 210 -48 296 -96c14 14 23 30 26 47c9 54 -50 78 -196 78c-64 0 -241 -4 -228 78c6 38 52 86 92 122c-47 42 -62 108 -51 176c18 112 105 210 251 210
c17 0 32 -2 46 -4l193 49c44 7 46 -72 -1 -72l-126 1c63 -37 85 -107 73 -184c-18 -112 -105 -220 -253 -220zM299 181c97 0 134 131 144 190c10 63 14 184 -85 184s-133 -121 -143 -184c-10 -59 -12 -190 84 -190zM421 -160c-80 52 -164 99 -261 99c-49 0 -85 -19 -90 -48
c-7 -48 71 -83 185 -83c66 0 124 12 166 32z" />
    <glyph glyph-name="uniE041" unicode="&#xe041;" horiz-adv-x="813" 
d="M556 -17c-25 100 -45 209 -63 300c-52 -100 -120 -208 -168 -300h-22c-49 196 -86 381 -130 483c-14 33 -36 46 -61 46c-8 0 -18 -2 -27 -5l-4 23l158 53c55 -116 94 -280 135 -457c37 64 85 149 111 201c-13 66 -25 117 -36 139c-16 33 -36 45 -60 45
c-8 0 -17 -1 -26 -4l-4 23l158 53c55 -116 67 -260 108 -437c108 228 227 610 427 610c52 0 78 -27 72 -59c-5 -30 -32 -51 -62 -51c-28 0 -54 16 -77 16c-123 0 -285 -432 -407 -679h-22z" />
    <glyph glyph-name="tilde" unicode="&#x2dc;" horiz-adv-x="382" 
d="M469 765l16 -21c-39 -61 -73 -81 -106 -81c-56 0 -106 56 -163 56c-24 0 -48 -9 -74 -35l-16 19c46 60 87 79 123 79c62 0 112 -53 160 -53c20 0 40 9 60 36z" />
    <glyph glyph-name="dotlessi" unicode="&#x131;" horiz-adv-x="253" 
d="M271 78l18 -14c-17 -23 -32 -39 -47 -51c-26 -20 -56 -30 -83 -30c-35 0 -59 17 -64 46c-3 17 -2 43 4 80l48 304c11 68 -3 98 -61 80l-4 23l191 67l-73 -462c-1 -9 -6 -39 -4 -58c2 -15 9 -24 20 -24c12 0 28 9 42 23c0 0 7 7 13 16z" />
    <glyph glyph-name="dieresis" unicode="&#xa8;" horiz-adv-x="364" 
d="M219 790c34 0 59 -29 53 -65c-6 -35 -39 -63 -73 -63c-35 0 -60 28 -54 63c6 36 39 65 74 65zM396 790c34 0 59 -29 53 -65c-6 -35 -39 -63 -73 -63c-35 0 -60 28 -54 63c6 36 39 65 74 65z" />
    <glyph glyph-name="circumflex" unicode="&#x2c6;" horiz-adv-x="418" 
d="M133 652l169 192h30l107 -192h-93l-35 154l-85 -154h-93z" />
    <glyph glyph-name="caron" unicode="&#x2c7;" horiz-adv-x="418" 
d="M301 652h-30l-107 192h93l35 -154l85 154h93z" />
    <glyph glyph-name="hungarumlaut" unicode="&#x2dd;" horiz-adv-x="366" 
d="M470 844l-169 -192h-30l106 192h93zM332 844l-169 -192h-30l106 192h93z" />
    <glyph glyph-name="ring" unicode="&#x2da;" horiz-adv-x="200" 
d="M230 819c47 0 79 -38 71 -87c-8 -47 -51 -84 -98 -84c-46 0 -80 37 -72 84c8 49 53 87 99 87zM223 777c-23 0 -46 -21 -50 -45c-4 -23 13 -42 36 -42c22 0 46 19 50 42c4 24 -14 45 -36 45z" />
    <glyph glyph-name="dotaccent" unicode="&#x2d9;" horiz-adv-x="198" 
d="M225 790c37 0 63 -31 57 -70c-6 -38 -42 -69 -79 -69c-38 0 -65 31 -59 69c6 39 43 70 81 70z" />
    <glyph glyph-name="breve" unicode="&#x2d8;" horiz-adv-x="315" 
d="M330 754h74c-9 -62 -66 -99 -142 -99c-77 0 -122 37 -113 99h71c-6 -43 11 -72 43 -72c33 0 61 30 67 72z" />
    <glyph glyph-name="ogonek" unicode="&#x2db;" horiz-adv-x="159" 
d="M30 0h27c-5 -32 20 -57 63 -57l-11 -71c-62 0 -91 51 -79 128z" />
    <glyph glyph-name="cedilla" unicode="&#xb8;" horiz-adv-x="225" 
d="M62 0h22l-17 -57c73 0 114 -30 107 -78c-8 -45 -54 -82 -108 -82c-36 0 -64 16 -63 39c0 15 12 25 24 25c6 0 11 -2 16 -8c10 -15 2 -38 26 -38c23 0 53 20 59 57c6 44 -29 73 -86 72z" />
    <glyph glyph-name="acute" unicode="&#xb4;" horiz-adv-x="228" 
d="M332 844l-169 -192h-30l106 192h93z" />
    <glyph glyph-name="section" unicode="&#xa7;" horiz-adv-x="409" 
d="M18 57l22 141h27c0 -119 85 -184 158 -184c53 0 97 35 105 88c24 150 -287 137 -257 326c11 70 62 121 140 143c-57 35 -105 79 -93 158c16 96 105 155 236 155c87 0 145 -26 144 -64l-21 -132h-27c0 104 -41 166 -123 166c-62 0 -110 -35 -118 -85
c-22 -136 296 -120 265 -314c-11 -69 -58 -122 -127 -150c52 -33 91 -77 79 -151c-16 -102 -113 -171 -237 -171c-89 0 -179 36 -173 74zM316 324c32 13 56 42 62 79c12 74 -58 109 -128 147c-46 -10 -80 -41 -87 -82c-11 -73 76 -102 153 -144z" />
    <glyph glyph-name="perthousand" unicode="&#x2030;" horiz-adv-x="946" 
d="M234 497c-108 0 -122 110 -110 182c11 72 58 178 166 178s122 -107 110 -181c-11 -72 -58 -179 -166 -179zM109 -17l-31 20l599 854l31 -20zM196 586c5 -35 19 -58 43 -58c51 0 81 110 87 150c3 19 6 57 2 90c-6 35 -19 58 -42 58c-53 0 -82 -108 -89 -150
c-3 -19 -6 -57 -1 -90zM472 -16c-109 0 -122 109 -111 182c12 72 58 178 166 178c109 0 123 -108 112 -181c-12 -73 -59 -179 -167 -179zM790 -16c-109 0 -122 109 -111 182c12 72 58 178 166 178c109 0 123 -108 112 -181c-12 -73 -59 -179 -167 -179zM434 73
c4 -36 18 -58 42 -58c52 0 82 109 88 150c3 18 6 57 1 90c-4 35 -17 58 -41 58c-55 0 -81 -108 -88 -150c-3 -19 -7 -57 -2 -90zM752 73c4 -36 18 -58 42 -58c52 0 82 109 88 150c3 18 6 57 1 90c-4 35 -17 58 -41 58c-55 0 -81 -108 -88 -150c-3 -19 -7 -57 -2 -90z" />
    <glyph glyph-name="uni00B5" unicode="&#xb5;" horiz-adv-x="576" 
d="M399 516l191 67l-69 -440c-9 -60 -3 -85 26 -85c8 0 17 2 28 5l4 -23l-154 -57h-29l17 104c-69 -69 -137 -104 -204 -104c-11 0 -22 1 -30 3l-17 -104h-99l84 531c9 55 1 85 -32 85c-8 0 -18 -2 -29 -5l-4 23l191 67l-64 -404c-10 -68 -12 -129 66 -129
c49 0 97 23 143 70l46 293c9 55 1 85 -32 85c-8 0 -18 -2 -29 -5z" />
    <glyph glyph-name="paragraph" unicode="&#xb6;" horiz-adv-x="600" 
d="M725 884l-5 -29h-69l-113 -719c-9 -54 -22 -101 50 -114l-3 -22h-109l135 855h-40l-135 -855h-109l3 22c78 13 79 60 88 114l34 215c-55 -45 -111 -67 -169 -67c-132 0 -205 116 -178 283c30 188 166 317 332 317h288zM458 388l73 467h-114c-101 0 -182 -96 -204 -239
c-25 -155 34 -268 139 -268c37 0 73 13 106 40z" />
    <glyph glyph-name="sterling" unicode="&#xa3;" horiz-adv-x="522" 
d="M259 334c15 -28 23 -48 25 -66h115l-6 -40h-114c-10 -25 -34 -52 -87 -97c-8 -7 -19 -16 -37 -32h201c94 0 104 6 161 93l19 -8l-73 -184h-448l3 22c65 56 103 87 151 129c45 40 65 60 72 77h-127l6 40h117c-4 10 -10 22 -26 47c-79 122 -110 229 -95 323
c21 130 127 219 263 219c127 0 199 -78 207 -223l-24 -6c-18 84 -85 137 -169 137c-96 0 -169 -70 -186 -180c-13 -80 5 -167 52 -251z" />
    <glyph glyph-name="periodcentered" unicode="&#xb7;" horiz-adv-x="213" 
d="M136 348c33 0 58 -28 51 -68c-6 -38 -40 -70 -73 -70c-35 0 -56 33 -50 70c7 39 37 68 72 68z" />
    <glyph glyph-name="exclamdown" unicode="&#xa1;" horiz-adv-x="153" 
d="M146 445c-35 0 -56 29 -50 68c6 37 37 70 72 70c33 0 57 -32 51 -70c-6 -40 -40 -68 -73 -68zM94 -243h-111c65 249 107 439 145 638h23c-26 -199 -44 -389 -57 -638z" />
    <glyph glyph-name="questiondown" unicode="&#xbf;" horiz-adv-x="434" 
d="M321 445c-33 0 -57 28 -51 68c6 38 40 70 73 70c35 0 56 -33 50 -70c-6 -39 -37 -68 -72 -68zM327 396l-11 -138c-141 -93 -199 -161 -212 -247c-15 -95 31 -158 113 -158c71 0 138 47 180 126l19 -6c-49 -134 -139 -211 -247 -211c-114 0 -178 85 -158 210
c22 144 137 217 262 291l31 133h23z" />
    <glyph glyph-name="threesuperior" unicode="&#xb3;" horiz-adv-x="330" 
d="M202 604l3 21l5 1c61 3 117 32 127 91c7 47 -19 79 -69 79c-42 0 -72 -24 -94 -59l-4 -4l-19 8l2 4c31 60 81 113 156 113c68 0 107 -47 98 -109c-7 -45 -42 -95 -89 -121c61 -18 85 -70 76 -132c-15 -93 -100 -176 -204 -176c-48 0 -121 23 -111 84c3 19 20 39 44 39
c41 0 38 -42 42 -67c2 -15 7 -26 38 -26c68 0 112 58 121 117c12 77 -32 137 -117 137h-5z" />
    <glyph glyph-name="twosuperior" unicode="&#xb2;" horiz-adv-x="346" 
d="M66 320l3 20l2 1c107 86 266 219 286 346c8 53 -12 105 -73 105c-52 0 -99 -37 -124 -83l-2 -3l-22 6l1 4c28 76 85 142 176 142c87 0 132 -60 120 -140c-19 -119 -164 -248 -262 -327h113c57 0 66 8 96 58l21 -8l-49 -121h-286z" />
    <glyph glyph-name="onesuperior" unicode="&#xb9;" horiz-adv-x="200" 
d="M236 319h-157l3 22c22 3 37 12 44 25c6 11 8 29 11 42l52 329c2 14 9 50 -13 50c-8 0 -18 -4 -28 -9l-6 21l116 59h20l-74 -464c-5 -31 -2 -47 31 -52l4 -1z" />
    <glyph glyph-name="fraction" unicode="&#x2044;" horiz-adv-x="322" 
d="M64 -17h-47l388 901h47z" />
    <glyph glyph-name="onequarter" unicode="&#xbc;" horiz-adv-x="727" 
d="M192 -17h-47l508 901h47zM236 319h-157l3 22c44 6 49 29 55 67l52 329c2 14 10 50 -13 50c-7 0 -18 -4 -28 -9l-6 21l116 59h20l-74 -464c-5 -31 -2 -47 31 -52l4 -1zM585 121h-196l6 34l305 383h22l-59 -371c13 8 24 20 33 32c12 15 22 32 31 47l3 4l20 -8l-48 -121h-46
l-7 -46c-5 -31 -3 -47 31 -52l3 -1l-3 -22h-157l3 22l5 1c34 5 42 21 47 52zM630 397l-198 -246h158z" />
    <glyph glyph-name="onehalf" unicode="&#xbd;" horiz-adv-x="783" 
d="M192 -17h-47l508 901h47zM236 319h-157l3 22c44 6 49 29 55 67l52 329c2 14 10 50 -13 50c-7 0 -18 -4 -28 -9l-6 21l116 59h20l-74 -464c-5 -31 -2 -47 31 -52l4 -1zM738 0h-286l3 20l2 1c107 86 266 219 286 346c9 53 -11 105 -72 105c-52 0 -100 -37 -124 -83l-3 -3
l-22 6l2 4c28 76 84 142 175 142c87 0 133 -60 120 -140c-19 -119 -163 -248 -262 -327h113c57 0 67 8 96 58l21 -8z" />
    <glyph glyph-name="threequarters" unicode="&#xbe;" horiz-adv-x="797" 
d="M262 -17h-47l508 901h47zM207 604h-5l3 21l5 1c61 3 117 32 127 91c7 47 -19 79 -69 79c-42 0 -72 -24 -94 -59l-4 -4l-19 8l2 4c31 60 81 113 156 113c68 0 107 -47 98 -109c-7 -45 -42 -95 -89 -121c61 -18 85 -70 76 -132c-15 -93 -100 -176 -204 -176
c-48 0 -121 23 -111 84c3 19 20 39 44 39c41 0 38 -42 42 -67c2 -15 7 -26 38 -26c68 0 112 58 121 117c12 77 -32 137 -117 137zM655 121h-196l6 34l305 383h22l-59 -371c13 8 24 20 33 32c12 15 22 32 31 47l3 4l20 -8l-48 -121h-46l-7 -46c-5 -31 -3 -47 31 -52l3 -1
l-3 -22h-157l3 22l5 1c34 5 42 21 47 52zM700 397l-198 -246h158z" />
    <glyph glyph-name="trademark" unicode="&#x2122;" horiz-adv-x="970" 
d="M483 320l3 22l4 1c42 6 58 29 64 67l61 385c6 37 -3 60 -43 66l-3 1l3 23h123l86 -429l197 429h117l-3 -23l-5 -1c-36 -6 -43 -23 -49 -56l-64 -406c-5 -33 -3 -50 31 -56l4 -1l-3 -22h-162l3 22l4 1c35 5 44 21 49 53l59 372l-212 -448h-21l-85 444l-56 -354
c-6 -37 2 -61 41 -67l4 -1l-3 -22h-144zM189 320l3 22l4 1c35 5 44 21 49 53l72 457h-57c-62 0 -85 -28 -99 -84l-1 -5h-24l24 121h397l-14 -121h-24l1 5c3 56 -11 84 -74 84h-54l-72 -457c-5 -32 -2 -48 31 -53l3 -1l-3 -22h-162z" />
    <glyph glyph-name="degree" unicode="&#xb0;" horiz-adv-x="406" 
d="M254 323c-115 0 -171 106 -145 270c26 163 114 264 229 264c116 0 172 -103 146 -268c-26 -163 -114 -266 -230 -266zM258 350c61 0 115 94 139 241c23 146 -2 239 -63 239s-114 -94 -138 -240c-23 -147 1 -240 62 -240z" />
    <glyph glyph-name="ordfeminine" unicode="&#xaa;" horiz-adv-x="470" 
d="M358 858c108 0 160 -43 137 -190c-3 -22 -7 -39 -9 -54l-12 -79c-2 -15 -5 -32 -9 -54c-9 -54 -2 -76 24 -76c6 0 14 1 24 4l4 -20l-137 -51h-26c4 27 8 50 11 71c-68 -60 -124 -86 -179 -86c-72 0 -112 47 -102 115c16 95 118 157 311 162c4 26 9 54 14 89
c16 99 -7 142 -69 142c-86 0 -72 -85 -110 -121c-10 -10 -25 -15 -40 -15c-26 0 -50 19 -34 64c20 56 94 99 202 99zM370 442c7 48 13 86 21 132c-81 -3 -196 -25 -210 -112c-7 -47 20 -77 64 -77c38 0 82 21 125 57z" />
    <glyph glyph-name="ordmasculine" unicode="&#xba;" horiz-adv-x="307" 
d="M233 497c-108 0 -122 110 -110 182c11 72 58 178 166 178s122 -107 110 -181c-11 -72 -58 -179 -166 -179zM195 586c5 -35 19 -58 43 -58c51 0 81 110 87 150c3 19 6 57 2 90c-6 35 -19 58 -42 58c-53 0 -82 -108 -89 -150c-3 -19 -6 -57 -1 -90z" />
    <glyph glyph-name="currency" unicode="&#xa4;" horiz-adv-x="630" 
d="M312 -17c-76 0 -141 29 -187 76l-88 -76l-21 23l89 77c-39 53 -57 123 -45 200c12 76 52 147 107 200l-63 76l26 24l65 -77c61 48 135 77 212 77c76 0 143 -29 188 -76l88 76l21 -23l-90 -77c40 -53 58 -123 46 -200c-12 -76 -52 -146 -108 -199l64 -76l-27 -25l-64 77
c-61 -48 -136 -77 -213 -77zM318 17c146 0 286 120 309 266s-79 267 -225 267s-285 -121 -308 -267s78 -266 224 -266z" />
    <glyph glyph-name="eth" unicode="&#xf0;" horiz-adv-x="529" 
d="M304 857c53 -17 98 -44 135 -77l98 64l17 -33l-89 -58c97 -108 125 -270 102 -418c-30 -188 -143 -352 -304 -352c-143 0 -229 132 -202 301c24 151 125 250 250 250c60 0 113 -23 151 -64c-4 88 -22 175 -57 244l-102 -66l-18 33l101 65c-25 38 -56 69 -95 88zM463 430
c-32 32 -68 49 -104 49c-94 0 -180 -109 -203 -251c-20 -125 22 -211 102 -211c99 0 170 132 195 291c6 40 10 81 10 122z" />
    <glyph glyph-name="thorn" unicode="&#xfe;" horiz-adv-x="580" 
d="M75 -124l133 838c9 55 -7 85 -44 85c-9 0 -19 -2 -30 -5l-5 23l205 67l-58 -368c55 44 110 67 168 67c132 0 205 -116 179 -283c-30 -188 -167 -317 -333 -317c-35 0 -67 6 -96 17l-20 -124c-8 -54 -22 -101 51 -114l-3 -22h-250l3 22c84 11 90 49 100 114zM270 479
l-63 -394c9 -45 48 -73 103 -73c101 0 182 96 205 239c24 155 -35 268 -140 268c-37 0 -72 -14 -105 -40z" />
    <glyph glyph-name="Thorn" unicode="&#xde;" horiz-adv-x="601" 
d="M13 0l3 22c78 13 79 60 88 114l96 612c9 54 22 101 -50 114l3 22h241l-3 -22c-75 -13 -79 -57 -87 -108h110c189 0 285 -106 256 -284c-28 -178 -157 -300 -318 -300c-43 0 -86 9 -136 28l-9 -62c-9 -54 -22 -101 50 -114l-3 -22h-241zM313 212c122 0 220 107 245 267
c24 155 -39 245 -172 245c-32 0 -60 -5 -89 -16l-75 -472c35 -17 60 -24 91 -24z" />
    <glyph glyph-name="germandbls" unicode="&#xdf;" horiz-adv-x="619" 
d="M500 493c275 -65 154 -510 -118 -510c-92 0 -162 51 -162 116c0 43 32 72 63 72c15 0 30 -6 41 -21c35 -48 -14 -133 66 -133c182 0 268 445 -51 445l4 22c119 6 191 67 209 177c17 108 -31 185 -115 185c-69 0 -126 -53 -139 -132c-44 -278 -69 -436 -113 -714h-172
l3 22c78 13 79 60 88 114l76 481c29 185 169 267 287 267c120 0 198 -84 180 -196c-13 -81 -74 -161 -147 -195z" />
    <glyph glyph-name="Agrave" unicode="&#xc0;" horiz-adv-x="683" 
d="M533 926l-88 192h93l25 -192h-30zM681 22l-3 -22h-252l3 22c56 0 82 37 73 94l-18 113h-280l-50 -110c-31 -66 -16 -97 45 -97l-3 -22h-191l3 22c43 0 81 30 112 97l351 765h22l123 -772c11 -70 20 -90 65 -90zM221 264h258l-66 420z" />
    <glyph glyph-name="Aacute" unicode="&#xc1;" horiz-adv-x="683" 
d="M435 926h-30l105 192h93zM681 22l-3 -22h-252l3 22c56 0 82 37 73 94l-18 113h-280l-50 -110c-31 -66 -16 -97 45 -97l-3 -22h-191l3 22c43 0 81 30 112 97l351 765h22l123 -772c11 -70 20 -90 65 -90zM221 264h258l-66 420z" />
    <glyph glyph-name="Acircumflex" unicode="&#xc2;" horiz-adv-x="683" 
d="M504 1118h30l108 -192h-93l-36 154l-84 -154h-93zM681 22l-3 -22h-252l3 22c56 0 82 37 73 94l-18 113h-280l-50 -110c-31 -66 -16 -97 45 -97l-3 -22h-191l3 22c43 0 81 30 112 97l351 765h22l123 -772c11 -70 20 -90 65 -90zM221 264h258l-66 420z" />
    <glyph glyph-name="Atilde" unicode="&#xc3;" horiz-adv-x="683" 
d="M679 1018c-39 -61 -73 -81 -106 -81c-56 0 -106 56 -163 56c-23 0 -47 -9 -73 -35l-16 19c46 60 86 79 123 79c61 0 112 -53 160 -53c20 0 40 9 60 36zM681 22l-3 -22h-252l3 22c56 0 82 37 73 94l-18 113h-280l-50 -110c-31 -66 -16 -97 45 -97l-3 -22h-191l3 22
c43 0 81 30 112 97l351 765h22l123 -772c11 -70 20 -90 65 -90zM221 264h258l-66 420z" />
    <glyph glyph-name="Adieresis" unicode="&#xc4;" horiz-adv-x="683" 
d="M423 1064c34 0 58 -29 52 -65c-5 -35 -39 -63 -73 -63c-35 0 -59 28 -54 63c6 36 40 65 75 65zM600 1064c34 0 58 -29 52 -65c-5 -35 -39 -63 -73 -63c-35 0 -59 28 -54 63c6 36 40 65 75 65zM681 22l-3 -22h-252l3 22c56 0 82 37 73 94l-18 113h-280l-50 -110
c-31 -66 -16 -97 45 -97l-3 -22h-191l3 22c43 0 81 30 112 97l351 765h22l123 -772c11 -70 20 -90 65 -90zM221 264h258l-66 420z" />
    <glyph glyph-name="Aring" unicode="&#xc5;" horiz-adv-x="683" 
d="M515 1093c47 0 79 -38 71 -87c-7 -47 -51 -84 -98 -84c-46 0 -79 37 -72 84c8 49 53 87 99 87zM508 1051c-23 0 -46 -21 -50 -45c-3 -23 14 -42 37 -42c22 0 46 19 49 42c4 24 -14 45 -36 45zM681 22l-3 -22h-252l3 22c56 0 82 37 73 94l-18 113h-280l-50 -110
c-31 -66 -16 -97 45 -97l-3 -22h-191l3 22c43 0 81 30 112 97l351 765h22l123 -772c11 -70 20 -90 65 -90zM221 264h258l-66 420z" />
    <glyph glyph-name="AE" unicode="&#xc6;" horiz-adv-x="1026" 
d="M5 0l3 22c43 0 82 34 122 97l414 656c34 55 19 87 -38 87l3 22h612l-20 -176h-22c3 103 -28 143 -112 143h-235l-36 -382h150c64 0 102 4 127 79h22l-31 -193h-22c-1 75 -37 79 -101 79h-148l-31 -335c-5 -54 2 -66 45 -66h121c108 0 152 73 205 159l19 -8l-72 -184h-508
l3 22c78 13 83 60 88 114l28 298h-225l-199 -315c-39 -62 -29 -97 32 -97l-3 -22h-191zM388 469h205l34 379z" />
    <glyph glyph-name="Ccedilla" unicode="&#xc7;" horiz-adv-x="618" 
d="M694 636l-23 -4c-11 143 -74 216 -175 216c-166 0 -279 -184 -309 -374c-32 -201 29 -409 218 -409c89 0 161 46 219 141l20 -8c-78 -142 -184 -215 -312 -215c-20 0 -39 2 -56 5l-13 -45c73 0 114 -30 107 -78c-8 -45 -54 -82 -108 -82c-36 0 -64 16 -63 39
c0 15 12 25 24 25c6 0 11 -2 16 -8c10 -15 2 -38 26 -38c23 0 53 20 59 57c6 44 -29 73 -86 72l18 63c-161 46 -214 242 -183 438c36 226 184 453 411 453c92 0 139 -40 176 -40c18 0 30 12 38 40h21z" />
    <glyph glyph-name="Eth" unicode="&#xd0;" horiz-adv-x="675" 
d="M153 884h249c254 0 381 -173 338 -441c-42 -267 -224 -443 -474 -443h-253l3 22c78 13 79 60 88 114l42 269h-86l6 40h86l48 303c9 54 22 101 -50 114zM394 854c-24 0 -50 -3 -75 -8l-64 -401h90l-6 -40h-90l-57 -359c26 -11 48 -16 82 -16c185 0 311 148 350 390
c40 256 -48 434 -230 434z" />
    <glyph glyph-name="Dcroat" unicode="&#x110;" horiz-adv-x="675" 
d="M153 884h249c254 0 381 -173 338 -441c-42 -267 -224 -443 -474 -443h-253l3 22c78 13 79 60 88 114l42 269h-86l6 40h86l48 303c9 54 22 101 -50 114zM394 854c-24 0 -50 -3 -75 -8l-64 -401h90l-6 -40h-90l-57 -359c26 -11 48 -16 82 -16c185 0 311 148 350 390
c40 256 -48 434 -230 434z" />
    <glyph glyph-name="Egrave" unicode="&#xc8;" horiz-adv-x="567" 
d="M505 926h-30l-88 192h93zM536 548l-31 -193h-22c-1 75 -37 79 -101 79h-128l-53 -335c-9 -54 2 -66 45 -66h123c108 0 152 73 205 159l19 -8l-72 -184h-508l3 22c78 13 79 60 88 114l96 612c9 54 22 101 -50 114l3 22h509l-20 -176h-22c3 103 -28 143 -112 143h-188
l-61 -382h128c64 0 102 4 127 79h22z" />
    <glyph glyph-name="Eacute" unicode="&#xc9;" horiz-adv-x="567" 
d="M545 1118l-168 -192h-30l105 192h93zM536 548l-31 -193h-22c-1 75 -37 79 -101 79h-128l-53 -335c-9 -54 2 -66 45 -66h123c108 0 152 73 205 159l19 -8l-72 -184h-508l3 22c78 13 79 60 88 114l96 612c9 54 22 101 -50 114l3 22h509l-20 -176h-22
c3 103 -28 143 -112 143h-188l-61 -382h128c64 0 102 4 127 79h22z" />
    <glyph glyph-name="Ecircumflex" unicode="&#xca;" horiz-adv-x="567" 
d="M278 926l168 192h30l108 -192h-93l-36 154l-84 -154h-93zM536 548l-31 -193h-22c-1 75 -37 79 -101 79h-128l-53 -335c-9 -54 2 -66 45 -66h123c108 0 152 73 205 159l19 -8l-72 -184h-508l3 22c78 13 79 60 88 114l96 612c9 54 22 101 -50 114l3 22h509l-20 -176h-22
c3 103 -28 143 -112 143h-188l-61 -382h128c64 0 102 4 127 79h22z" />
    <glyph glyph-name="Edieresis" unicode="&#xcb;" horiz-adv-x="567" 
d="M365 1064c34 0 58 -29 52 -65c-5 -35 -39 -63 -73 -63c-35 0 -59 28 -54 63c6 36 40 65 75 65zM542 1064c34 0 58 -29 52 -65c-5 -35 -39 -63 -73 -63c-35 0 -59 28 -54 63c6 36 40 65 75 65zM536 548l-31 -193h-22c-1 75 -37 79 -101 79h-128l-53 -335
c-9 -54 2 -66 45 -66h123c108 0 152 73 205 159l19 -8l-72 -184h-508l3 22c78 13 79 60 88 114l96 612c9 54 22 101 -50 114l3 22h509l-20 -176h-22c3 103 -28 143 -112 143h-188l-61 -382h128c64 0 102 4 127 79h22z" />
    <glyph glyph-name="Igrave" unicode="&#xcc;" horiz-adv-x="258" 
d="M350 926h-30l-88 192h93zM303 748l-96 -612c-9 -54 -22 -101 50 -114l-3 -22h-241l3 22c78 13 79 60 88 114l96 612c9 54 22 101 -50 114l3 22h241l-3 -22c-78 -13 -79 -60 -88 -114z" />
    <glyph glyph-name="Iacute" unicode="&#xcd;" horiz-adv-x="258" 
d="M390 1118l-168 -192h-30l105 192h93zM303 748l-96 -612c-9 -54 -22 -101 50 -114l-3 -22h-241l3 22c78 13 79 60 88 114l96 612c9 54 22 101 -50 114l3 22h241l-3 -22c-78 -13 -79 -60 -88 -114z" />
    <glyph glyph-name="Icircumflex" unicode="&#xce;" horiz-adv-x="258" 
d="M123 926l168 192h30l108 -192h-93l-36 154l-84 -154h-93zM303 748l-96 -612c-9 -54 -22 -101 50 -114l-3 -22h-241l3 22c78 13 79 60 88 114l96 612c9 54 22 101 -50 114l3 22h241l-3 -22c-78 -13 -79 -60 -88 -114z" />
    <glyph glyph-name="Idieresis" unicode="&#xcf;" horiz-adv-x="258" 
d="M210 1064c34 0 58 -29 52 -65c-5 -35 -39 -63 -73 -63c-35 0 -59 28 -54 63c6 36 40 65 75 65zM387 1064c34 0 58 -29 52 -65c-5 -35 -39 -63 -73 -63c-35 0 -59 28 -54 63c6 36 40 65 75 65zM303 748l-96 -612c-9 -54 -22 -101 50 -114l-3 -22h-241l3 22
c78 13 79 60 88 114l96 612c9 54 22 101 -50 114l3 22h241l-3 -22c-78 -13 -79 -60 -88 -114z" />
    <glyph glyph-name="Lslash" unicode="&#x141;" horiz-adv-x="597" 
d="M153 884h250l-3 -22c-78 -13 -79 -60 -88 -114l-55 -353h85l-7 -40h-85l-40 -256c-9 -54 2 -66 45 -66h143c108 0 152 73 205 159l19 -8l-72 -184h-537l3 22c78 13 79 60 88 114l34 219h-82l7 40h82l55 353c9 54 22 101 -50 114z" />
    <glyph glyph-name="Ntilde" unicode="&#xd1;" horiz-adv-x="739" 
d="M707 1018c-39 -61 -73 -81 -106 -81c-56 0 -106 56 -163 56c-23 0 -47 -9 -73 -35l-16 19c46 60 86 79 123 79c61 0 112 -53 160 -53c20 0 40 9 60 36zM256 752l-97 -616c-9 -54 -2 -101 70 -114l-3 -22h-213l3 22c78 13 99 60 108 114l96 612c9 54 2 101 -70 114l3 22
h171l314 -672l84 536c9 54 2 101 -70 114l3 22h213l-3 -22c-78 -13 -99 -60 -108 -114l-121 -765h-22z" />
    <glyph glyph-name="Ograve" unicode="&#xd2;" horiz-adv-x="657" 
d="M550 926h-30l-88 192h93zM326 -17c-194 0 -295 181 -252 452c42 265 196 449 395 449c198 0 294 -184 252 -450s-197 -451 -395 -451zM462 850c-127 0 -232 -164 -272 -413c-40 -251 15 -420 142 -420s233 167 273 416c39 250 -15 417 -143 417z" />
    <glyph glyph-name="Oacute" unicode="&#xd3;" horiz-adv-x="657" 
d="M590 1118l-168 -192h-30l105 192h93zM326 -17c-194 0 -295 181 -252 452c42 265 196 449 395 449c198 0 294 -184 252 -450s-197 -451 -395 -451zM462 850c-127 0 -232 -164 -272 -413c-40 -251 15 -420 142 -420s233 167 273 416c39 250 -15 417 -143 417z" />
    <glyph glyph-name="Ocircumflex" unicode="&#xd4;" horiz-adv-x="657" 
d="M323 926l168 192h30l108 -192h-93l-36 154l-84 -154h-93zM326 -17c-194 0 -295 181 -252 452c42 265 196 449 395 449c198 0 294 -184 252 -450s-197 -451 -395 -451zM462 850c-127 0 -232 -164 -272 -413c-40 -251 15 -420 142 -420s233 167 273 416
c39 250 -15 417 -143 417z" />
    <glyph glyph-name="Otilde" unicode="&#xd5;" horiz-adv-x="657" 
d="M651 1039l15 -21c-39 -61 -73 -81 -106 -81c-56 0 -106 56 -163 56c-23 0 -47 -9 -73 -35l-16 19c46 60 86 79 123 79c61 0 112 -53 160 -53c20 0 40 9 60 36zM326 -17c-194 0 -295 181 -252 452c42 265 196 449 395 449c198 0 294 -184 252 -450s-197 -451 -395 -451z
M462 850c-127 0 -232 -164 -272 -413c-40 -251 15 -420 142 -420s233 167 273 416c39 250 -15 417 -143 417z" />
    <glyph glyph-name="Odieresis" unicode="&#xd6;" horiz-adv-x="657" 
d="M410 1064c34 0 58 -29 52 -65c-5 -35 -39 -63 -73 -63c-35 0 -59 28 -54 63c6 36 40 65 75 65zM587 1064c34 0 58 -29 52 -65c-5 -35 -39 -63 -73 -63c-35 0 -59 28 -54 63c6 36 40 65 75 65zM326 -17c-194 0 -295 181 -252 452c42 265 196 449 395 449
c198 0 294 -184 252 -450s-197 -451 -395 -451zM462 850c-127 0 -232 -164 -272 -413c-40 -251 15 -420 142 -420s233 167 273 416c39 250 -15 417 -143 417z" />
    <glyph glyph-name="Oslash" unicode="&#xd8;" horiz-adv-x="657" 
d="M326 -17c-34 0 -64 6 -92 16l-7 -16h-47l15 35c-106 65 -153 216 -121 417c42 265 196 449 395 449c34 0 64 -6 92 -16l7 16h47l-15 -34c107 -65 152 -218 121 -416c-42 -266 -197 -451 -395 -451zM462 850c-127 0 -232 -164 -272 -413c-25 -159 -13 -285 32 -356
l319 741c-22 18 -48 28 -79 28zM573 786l-319 -741c22 -18 48 -28 78 -28c127 0 233 167 273 416c25 158 13 282 -32 353z" />
    <glyph glyph-name="OE" unicode="&#x152;" horiz-adv-x="954" 
d="M923 548l-31 -193h-22c-1 75 -37 79 -101 79h-128l-53 -335c-9 -54 2 -66 45 -66h123c108 0 152 73 205 159l19 -8l-72 -184h-481c-32 -11 -66 -17 -101 -17c-194 0 -295 181 -252 452c42 265 196 449 395 449h580l-20 -176h-22c3 103 -28 143 -112 143h-188l-61 -382
h128c64 0 102 4 127 79h22zM487 112c1 8 2 16 4 24l96 612v1h1v4c0 1 1 2 1 2c-27 61 -69 95 -127 95c-127 0 -232 -164 -272 -413c-40 -251 15 -420 142 -420c57 0 110 34 155 95z" />
    <glyph glyph-name="Scaron" unicode="&#x160;" horiz-adv-x="511" 
d="M388 926l-108 192h93l36 -154l84 154h93l-168 -192h-30zM55 229h22c3 -125 80 -211 186 -211c88 0 154 59 169 150c37 237 -353 239 -311 499c20 126 126 217 253 217c85 0 132 -40 168 -40c19 0 31 12 39 40h21l-25 -248l-23 -3c-11 139 -71 215 -171 215
c-85 0 -154 -56 -166 -136c-33 -206 365 -229 323 -499c-21 -134 -136 -230 -275 -230c-97 0 -134 46 -174 46c-22 0 -39 -14 -53 -46h-22z" />
    <glyph glyph-name="Ugrave" unicode="&#xd9;" horiz-adv-x="724" 
d="M558 926l-88 192h93l25 -192h-30zM304 748l-71 -450c-27 -174 27 -262 163 -262s220 89 247 262l71 450c11 69 -10 103 -70 114l3 22h213l-3 -22c-64 -11 -97 -45 -108 -114l-71 -450c-34 -215 -137 -315 -324 -315s-258 100 -224 315l71 450c9 54 22 101 -50 114l3 22
h241l-3 -22c-78 -13 -79 -60 -88 -114z" />
    <glyph glyph-name="Uacute" unicode="&#xda;" horiz-adv-x="724" 
d="M485 926h-30l105 192h93zM304 748l-71 -450c-27 -174 27 -262 163 -262s220 89 247 262l71 450c11 69 -10 103 -70 114l3 22h213l-3 -22c-64 -11 -97 -45 -108 -114l-71 -450c-34 -215 -137 -315 -324 -315s-258 100 -224 315l71 450c9 54 22 101 -50 114l3 22h241
l-3 -22c-78 -13 -79 -60 -88 -114z" />
    <glyph glyph-name="Ucircumflex" unicode="&#xdb;" horiz-adv-x="724" 
d="M544 1118h30l108 -192h-93l-36 154l-84 -154h-93zM304 748l-71 -450c-27 -174 27 -262 163 -262s220 89 247 262l71 450c11 69 -10 103 -70 114l3 22h213l-3 -22c-64 -11 -97 -45 -108 -114l-71 -450c-34 -215 -137 -315 -324 -315s-258 100 -224 315l71 450
c9 54 22 101 -50 114l3 22h241l-3 -22c-78 -13 -79 -60 -88 -114z" />
    <glyph glyph-name="Udieresis" unicode="&#xdc;" horiz-adv-x="724" 
d="M463 1064c34 0 58 -29 52 -65c-5 -35 -39 -63 -73 -63c-35 0 -59 28 -54 63c6 36 40 65 75 65zM640 1064c34 0 58 -29 52 -65c-5 -35 -39 -63 -73 -63c-35 0 -59 28 -54 63c6 36 40 65 75 65zM304 748l-71 -450c-27 -174 27 -262 163 -262s220 89 247 262l71 450
c11 69 -10 103 -70 114l3 22h213l-3 -22c-64 -11 -97 -45 -108 -114l-71 -450c-34 -215 -137 -315 -324 -315s-258 100 -224 315l71 450c9 54 22 101 -50 114l3 22h241l-3 -22c-78 -13 -79 -60 -88 -114z" />
    <glyph glyph-name="Ydieresis" unicode="&#x178;" horiz-adv-x="742" 
d="M472 1064c34 0 58 -29 52 -65c-5 -35 -39 -63 -73 -63c-35 0 -59 28 -54 63c6 36 40 65 75 65zM649 1064c34 0 58 -29 52 -65c-5 -35 -39 -63 -73 -63c-35 0 -59 28 -54 63c6 36 40 65 75 65zM483 389l226 376c40 66 32 97 -27 97l3 22h191l-3 -22
c-44 0 -91 -35 -128 -97l-259 -430l-31 -199c-9 -54 -22 -101 50 -114l-3 -22h-241l3 22c78 13 79 60 88 114l31 199l-153 439c-23 64 -38 88 -88 88l3 22h252l-3 -22c-51 0 -66 -29 -45 -88z" />
    <glyph glyph-name="Yacute" unicode="&#xdd;" horiz-adv-x="742" 
d="M662 1118l-168 -192h-30l105 192h93zM483 389l226 376c40 66 32 97 -27 97l3 22h191l-3 -22c-44 0 -91 -35 -128 -97l-259 -430l-31 -199c-9 -54 -22 -101 50 -114l-3 -22h-241l3 22c78 13 79 60 88 114l31 199l-153 439c-23 64 -38 88 -88 88l3 22h252l-3 -22
c-51 0 -66 -29 -45 -88z" />
    <glyph glyph-name="Zcaron" unicode="&#x17d;" horiz-adv-x="571" 
d="M418 926l-108 192h93l36 -154l84 154h93l-168 -192h-30zM571 851h-274c-84 0 -129 -40 -158 -143h-22l36 176h545l-3 -22l-563 -829h241c108 0 152 73 205 159l19 -8l-72 -184h-520l3 22z" />
    <glyph glyph-name="s_t" unicode="&#xfb06;" horiz-adv-x="754" 
d="M705 707l-22 -137h127l-4 -28h-127l-63 -394c-10 -64 6 -94 51 -94c31 0 55 15 73 46l20 -6c-26 -67 -85 -111 -149 -111c-74 0 -111 58 -95 153l64 406h-85l4 27c79 7 156 56 169 137c10 67 -31 111 -103 111c-85 0 -156 -60 -167 -133c-9 -58 19 -117 39 -154
c6 -11 10 -23 10 -35c0 -36 -26 -54 -55 -54c-25 0 -53 14 -60 59c-6 38 -26 53 -60 53c-54 0 -101 -37 -109 -86c-21 -135 296 -119 265 -317c-16 -101 -110 -167 -238 -167c-100 0 -168 40 -168 97c0 33 23 55 55 55s54 -21 60 -59c7 -42 34 -63 82 -63
c60 0 102 33 110 85c25 154 -286 141 -256 330c15 95 102 155 225 155c31 0 59 -4 81 -11c-18 38 -23 74 -17 111c15 95 106 174 209 174c89 0 148 -60 134 -150z" />
    <glyph glyph-name="uniE045" unicode="&#xe045;" horiz-adv-x="792" 
d="M325 554c-89 0 -165 -88 -185 -219c-23 -149 42 -259 154 -259c70 0 132 42 173 119l20 -4c-46 -129 -140 -208 -251 -208c-137 0 -215 119 -187 294c28 178 148 306 292 306c25 0 44 -4 65 -10c-10 30 -13 65 -8 99c17 106 108 185 211 185c92 0 148 -63 134 -150
l-22 -137h127l-4 -28h-127l-63 -394c-10 -64 6 -94 51 -94c31 0 55 15 73 46l20 -6c-26 -67 -85 -111 -149 -111c-74 0 -111 58 -95 153l64 406h-85l4 27c79 7 156 56 169 137c10 67 -31 111 -104 111c-85 0 -155 -61 -169 -145c-8 -51 9 -107 41 -137c17 -16 29 -38 30 -63
c1 -51 -32 -72 -61 -72c-16 0 -31 6 -39 17c-30 40 14 137 -79 137z" />
    <glyph glyph-name="uniE046" unicode="&#xe046;" horiz-adv-x="635" 
d="M304 728l-25 -158c157 0 208 -11 283 158h27l-25 -158h127l-4 -28h-127l-63 -394c-10 -64 6 -94 51 -94c31 0 55 15 73 46l20 -6c-26 -67 -85 -111 -149 -111c-74 0 -111 58 -95 153l64 406h-186l-63 -394c-10 -64 6 -94 51 -94c31 0 55 15 73 46l20 -6
c-26 -67 -85 -111 -149 -111c-74 0 -111 58 -95 153l64 406h-85l4 27c80 6 139 61 182 159h27z" />
    <glyph glyph-name="uniE047" unicode="&#xe047;" horiz-adv-x="254" 
d="M246 790c37 0 63 -31 57 -70c-6 -38 -42 -69 -79 -69c-38 0 -65 31 -59 69c6 39 43 70 81 70zM273 583l-86 -547c-10 -64 5 -94 50 -94c31 0 55 15 73 46l20 -6c-25 -67 -83 -101 -147 -101c-74 0 -111 58 -96 153l60 379c9 55 1 85 -32 85c-8 0 -18 -2 -29 -5l-4 23z
" />
    <glyph glyph-name="uniE048" unicode="&#xe048;" horiz-adv-x="254" 
d="M246 790c37 0 63 -31 57 -70c-6 -38 -42 -69 -79 -69c-38 0 -65 31 -59 69c6 39 43 70 81 70zM273 583l-74 -472c-14 -90 -19 -165 -14 -227c85 39 175 74 279 74c134 0 218 -59 204 -144c-15 -95 -141 -166 -296 -166c-129 0 -213 49 -254 150
c-92 -51 -183 -97 -267 -97c-88 0 -141 52 -129 128c10 66 67 130 127 140c62 10 85 -48 36 -81c-45 -31 -124 -6 -132 -54c-5 -35 35 -57 107 -57c86 0 164 31 243 68c-19 76 -18 175 1 296l43 272c9 55 1 85 -32 85c-8 0 -18 -2 -29 -5l-4 23zM191 -161
c20 -108 80 -161 181 -161c103 0 186 55 198 132c11 69 -41 118 -127 118c-79 0 -165 -41 -252 -89z" />
    <glyph glyph-name="uniE049" unicode="&#xe049;" horiz-adv-x="533" 
d="M246 790c37 0 63 -31 57 -70c-6 -38 -42 -69 -79 -69c-38 0 -65 31 -59 69c6 39 43 70 81 70zM273 583l-71 -451c-19 -118 34 -211 121 -211c79 0 142 78 161 200c18 111 -9 200 -60 200c-52 0 -36 -96 -79 -136c-14 -13 -28 -19 -42 -19c-31 0 -54 32 -40 74
c20 59 99 110 169 110c92 0 143 -87 123 -211c-24 -149 -131 -249 -267 -249c-140 0 -207 105 -179 282l38 241c9 55 1 85 -32 85c-8 0 -18 -2 -29 -5l-4 23z" />
    <glyph glyph-name="uniE04A" unicode="&#xe04a;" horiz-adv-x="552" 
d="M562 583l-92 -581c-27 -172 -114 -262 -261 -262c-107 0 -183 48 -183 116c0 37 26 73 65 73c16 0 31 -8 41 -22c36 -48 -14 -133 87 -133c82 0 125 56 146 188l29 186c-47 -80 -116 -165 -214 -165c-261 0 -134 600 162 600c44 0 78 -14 113 -48zM407 229l38 241
c-17 55 -46 80 -90 80c-93 0 -180 -117 -203 -277c-17 -119 19 -213 83 -213c55 0 126 72 172 169z" />
    <glyph glyph-name="uniE04B" unicode="&#xe04b;" horiz-adv-x="552" 
d="M455 535l107 48l-70 -442c-19 -121 -49 -220 -92 -296c68 -37 136 -68 222 -68c72 0 120 22 125 57c8 48 -81 23 -116 54c-39 33 4 91 62 81s93 -74 83 -140c-12 -76 -81 -128 -169 -128c-84 0 -161 47 -237 98c-73 -101 -173 -151 -302 -151c-155 0 -257 71 -242 166
c14 85 114 144 248 144c104 0 184 -36 257 -75c25 62 44 138 58 228l6 39c-47 -80 -116 -167 -215 -167c-261 0 -134 600 162 600c44 0 78 -14 113 -48zM408 230l37 239c-17 55 -46 81 -90 81c-93 0 -180 -117 -203 -277c-17 -119 19 -213 83 -213c55 0 127 73 173 170z
M311 -161c-72 48 -145 89 -224 89c-86 0 -154 -49 -165 -118c-12 -77 53 -132 156 -132c101 0 178 53 233 161z" />
    <glyph glyph-name="agrave" unicode="&#xe0;" 
d="M418 652l-87 192h93l24 -192h-30zM455 535l107 48l-73 -462c-1 -9 -5 -40 -3 -59c2 -15 8 -23 19 -23c21 0 44 22 55 39l18 -14c-32 -43 -72 -81 -129 -81c-35 0 -59 17 -65 47c-3 17 -2 43 4 79l6 39c-47 -80 -116 -165 -214 -165c-261 0 -134 600 162 600
c44 0 78 -14 113 -48zM407 228l38 242c-17 55 -46 80 -90 80c-94 0 -180 -117 -203 -277c-17 -119 20 -213 83 -213c55 0 126 71 172 168z" />
    <glyph glyph-name="aacute" unicode="&#xe1;" 
d="M320 652h-30l106 192h93zM455 535l107 48l-73 -462c-1 -9 -5 -40 -3 -59c2 -15 8 -23 19 -23c21 0 44 22 55 39l18 -14c-32 -43 -72 -81 -129 -81c-35 0 -59 17 -65 47c-3 17 -2 43 4 79l6 39c-47 -80 -116 -165 -214 -165c-261 0 -134 600 162 600c44 0 78 -14 113 -48z
M407 228l38 242c-17 55 -46 80 -90 80c-94 0 -180 -117 -203 -277c-17 -119 20 -213 83 -213c55 0 126 71 172 168z" />
    <glyph glyph-name="acircumflex" unicode="&#xe2;" 
d="M406 844h30l107 -192h-93l-35 154l-85 -154h-93zM455 535l107 48l-73 -462c-1 -9 -5 -40 -3 -59c2 -15 8 -23 19 -23c21 0 44 22 55 39l18 -14c-32 -43 -72 -81 -129 -81c-35 0 -59 17 -65 47c-3 17 -2 43 4 79l6 39c-47 -80 -116 -165 -214 -165
c-261 0 -134 600 162 600c44 0 78 -14 113 -48zM407 228l38 242c-17 55 -46 80 -90 80c-94 0 -180 -117 -203 -277c-17 -119 20 -213 83 -213c55 0 126 71 172 168z" />
    <glyph glyph-name="atilde" unicode="&#xe3;" 
d="M565 744c-39 -61 -73 -81 -106 -81c-56 0 -106 56 -163 56c-24 0 -48 -9 -74 -35l-16 19c46 60 87 79 123 79c62 0 112 -53 160 -53c20 0 40 9 60 36zM455 535l107 48l-73 -462c-1 -9 -5 -40 -3 -59c2 -15 8 -23 19 -23c21 0 44 22 55 39l18 -14
c-32 -43 -72 -81 -129 -81c-35 0 -59 17 -65 47c-3 17 -2 43 4 79l6 39c-47 -80 -116 -165 -214 -165c-261 0 -134 600 162 600c44 0 78 -14 113 -48zM407 228l38 242c-17 55 -46 80 -90 80c-94 0 -180 -117 -203 -277c-17 -119 20 -213 83 -213c55 0 126 71 172 168z" />
    <glyph glyph-name="adieresis" unicode="&#xe4;" 
d="M308 790c34 0 59 -29 53 -65c-6 -35 -39 -63 -73 -63c-35 0 -60 28 -54 63c6 36 39 65 74 65zM485 790c34 0 59 -29 53 -65c-6 -35 -39 -63 -73 -63c-35 0 -60 28 -54 63c6 36 39 65 74 65zM455 535l107 48l-73 -462c-1 -9 -5 -40 -3 -59c2 -15 8 -23 19 -23
c21 0 44 22 55 39l18 -14c-32 -43 -72 -81 -129 -81c-35 0 -59 17 -65 47c-3 17 -2 43 4 79l6 39c-47 -80 -116 -165 -214 -165c-261 0 -134 600 162 600c44 0 78 -14 113 -48zM407 228l38 242c-17 55 -46 80 -90 80c-94 0 -180 -117 -203 -277c-17 -119 20 -213 83 -213
c55 0 126 71 172 168z" />
    <glyph glyph-name="aring" unicode="&#xe5;" 
d="M402 819c47 0 79 -38 71 -87c-8 -47 -51 -84 -98 -84c-46 0 -80 37 -72 84c8 49 53 87 99 87zM395 777c-23 0 -46 -21 -50 -45c-4 -23 13 -42 36 -42c22 0 46 19 50 42c4 24 -14 45 -36 45zM455 535l107 48l-73 -462c-1 -9 -5 -40 -3 -59c2 -15 8 -23 19 -23
c21 0 44 22 55 39l18 -14c-32 -43 -72 -81 -129 -81c-35 0 -59 17 -65 47c-3 17 -2 43 4 79l6 39c-47 -80 -116 -165 -214 -165c-261 0 -134 600 162 600c44 0 78 -14 113 -48zM407 228l38 242c-17 55 -46 80 -90 80c-94 0 -180 -117 -203 -277c-17 -119 20 -213 83 -213
c55 0 126 71 172 168z" />
    <glyph glyph-name="ae" unicode="&#xe6;" horiz-adv-x="842" 
d="M837 195l20 -4c-46 -129 -140 -208 -251 -208c-109 0 -181 76 -191 195c-48 -83 -125 -195 -237 -195c-258 0 -132 600 162 600c81 0 129 -45 159 -113c54 70 129 113 212 113c91 0 156 -50 156 -120c0 -26 -9 -53 -27 -79c-48 -72 -144 -112 -333 -135
c9 -103 68 -173 157 -173c70 0 132 42 173 119zM748 396c27 46 28 90 11 120c-14 25 -39 38 -69 38c-14 0 -29 -3 -44 -9c-101 -40 -141 -173 -141 -274c120 16 204 60 243 125zM415 243c4 43 13 85 28 126c16 107 -21 181 -87 181c-86 0 -181 -124 -203 -277
c-17 -119 20 -213 83 -213c58 0 134 78 179 183z" />
    <glyph glyph-name="ccedilla" unicode="&#xe7;" horiz-adv-x="478" 
d="M327 554c-91 0 -167 -88 -187 -219c-23 -149 42 -259 154 -259c70 0 132 42 173 119l20 -4c-46 -129 -140 -208 -251 -208c-8 0 -16 0 -24 1l-12 -41c73 0 114 -30 107 -78c-8 -45 -54 -82 -108 -82c-36 0 -64 16 -63 39c0 15 12 25 24 25c6 0 11 -2 16 -8
c10 -15 2 -38 26 -38c23 0 53 20 59 57c6 44 -29 73 -86 72l16 58c-109 23 -167 134 -142 289c28 178 148 306 292 306c89 0 161 -49 163 -111c2 -51 -31 -72 -61 -72c-16 0 -31 6 -39 17c-30 40 18 137 -77 137z" />
    <glyph glyph-name="dcroat" unicode="&#x111;" 
d="M489 121c-1 -9 -5 -40 -3 -59c2 -16 8 -23 19 -23c21 0 44 22 55 39l18 -14c-32 -43 -71 -81 -129 -81c-35 0 -59 17 -65 47c-3 17 -2 43 4 79l6 39c-47 -80 -116 -165 -214 -165c-261 0 -134 600 162 600c45 0 79 -13 114 -48l19 124h-94l6 40h95l2 15c9 55 1 85 -32 85
c-8 0 -18 -2 -29 -5l-5 23l192 67l-29 -185h85l-6 -40h-86zM407 229l38 240c-17 55 -46 81 -90 81c-94 0 -180 -117 -203 -277c-17 -119 20 -213 83 -213c55 0 126 72 172 169z" />
    <glyph glyph-name="egrave" unicode="&#xe8;" horiz-adv-x="472" 
d="M383 652l-87 192h93l24 -192h-30zM467 195l20 -4c-46 -129 -140 -208 -251 -208c-137 0 -215 119 -187 294c28 178 148 306 292 306c91 0 156 -50 156 -120c0 -26 -9 -53 -27 -79c-48 -72 -144 -112 -333 -135c9 -103 68 -173 157 -173c70 0 132 42 173 119zM378 396
c27 46 28 90 11 120c-14 25 -39 38 -69 38c-14 0 -29 -3 -44 -9c-101 -40 -141 -173 -141 -274c120 16 204 60 243 125z" />
    <glyph glyph-name="eacute" unicode="&#xe9;" horiz-adv-x="472" 
d="M285 652h-30l106 192h93zM467 195l20 -4c-46 -129 -140 -208 -251 -208c-137 0 -215 119 -187 294c28 178 148 306 292 306c91 0 156 -50 156 -120c0 -26 -9 -53 -27 -79c-48 -72 -144 -112 -333 -135c9 -103 68 -173 157 -173c70 0 132 42 173 119zM378 396
c27 46 28 90 11 120c-14 25 -39 38 -69 38c-14 0 -29 -3 -44 -9c-101 -40 -141 -173 -141 -274c120 16 204 60 243 125z" />
    <glyph glyph-name="ecircumflex" unicode="&#xea;" horiz-adv-x="472" 
d="M370 844h30l107 -192h-93l-35 154l-85 -154h-93zM467 195l20 -4c-46 -129 -140 -208 -251 -208c-137 0 -215 119 -187 294c28 178 148 306 292 306c91 0 156 -50 156 -120c0 -26 -9 -53 -27 -79c-48 -72 -144 -112 -333 -135c9 -103 68 -173 157 -173
c70 0 132 42 173 119zM378 396c27 46 28 90 11 120c-14 25 -39 38 -69 38c-14 0 -29 -3 -44 -9c-101 -40 -141 -173 -141 -274c120 16 204 60 243 125z" />
    <glyph glyph-name="edieresis" unicode="&#xeb;" horiz-adv-x="472" 
d="M273 790c34 0 59 -29 53 -65c-6 -35 -39 -63 -73 -63c-35 0 -60 28 -54 63c6 36 39 65 74 65zM450 790c34 0 59 -29 53 -65c-6 -35 -39 -63 -73 -63c-35 0 -60 28 -54 63c6 36 39 65 74 65zM467 195l20 -4c-46 -129 -140 -208 -251 -208c-137 0 -215 119 -187 294
c28 178 148 306 292 306c91 0 156 -50 156 -120c0 -26 -9 -53 -27 -79c-48 -72 -144 -112 -333 -135c9 -103 68 -173 157 -173c70 0 132 42 173 119zM378 396c27 46 28 90 11 120c-14 25 -39 38 -69 38c-14 0 -29 -3 -44 -9c-101 -40 -141 -173 -141 -274
c120 16 204 60 243 125z" />
    <glyph glyph-name="igrave" unicode="&#xec;" horiz-adv-x="253" 
d="M253 652l-87 192h93l24 -192h-30zM271 78l18 -14c-17 -23 -32 -39 -47 -51c-26 -20 -56 -30 -83 -30c-35 0 -59 17 -64 46c-3 17 -2 43 4 80l48 304c11 68 -3 98 -61 80l-4 23l191 67l-73 -462c-1 -9 -6 -39 -4 -58c2 -15 9 -24 20 -24c12 0 28 9 42 23c0 0 7 7 13 16z
" />
    <glyph glyph-name="iacute" unicode="&#xed;" horiz-adv-x="253" 
d="M175 652h-30l106 192h93zM271 78l18 -14c-17 -23 -32 -39 -47 -51c-26 -20 -56 -30 -83 -30c-35 0 -59 17 -64 46c-3 17 -2 43 4 80l48 304c11 68 -3 98 -61 80l-4 23l191 67l-73 -462c-1 -9 -6 -39 -4 -58c2 -15 9 -24 20 -24c12 0 28 9 42 23c0 0 7 7 13 16z" />
    <glyph glyph-name="icircumflex" unicode="&#xee;" horiz-adv-x="253" 
d="M251 844h30l107 -192h-93l-35 154l-85 -154h-93zM271 78l18 -14c-17 -23 -32 -39 -47 -51c-26 -20 -56 -30 -83 -30c-35 0 -59 17 -64 46c-3 17 -2 43 4 80l48 304c11 68 -3 98 -61 80l-4 23l191 67l-73 -462c-1 -9 -6 -39 -4 -58c2 -15 9 -24 20 -24c12 0 28 9 42 23
c0 0 7 7 13 16z" />
    <glyph glyph-name="idieresis" unicode="&#xef;" horiz-adv-x="253" 
d="M163 790c34 0 59 -29 53 -65c-6 -35 -39 -63 -73 -63c-35 0 -60 28 -54 63c6 36 39 65 74 65zM340 790c34 0 59 -29 53 -65c-6 -35 -39 -63 -73 -63c-35 0 -60 28 -54 63c6 36 39 65 74 65zM271 78l18 -14c-17 -23 -32 -39 -47 -51c-26 -20 -56 -30 -83 -30
c-35 0 -59 17 -64 46c-3 17 -2 43 4 80l48 304c11 68 -3 98 -61 80l-4 23l191 67l-73 -462c-1 -9 -6 -39 -4 -58c2 -15 9 -24 20 -24c12 0 28 9 42 23c0 0 7 7 13 16z" />
    <glyph glyph-name="lslash" unicode="&#x142;" horiz-adv-x="255" 
d="M322 884l-78 -489h86l-7 -40h-85l-37 -234c-1 -9 -5 -40 -3 -59c2 -16 8 -23 19 -23c12 0 29 9 40 20c3 3 9 10 15 19l18 -14c-17 -23 -32 -39 -47 -51c-25 -20 -54 -30 -82 -30c-35 0 -59 17 -65 47c-3 17 -2 43 4 79l39 246h-85l7 40h84l51 319c11 68 -3 98 -61 80
l-5 23z" />
    <glyph glyph-name="ntilde" unicode="&#xf1;" horiz-adv-x="581" 
d="M584 744c-39 -61 -73 -81 -106 -81c-56 0 -106 56 -163 56c-24 0 -48 -9 -74 -35l-16 19c46 60 87 79 123 79c62 0 112 -53 160 -53c20 0 40 9 60 36zM470 387c14 87 -2 129 -50 129c-67 0 -138 -83 -192 -222l-46 -294h-99l64 413c9 55 1 85 -32 85c-8 0 -18 -2 -29 -5
l-4 23l191 67l-33 -211c50 125 144 211 236 211c83 0 114 -69 93 -200l-42 -262c-1 -9 -5 -40 -3 -59c2 -16 8 -23 19 -23c21 0 44 22 55 39l18 -14c-32 -43 -71 -81 -129 -81c-35 0 -59 17 -65 47c-3 17 -2 43 4 79z" />
    <glyph glyph-name="ograve" unicode="&#xf2;" horiz-adv-x="495" 
d="M424 652h-30l-87 192h93zM244 -17c-166 0 -218 150 -193 306c25 157 123 294 288 294s221 -137 196 -294c-25 -156 -125 -306 -291 -306zM249 12c109 0 161 192 175 276c13 86 21 266 -89 266s-160 -180 -173 -266c-14 -84 -22 -276 87 -276z" />
    <glyph glyph-name="oacute" unicode="&#xf3;" horiz-adv-x="495" 
d="M465 844l-169 -192h-30l106 192h93zM244 -17c-166 0 -218 150 -193 306c25 157 123 294 288 294s221 -137 196 -294c-25 -156 -125 -306 -291 -306zM249 12c109 0 161 192 175 276c13 86 21 266 -89 266s-160 -180 -173 -266c-14 -84 -22 -276 87 -276z" />
    <glyph glyph-name="ocircumflex" unicode="&#xf4;" horiz-adv-x="495" 
d="M213 652l169 192h30l107 -192h-93l-35 154l-85 -154h-93zM244 -17c-166 0 -218 150 -193 306c25 157 123 294 288 294s221 -137 196 -294c-25 -156 -125 -306 -291 -306zM249 12c109 0 161 192 175 276c13 86 21 266 -89 266s-160 -180 -173 -266
c-14 -84 -22 -276 87 -276z" />
    <glyph glyph-name="otilde" unicode="&#xf5;" horiz-adv-x="495" 
d="M525 765l16 -21c-39 -61 -73 -81 -106 -81c-56 0 -106 56 -163 56c-24 0 -48 -9 -74 -35l-16 19c46 60 87 79 123 79c62 0 112 -53 160 -53c20 0 40 9 60 36zM244 -17c-166 0 -218 150 -193 306c25 157 123 294 288 294s221 -137 196 -294c-25 -156 -125 -306 -291 -306z
M249 12c109 0 161 192 175 276c13 86 21 266 -89 266s-160 -180 -173 -266c-14 -84 -22 -276 87 -276z" />
    <glyph glyph-name="odieresis" unicode="&#xf6;" horiz-adv-x="495" 
d="M284 790c34 0 59 -29 53 -65c-6 -35 -39 -63 -73 -63c-35 0 -60 28 -54 63c6 36 39 65 74 65zM461 790c34 0 59 -29 53 -65c-6 -35 -39 -63 -73 -63c-35 0 -60 28 -54 63c6 36 39 65 74 65zM244 -17c-166 0 -218 150 -193 306c25 157 123 294 288 294s221 -137 196 -294
c-25 -156 -125 -306 -291 -306zM249 12c109 0 161 192 175 276c13 86 21 266 -89 266s-160 -180 -173 -266c-14 -84 -22 -276 87 -276z" />
    <glyph glyph-name="oslash" unicode="&#xf8;" horiz-adv-x="495" 
d="M244 -17c-21 0 -40 2 -58 7l-59 -136h-47l65 152c-88 48 -113 164 -94 283c25 157 123 294 288 294c19 0 37 -2 53 -5l76 177h47l-82 -191c92 -43 121 -153 102 -275c-25 -156 -125 -306 -291 -306zM173 70l204 473c-12 7 -26 11 -42 11c-110 0 -160 -180 -173 -266
c-9 -55 -16 -155 11 -218zM249 12c109 0 161 192 175 276c9 58 15 160 -16 219l-206 -479c13 -10 28 -16 47 -16z" />
    <glyph glyph-name="oe" unicode="&#x153;" horiz-adv-x="869" 
d="M244 -17c-166 0 -218 150 -193 306c25 157 123 294 288 294c96 0 156 -47 184 -117c54 73 130 117 215 117c91 0 156 -50 156 -120c0 -26 -9 -53 -27 -79c-48 -72 -144 -112 -333 -135c9 -103 68 -173 157 -173c70 0 132 42 173 119l20 -4c-46 -129 -140 -208 -251 -208
c-83 0 -145 44 -174 117c-50 -69 -122 -117 -215 -117zM249 12c109 0 161 192 175 276c13 86 21 266 -89 266s-160 -180 -173 -266c-14 -84 -22 -276 87 -276zM775 396c27 46 28 90 11 120c-14 25 -39 38 -69 38c-14 0 -29 -3 -44 -9c-101 -40 -141 -173 -141 -274
c120 16 204 60 243 125z" />
    <glyph glyph-name="scaron" unicode="&#x161;" horiz-adv-x="410" 
d="M277 652l-107 192h93l35 -154l85 154h93l-169 -192h-30zM428 150c-16 -101 -110 -167 -238 -167c-100 0 -168 40 -168 97c0 33 23 55 55 55s54 -21 60 -59c7 -42 34 -63 82 -63c60 0 102 33 110 85c25 154 -286 141 -256 330c15 95 102 155 225 155c91 0 149 -34 149 -88
c0 -36 -26 -54 -55 -54c-25 0 -53 14 -60 59c-6 38 -26 53 -60 53c-54 0 -101 -37 -109 -86c-21 -135 296 -119 265 -317z" />
    <glyph glyph-name="ugrave" unicode="&#xf9;" horiz-adv-x="588" 
d="M441 652l-87 192h93l24 -192h-30zM226 179c-14 -87 2 -129 50 -129c61 0 125 68 177 185l28 178c9 55 1 85 -32 85c-8 0 -18 -2 -29 -5l-4 23l191 67l-73 -462c-1 -9 -6 -40 -4 -58c2 -16 9 -24 20 -24c12 0 28 9 42 23c0 0 7 7 13 16l18 -14c-32 -43 -72 -81 -130 -81
c-34 0 -59 17 -64 46c-3 17 -2 43 4 80l8 52c-52 -107 -138 -178 -221 -178c-82 0 -114 69 -93 200l42 262c1 9 5 40 3 59c-2 15 -8 23 -19 23c-21 0 -44 -22 -55 -39l-18 14c32 43 72 81 129 81c35 0 59 -17 65 -47c3 -17 2 -43 -4 -79z" />
    <glyph glyph-name="uacute" unicode="&#xfa;" horiz-adv-x="588" 
d="M343 652h-30l106 192h93zM226 179c-14 -87 2 -129 50 -129c61 0 125 68 177 185l28 178c9 55 1 85 -32 85c-8 0 -18 -2 -29 -5l-4 23l191 67l-73 -462c-1 -9 -6 -40 -4 -58c2 -16 9 -24 20 -24c12 0 28 9 42 23c0 0 7 7 13 16l18 -14c-32 -43 -72 -81 -130 -81
c-34 0 -59 17 -64 46c-3 17 -2 43 4 80l8 52c-52 -107 -138 -178 -221 -178c-82 0 -114 69 -93 200l42 262c1 9 5 40 3 59c-2 15 -8 23 -19 23c-21 0 -44 -22 -55 -39l-18 14c32 43 72 81 129 81c35 0 59 -17 65 -47c3 -17 2 -43 -4 -79z" />
    <glyph glyph-name="ucircumflex" unicode="&#xfb;" horiz-adv-x="588" 
d="M428 844h30l107 -192h-93l-35 154l-85 -154h-93zM226 179c-14 -87 2 -129 50 -129c61 0 125 68 177 185l28 178c9 55 1 85 -32 85c-8 0 -18 -2 -29 -5l-4 23l191 67l-73 -462c-1 -9 -6 -40 -4 -58c2 -16 9 -24 20 -24c12 0 28 9 42 23c0 0 7 7 13 16l18 -14
c-32 -43 -72 -81 -130 -81c-34 0 -59 17 -64 46c-3 17 -2 43 4 80l8 52c-52 -107 -138 -178 -221 -178c-82 0 -114 69 -93 200l42 262c1 9 5 40 3 59c-2 15 -8 23 -19 23c-21 0 -44 -22 -55 -39l-18 14c32 43 72 81 129 81c35 0 59 -17 65 -47c3 -17 2 -43 -4 -79z" />
    <glyph glyph-name="udieresis" unicode="&#xfc;" horiz-adv-x="588" 
d="M331 790c34 0 59 -29 53 -65c-6 -35 -39 -63 -73 -63c-35 0 -60 28 -54 63c6 36 39 65 74 65zM508 790c34 0 59 -29 53 -65c-6 -35 -39 -63 -73 -63c-35 0 -60 28 -54 63c6 36 39 65 74 65zM226 179c-14 -87 2 -129 50 -129c61 0 125 68 177 185l28 178c9 55 1 85 -32 85
c-8 0 -18 -2 -29 -5l-4 23l191 67l-73 -462c-1 -9 -6 -40 -4 -58c2 -16 9 -24 20 -24c12 0 28 9 42 23c0 0 7 7 13 16l18 -14c-32 -43 -72 -81 -130 -81c-34 0 -59 17 -64 46c-3 17 -2 43 4 80l8 52c-52 -107 -138 -178 -221 -178c-82 0 -114 69 -93 200l42 262
c1 9 5 40 3 59c-2 15 -8 23 -19 23c-21 0 -44 -22 -55 -39l-18 14c32 43 72 81 129 81c35 0 59 -17 65 -47c3 -17 2 -43 -4 -79z" />
    <glyph glyph-name="yacute" unicode="&#xfd;" horiz-adv-x="541" 
d="M319 652h-30l106 192h93zM85 507l-4 23l158 53c55 -116 95 -284 136 -461c44 76 112 180 140 243c26 56 21 82 -15 104c-32 20 -46 48 -34 79c9 23 28 35 49 35c45 0 71 -43 72 -84c3 -115 -158 -324 -266 -522c-32 -60 -57 -114 -106 -208c-11 -22 -28 -31 -44 -31
c-33 0 -64 35 -36 70l165 188c-47 191 -84 370 -127 470c-14 33 -36 46 -61 46c-8 0 -18 -2 -27 -5z" />
    <glyph glyph-name="ydieresis" unicode="&#xff;" horiz-adv-x="541" 
d="M307 790c34 0 59 -29 53 -65c-6 -35 -39 -63 -73 -63c-35 0 -60 28 -54 63c6 36 39 65 74 65zM484 790c34 0 59 -29 53 -65c-6 -35 -39 -63 -73 -63c-35 0 -60 28 -54 63c6 36 39 65 74 65zM85 507l-4 23l158 53c55 -116 95 -284 136 -461c44 76 112 180 140 243
c26 56 21 82 -15 104c-32 20 -46 48 -34 79c9 23 28 35 49 35c45 0 71 -43 72 -84c3 -115 -158 -324 -266 -522c-32 -60 -57 -114 -106 -208c-11 -22 -28 -31 -44 -31c-33 0 -64 35 -36 70l165 188c-47 191 -84 370 -127 470c-14 33 -36 46 -61 46c-8 0 -18 -2 -27 -5z" />
    <glyph glyph-name="zcaron" unicode="&#x17e;" horiz-adv-x="448" 
d="M296 652l-107 192h93l35 -154l85 154h93l-169 -192h-30zM458 122c-4 -83 -58 -139 -128 -139c-78 0 -151 70 -227 70c-34 0 -49 -14 -66 -59l-27 12c52 117 161 200 230 259c79 67 131 124 177 195c-14 -4 -30 -5 -47 -5c-66 0 -128 28 -196 28c-37 0 -68 -8 -76 -43
l-21 4c4 83 58 139 128 139c78 0 146 -70 224 -70c43 0 73 20 106 70c-38 -101 -113 -195 -231 -297c-66 -57 -112 -106 -173 -180c13 3 27 5 41 5c60 0 121 -28 189 -28c46 0 69 13 76 43z" />
    <glyph glyph-name="uniE04C" unicode="&#xe04c;" horiz-adv-x="898" 
d="M787 387c14 87 -2 129 -50 129c-66 0 -137 -82 -191 -220l-47 -296h-99l94 599c9 61 21 115 36 164c-71 24 -144 45 -224 45c-137 0 -222 -59 -222 -155c0 -59 33 -110 83 -138l13 86c44 23 80 65 99 127h21l-37 -235c72 5 61 52 83 81c10 14 26 21 40 21
c24 0 47 -19 41 -54c-7 -47 -54 -70 -141 -70c-9 0 -18 0 -27 1l-51 -324c-10 -64 6 -94 51 -94c31 0 55 15 73 46l20 -6c-26 -67 -85 -111 -149 -111c-74 0 -110 58 -95 153l55 354c-82 29 -130 90 -130 173c0 129 116 226 270 226c86 0 169 -30 247 -66
c86 232 233 319 379 319c337 0 284 -460 -79 -460c-82 0 -157 23 -232 50c-7 -32 -14 -66 -20 -103l-40 -255c50 124 144 209 235 209c83 0 114 -69 93 -200l-42 -262c-1 -9 -5 -40 -3 -59c2 -16 8 -23 19 -23c21 0 44 22 55 39l18 -14c-32 -43 -71 -81 -129 -81
c-35 0 -59 17 -65 47c-3 17 -2 43 4 79zM631 785c80 -39 154 -73 222 -73c229 0 294 400 63 400c-108 0 -219 -87 -285 -327z" />
    </font>
</defs>
</svg>
