<svg width="120" height="32" viewBox="0 0 120 32" fill="none" xmlns="http://www.w3.org/2000/svg">
<path d="M37.1134 2.09806H38.3505V3.34397H37.1134V2.09806Z" fill="#231735"/>
<path d="M38.3505 2.09806H39.5876V3.34397H38.3505V2.09806Z" fill="#231735"/>
<path d="M39.5876 2.09806H40.8247V3.34397H39.5876V2.09806Z" fill="#231735"/>
<path d="M100.206 2.09806H101.443V3.34397H100.206V2.09806Z" fill="#231735"/>
<path d="M101.443 2.09806H102.68V3.34397H101.443V2.09806Z" fill="#231735"/>
<path d="M102.68 2.09806H103.918V3.34397H102.68V2.09806Z" fill="#231735"/>
<path d="M37.1134 3.34397H38.3505V4.58989H37.1134V3.34397Z" fill="#231735"/>
<path d="M38.3505 3.34397H39.5876V4.58989H38.3505V3.34397Z" fill="#231735"/>
<path d="M39.5876 3.34397H40.8247V4.58989H39.5876V3.34397Z" fill="#231735"/>
<path d="M100.206 3.34397H101.443V4.58989H100.206V3.34397Z" fill="#231735"/>
<path d="M101.443 3.34397H102.68V4.58989H101.443V3.34397Z" fill="#231735"/>
<path d="M102.68 3.34397H103.918V4.58989H102.68V3.34397Z" fill="#231735"/>
<path d="M37.1134 4.58989H38.3505V5.8358H37.1134V4.58989Z" fill="#231735"/>
<path d="M38.3505 4.58989H39.5876V5.8358H38.3505V4.58989Z" fill="#231735"/>
<path d="M39.5876 4.58989H40.8247V5.8358H39.5876V4.58989Z" fill="#231735"/>
<path d="M100.206 4.58989H101.443V5.8358H100.206V4.58989Z" fill="#231735"/>
<path d="M101.443 4.58989H102.68V5.8358H101.443V4.58989Z" fill="#231735"/>
<path d="M37.1134 5.8358H38.3505V7.08171H37.1134V5.8358Z" fill="#231735"/>
<path d="M38.3505 5.8358H39.5876V7.08171H38.3505V5.8358Z" fill="#231735"/>
<path d="M39.5876 5.8358H40.8247V7.08171H39.5876V5.8358Z" fill="#231735"/>
<path d="M54.433 5.8358H55.6701V7.08171H54.433V5.8358Z" fill="#231735"/>
<path d="M100.206 5.8358H101.443V7.08171H100.206V5.8358Z" fill="#231735"/>
<path d="M101.443 5.8358H102.68V7.08171H101.443V5.8358Z" fill="#231735"/>
<path d="M116.289 5.8358H117.526V7.08171H116.289V5.8358Z" fill="#231735"/>
<path d="M37.1134 7.08171H38.3505V8.32763H37.1134V7.08171Z" fill="#231735"/>
<path d="M38.3505 7.08171H39.5876V8.32763H38.3505V7.08171Z" fill="#231735"/>
<path d="M53.1959 7.08171H54.433V8.32763H53.1959V7.08171Z" fill="#231735"/>
<path d="M100.206 7.08171H101.443V8.32763H100.206V7.08171Z" fill="#231735"/>
<path d="M101.443 7.08171H102.68V8.32763H101.443V7.08171Z" fill="#231735"/>
<path d="M116.289 7.08171H117.526V8.32763H116.289V7.08171Z" fill="#231735"/>
<path d="M33.4021 8.32763H34.6392V9.57354H33.4021V8.32763Z" fill="#231735"/>
<path d="M37.1134 8.32763H38.3505V9.57354H37.1134V8.32763Z" fill="#231735"/>
<path d="M38.3505 8.32763H39.5876V9.57354H38.3505V8.32763Z" fill="#231735"/>
<path d="M51.9588 8.32763H53.1959V9.57354H51.9588V8.32763Z" fill="#231735"/>
<path d="M53.1959 8.32763H54.433V9.57354H53.1959V8.32763Z" fill="#231735"/>
<path d="M95.2577 8.32763H96.4948V9.57354H95.2577V8.32763Z" fill="#231735"/>
<path d="M96.4948 8.32763H97.732V9.57354H96.4948V8.32763Z" fill="#231735"/>
<path d="M100.206 8.32763H101.443V9.57354H100.206V8.32763Z" fill="#231735"/>
<path d="M101.443 8.32763H102.68V9.57354H101.443V8.32763Z" fill="#231735"/>
<path d="M115.052 8.32763H116.289V9.57354H115.052V8.32763Z" fill="#231735"/>
<path d="M116.289 8.32763H117.526V9.57354H116.289V8.32763Z" fill="#231735"/>
<path d="M2.47422 9.57354H3.71133V10.8195H2.47422V9.57354Z" fill="#231735"/>
<path d="M3.71133 9.57354H4.94846V10.8195H3.71133V9.57354Z" fill="#231735"/>
<path d="M7.42268 9.57354H8.65979V10.8195H7.42268V9.57354Z" fill="#231735"/>
<path d="M8.65979 9.57354H9.8969V10.8195H8.65979V9.57354Z" fill="#231735"/>
<path d="M9.8969 9.57354H11.134V10.8195H9.8969V9.57354Z" fill="#231735"/>
<path d="M11.134 9.57354H12.3711V10.8195H11.134V9.57354Z" fill="#231735"/>
<path d="M17.3196 9.57354H18.5567V10.8195H17.3196V9.57354Z" fill="#231735"/>
<path d="M18.5567 9.57354H19.7938V10.8195H18.5567V9.57354Z" fill="#231735"/>
<path d="M24.7423 9.57354H25.9794V10.8195H24.7423V9.57354Z" fill="#231735"/>
<path d="M25.9794 9.57354H27.2165V10.8195H25.9794V9.57354Z" fill="#231735"/>
<path d="M27.2165 9.57354H28.4536V10.8195H27.2165V9.57354Z" fill="#231735"/>
<path d="M28.4536 9.57354H29.6907V10.8195H28.4536V9.57354Z" fill="#231735"/>
<path d="M29.6907 9.57354H30.9278V10.8195H29.6907V9.57354Z" fill="#231735"/>
<path d="M30.9278 9.57354H32.1649V10.8195H30.9278V9.57354Z" fill="#231735"/>
<path d="M32.1649 9.57354H33.4021V10.8195H32.1649V9.57354Z" fill="#231735"/>
<path d="M33.4021 9.57354H34.6392V10.8195H33.4021V9.57354Z" fill="#231735"/>
<path d="M37.1134 9.57354H38.3505V10.8195H37.1134V9.57354Z" fill="#231735"/>
<path d="M38.3505 9.57354H39.5876V10.8195H38.3505V9.57354Z" fill="#231735"/>
<path d="M42.0619 9.57354H43.299V10.8195H42.0619V9.57354Z" fill="#231735"/>
<path d="M43.299 9.57354H44.5361V10.8195H43.299V9.57354Z" fill="#231735"/>
<path d="M44.5361 9.57354H45.7732V10.8195H44.5361V9.57354Z" fill="#231735"/>
<path d="M45.7732 9.57354H47.0103V10.8195H45.7732V9.57354Z" fill="#231735"/>
<path d="M49.4845 9.57354H50.7217V10.8195H49.4845V9.57354Z" fill="#231735"/>
<path d="M50.7217 9.57354H51.9588V10.8195H50.7217V9.57354Z" fill="#231735"/>
<path d="M51.9588 9.57354H53.1959V10.8195H51.9588V9.57354Z" fill="#231735"/>
<path d="M53.1959 9.57354H54.433V10.8195H53.1959V9.57354Z" fill="#231735"/>
<path d="M54.433 9.57354H55.6701V10.8195H54.433V9.57354Z" fill="#231735"/>
<path d="M55.6701 9.57354H56.9072V10.8195H55.6701V9.57354Z" fill="#231735"/>
<path d="M56.9072 9.57354H58.1443V10.8195H56.9072V9.57354Z" fill="#231735"/>
<path d="M60.6186 9.57354H61.8557V10.8195H60.6186V9.57354Z" fill="#231735"/>
<path d="M61.8557 9.57354H63.0928V10.8195H61.8557V9.57354Z" fill="#231735"/>
<path d="M63.0928 9.57354H64.3299V10.8195H63.0928V9.57354Z" fill="#231735"/>
<path d="M64.3299 9.57354H65.567V10.8195H64.3299V9.57354Z" fill="#231735"/>
<path d="M65.567 9.57354H66.8041V10.8195H65.567V9.57354Z" fill="#231735"/>
<path d="M66.8041 9.57354H68.0412V10.8195H66.8041V9.57354Z" fill="#231735"/>
<path d="M71.7526 9.57354H72.9897V10.8195H71.7526V9.57354Z" fill="#231735"/>
<path d="M72.9897 9.57354H74.2268V10.8195H72.9897V9.57354Z" fill="#231735"/>
<path d="M79.1753 9.57354H80.4124V10.8195H79.1753V9.57354Z" fill="#231735"/>
<path d="M80.4124 9.57354H81.6495V10.8195H80.4124V9.57354Z" fill="#231735"/>
<path d="M81.6495 9.57354H82.8866V10.8195H81.6495V9.57354Z" fill="#231735"/>
<path d="M87.8351 9.57354H89.0722V10.8195H87.8351V9.57354Z" fill="#231735"/>
<path d="M89.0722 9.57354H90.3093V10.8195H89.0722V9.57354Z" fill="#231735"/>
<path d="M90.3093 9.57354H91.5464V10.8195H90.3093V9.57354Z" fill="#231735"/>
<path d="M91.5464 9.57354H92.7835V10.8195H91.5464V9.57354Z" fill="#231735"/>
<path d="M92.7835 9.57354H94.0206V10.8195H92.7835V9.57354Z" fill="#231735"/>
<path d="M94.0206 9.57354H95.2577V10.8195H94.0206V9.57354Z" fill="#231735"/>
<path d="M95.2577 9.57354H96.4948V10.8195H95.2577V9.57354Z" fill="#231735"/>
<path d="M96.4948 9.57354H97.732V10.8195H96.4948V9.57354Z" fill="#231735"/>
<path d="M100.206 9.57354H101.443V10.8195H100.206V9.57354Z" fill="#231735"/>
<path d="M101.443 9.57354H102.68V10.8195H101.443V9.57354Z" fill="#231735"/>
<path d="M105.155 9.57354H106.392V10.8195H105.155V9.57354Z" fill="#231735"/>
<path d="M106.392 9.57354H107.629V10.8195H106.392V9.57354Z" fill="#231735"/>
<path d="M107.629 9.57354H108.866V10.8195H107.629V9.57354Z" fill="#231735"/>
<path d="M108.866 9.57354H110.103V10.8195H108.866V9.57354Z" fill="#231735"/>
<path d="M112.577 9.57354H113.814V10.8195H112.577V9.57354Z" fill="#231735"/>
<path d="M113.814 9.57354H115.052V10.8195H113.814V9.57354Z" fill="#231735"/>
<path d="M115.052 9.57354H116.289V10.8195H115.052V9.57354Z" fill="#231735"/>
<path d="M116.289 9.57354H117.526V10.8195H116.289V9.57354Z" fill="#231735"/>
<path d="M117.526 9.57354H118.763V10.8195H117.526V9.57354Z" fill="#231735"/>
<path d="M118.763 9.57354H120V10.8195H118.763V9.57354Z" fill="#231735"/>
<path d="M0 10.8195H1.23711V12.0654H0V10.8195Z" fill="#231735"/>
<path d="M1.23711 10.8195H2.47422V12.0654H1.23711V10.8195Z" fill="#231735"/>
<path d="M2.47422 10.8195H3.71133V12.0654H2.47422V10.8195Z" fill="#231735"/>
<path d="M3.71133 10.8195H4.94846V12.0654H3.71133V10.8195Z" fill="#231735"/>
<path d="M6.18555 10.8195H7.42268V12.0654H6.18555V10.8195Z" fill="#231735"/>
<path d="M7.42268 10.8195H8.65979V12.0654H7.42268V10.8195Z" fill="#231735"/>
<path d="M8.65979 10.8195H9.8969V12.0654H8.65979V10.8195Z" fill="#231735"/>
<path d="M9.8969 10.8195H11.134V12.0654H9.8969V10.8195Z" fill="#231735"/>
<path d="M11.134 10.8195H12.3711V12.0654H11.134V10.8195Z" fill="#231735"/>
<path d="M14.8454 10.8195H16.0825V12.0654H14.8454V10.8195Z" fill="#231735"/>
<path d="M16.0825 10.8195H17.3196V12.0654H16.0825V10.8195Z" fill="#231735"/>
<path d="M17.3196 10.8195H18.5567V12.0654H17.3196V10.8195Z" fill="#231735"/>
<path d="M18.5567 10.8195H19.7938V12.0654H18.5567V10.8195Z" fill="#231735"/>
<path d="M23.5052 10.8195H24.7423V12.0654H23.5052V10.8195Z" fill="#231735"/>
<path d="M24.7423 10.8195H25.9794V12.0654H24.7423V10.8195Z" fill="#231735"/>
<path d="M29.6907 10.8195H30.9278V12.0654H29.6907V10.8195Z" fill="#231735"/>
<path d="M30.9278 10.8195H32.1649V12.0654H30.9278V10.8195Z" fill="#231735"/>
<path d="M37.1134 10.8195H38.3505V12.0654H37.1134V10.8195Z" fill="#231735"/>
<path d="M38.3505 10.8195H39.5876V12.0654H38.3505V10.8195Z" fill="#231735"/>
<path d="M40.8247 10.8195H42.0619V12.0654H40.8247V10.8195Z" fill="#231735"/>
<path d="M42.0619 10.8195H43.299V12.0654H42.0619V10.8195Z" fill="#231735"/>
<path d="M43.299 10.8195H44.5361V12.0654H43.299V10.8195Z" fill="#231735"/>
<path d="M44.5361 10.8195H45.7732V12.0654H44.5361V10.8195Z" fill="#231735"/>
<path d="M45.7732 10.8195H47.0103V12.0654H45.7732V10.8195Z" fill="#231735"/>
<path d="M47.0103 10.8195H48.2474V12.0654H47.0103V10.8195Z" fill="#231735"/>
<path d="M51.9588 10.8195H53.1959V12.0654H51.9588V10.8195Z" fill="#231735"/>
<path d="M53.1959 10.8195H54.433V12.0654H53.1959V10.8195Z" fill="#231735"/>
<path d="M59.3814 10.8195H60.6186V12.0654H59.3814V10.8195Z" fill="#231735"/>
<path d="M60.6186 10.8195H61.8557V12.0654H60.6186V10.8195Z" fill="#231735"/>
<path d="M65.567 10.8195H66.8041V12.0654H65.567V10.8195Z" fill="#231735"/>
<path d="M66.8041 10.8195H68.0412V12.0654H66.8041V10.8195Z" fill="#231735"/>
<path d="M69.2784 10.8195H70.5155V12.0654H69.2784V10.8195Z" fill="#231735"/>
<path d="M70.5155 10.8195H71.7526V12.0654H70.5155V10.8195Z" fill="#231735"/>
<path d="M71.7526 10.8195H72.9897V12.0654H71.7526V10.8195Z" fill="#231735"/>
<path d="M72.9897 10.8195H74.2268V12.0654H72.9897V10.8195Z" fill="#231735"/>
<path d="M77.9381 10.8195H79.1753V12.0654H77.9381V10.8195Z" fill="#231735"/>
<path d="M79.1753 10.8195H80.4124V12.0654H79.1753V10.8195Z" fill="#231735"/>
<path d="M80.4124 10.8195H81.6495V12.0654H80.4124V10.8195Z" fill="#231735"/>
<path d="M81.6495 10.8195H82.8866V12.0654H81.6495V10.8195Z" fill="#231735"/>
<path d="M85.3608 10.8195H86.5979V12.0654H85.3608V10.8195Z" fill="#231735"/>
<path d="M86.5979 10.8195H87.8351V12.0654H86.5979V10.8195Z" fill="#231735"/>
<path d="M92.7835 10.8195H94.0206V12.0654H92.7835V10.8195Z" fill="#231735"/>
<path d="M94.0206 10.8195H95.2577V12.0654H94.0206V10.8195Z" fill="#231735"/>
<path d="M98.9691 10.8195H100.206V12.0654H98.9691V10.8195Z" fill="#231735"/>
<path d="M100.206 10.8195H101.443V12.0654H100.206V10.8195Z" fill="#231735"/>
<path d="M101.443 10.8195H102.68V12.0654H101.443V10.8195Z" fill="#231735"/>
<path d="M103.918 10.8195H105.155V12.0654H103.918V10.8195Z" fill="#231735"/>
<path d="M105.155 10.8195H106.392V12.0654H105.155V10.8195Z" fill="#231735"/>
<path d="M106.392 10.8195H107.629V12.0654H106.392V10.8195Z" fill="#231735"/>
<path d="M107.629 10.8195H108.866V12.0654H107.629V10.8195Z" fill="#231735"/>
<path d="M108.866 10.8195H110.103V12.0654H108.866V10.8195Z" fill="#231735"/>
<path d="M113.814 10.8195H115.052V12.0654H113.814V10.8195Z" fill="#231735"/>
<path d="M115.052 10.8195H116.289V12.0654H115.052V10.8195Z" fill="#231735"/>
<path d="M116.289 10.8195H117.526V12.0654H116.289V10.8195Z" fill="#231735"/>
<path d="M1.23711 12.0654H2.47422V13.3113H1.23711V12.0654Z" fill="#231735"/>
<path d="M2.47422 12.0654H3.71133V13.3113H2.47422V12.0654Z" fill="#231735"/>
<path d="M4.94846 12.0654H6.18555V13.3113H4.94846V12.0654Z" fill="#231735"/>
<path d="M9.8969 12.0654H11.134V13.3113H9.8969V12.0654Z" fill="#231735"/>
<path d="M11.134 12.0654H12.3711V13.3113H11.134V12.0654Z" fill="#231735"/>
<path d="M16.0825 12.0654H17.3196V13.3113H16.0825V12.0654Z" fill="#231735"/>
<path d="M17.3196 12.0654H18.5567V13.3113H17.3196V12.0654Z" fill="#231735"/>
<path d="M18.5567 12.0654H19.7938V13.3113H18.5567V12.0654Z" fill="#231735"/>
<path d="M22.268 12.0654H23.5052V13.3113H22.268V12.0654Z" fill="#231735"/>
<path d="M23.5052 12.0654H24.7423V13.3113H23.5052V12.0654Z" fill="#231735"/>
<path d="M29.6907 12.0654H30.9278V13.3113H29.6907V12.0654Z" fill="#231735"/>
<path d="M30.9278 12.0654H32.1649V13.3113H30.9278V12.0654Z" fill="#231735"/>
<path d="M32.1649 12.0654H33.4021V13.3113H32.1649V12.0654Z" fill="#231735"/>
<path d="M37.1134 12.0654H38.3505V13.3113H37.1134V12.0654Z" fill="#231735"/>
<path d="M38.3505 12.0654H39.5876V13.3113H38.3505V12.0654Z" fill="#231735"/>
<path d="M39.5876 12.0654H40.8247V13.3113H39.5876V12.0654Z" fill="#231735"/>
<path d="M44.5361 12.0654H45.7732V13.3113H44.5361V12.0654Z" fill="#231735"/>
<path d="M45.7732 12.0654H47.0103V13.3113H45.7732V12.0654Z" fill="#231735"/>
<path d="M47.0103 12.0654H48.2474V13.3113H47.0103V12.0654Z" fill="#231735"/>
<path d="M51.9588 12.0654H53.1959V13.3113H51.9588V12.0654Z" fill="#231735"/>
<path d="M53.1959 12.0654H54.433V13.3113H53.1959V12.0654Z" fill="#231735"/>
<path d="M59.3814 12.0654H60.6186V13.3113H59.3814V12.0654Z" fill="#231735"/>
<path d="M65.567 12.0654H66.8041V13.3113H65.567V12.0654Z" fill="#231735"/>
<path d="M66.8041 12.0654H68.0412V13.3113H66.8041V12.0654Z" fill="#231735"/>
<path d="M71.7526 12.0654H72.9897V13.3113H71.7526V12.0654Z" fill="#231735"/>
<path d="M72.9897 12.0654H74.2268V13.3113H72.9897V12.0654Z" fill="#231735"/>
<path d="M74.2268 12.0654H75.4639V13.3113H74.2268V12.0654Z" fill="#231735"/>
<path d="M76.7011 12.0654H77.9381V13.3113H76.7011V12.0654Z" fill="#231735"/>
<path d="M85.3608 12.0654H86.5979V13.3113H85.3608V12.0654Z" fill="#231735"/>
<path d="M86.5979 12.0654H87.8351V13.3113H86.5979V12.0654Z" fill="#231735"/>
<path d="M92.7835 12.0654H94.0206V13.3113H92.7835V12.0654Z" fill="#231735"/>
<path d="M94.0206 12.0654H95.2577V13.3113H94.0206V12.0654Z" fill="#231735"/>
<path d="M98.9691 12.0654H100.206V13.3113H98.9691V12.0654Z" fill="#231735"/>
<path d="M100.206 12.0654H101.443V13.3113H100.206V12.0654Z" fill="#231735"/>
<path d="M102.68 12.0654H103.918V13.3113H102.68V12.0654Z" fill="#231735"/>
<path d="M107.629 12.0654H108.866V13.3113H107.629V12.0654Z" fill="#231735"/>
<path d="M108.866 12.0654H110.103V13.3113H108.866V12.0654Z" fill="#231735"/>
<path d="M113.814 12.0654H115.052V13.3113H113.814V12.0654Z" fill="#231735"/>
<path d="M115.052 12.0654H116.289V13.3113H115.052V12.0654Z" fill="#231735"/>
<path d="M116.289 12.0654H117.526V13.3113H116.289V12.0654Z" fill="#231735"/>
<path d="M1.23711 13.3113H2.47422V14.5572H1.23711V13.3113Z" fill="#231735"/>
<path d="M2.47422 13.3113H3.71133V14.5572H2.47422V13.3113Z" fill="#231735"/>
<path d="M3.71133 13.3113H4.94846V14.5572H3.71133V13.3113Z" fill="#231735"/>
<path d="M9.8969 13.3113H11.134V14.5572H9.8969V13.3113Z" fill="#231735"/>
<path d="M11.134 13.3113H12.3711V14.5572H11.134V13.3113Z" fill="#231735"/>
<path d="M16.0825 13.3113H17.3196V14.5572H16.0825V13.3113Z" fill="#231735"/>
<path d="M17.3196 13.3113H18.5567V14.5572H17.3196V13.3113Z" fill="#231735"/>
<path d="M21.0309 13.3113H22.268V14.5572H21.0309V13.3113Z" fill="#231735"/>
<path d="M22.268 13.3113H23.5052V14.5572H22.268V13.3113Z" fill="#231735"/>
<path d="M23.5052 13.3113H24.7423V14.5572H23.5052V13.3113Z" fill="#231735"/>
<path d="M29.6907 13.3113H30.9278V14.5572H29.6907V13.3113Z" fill="#231735"/>
<path d="M30.9278 13.3113H32.1649V14.5572H30.9278V13.3113Z" fill="#231735"/>
<path d="M32.1649 13.3113H33.4021V14.5572H32.1649V13.3113Z" fill="#231735"/>
<path d="M35.8763 13.3113H37.1134V14.5572H35.8763V13.3113Z" fill="#231735"/>
<path d="M37.1134 13.3113H38.3505V14.5572H37.1134V13.3113Z" fill="#231735"/>
<path d="M38.3505 13.3113H39.5876V14.5572H38.3505V13.3113Z" fill="#231735"/>
<path d="M39.5876 13.3113H40.8247V14.5572H39.5876V13.3113Z" fill="#231735"/>
<path d="M44.5361 13.3113H45.7732V14.5572H44.5361V13.3113Z" fill="#231735"/>
<path d="M45.7732 13.3113H47.0103V14.5572H45.7732V13.3113Z" fill="#231735"/>
<path d="M47.0103 13.3113H48.2474V14.5572H47.0103V13.3113Z" fill="#231735"/>
<path d="M50.7217 13.3113H51.9588V14.5572H50.7217V13.3113Z" fill="#231735"/>
<path d="M51.9588 13.3113H53.1959V14.5572H51.9588V13.3113Z" fill="#231735"/>
<path d="M53.1959 13.3113H54.433V14.5572H53.1959V13.3113Z" fill="#231735"/>
<path d="M58.1443 13.3113H59.3814V14.5572H58.1443V13.3113Z" fill="#231735"/>
<path d="M59.3814 13.3113H60.6186V14.5572H59.3814V13.3113Z" fill="#231735"/>
<path d="M60.6186 13.3113H61.8557V14.5572H60.6186V13.3113Z" fill="#231735"/>
<path d="M71.7526 13.3113H72.9897V14.5572H71.7526V13.3113Z" fill="#231735"/>
<path d="M72.9897 13.3113H74.2268V14.5572H72.9897V13.3113Z" fill="#231735"/>
<path d="M74.2268 13.3113H75.4639V14.5572H74.2268V13.3113Z" fill="#231735"/>
<path d="M76.7011 13.3113H77.9381V14.5572H76.7011V13.3113Z" fill="#231735"/>
<path d="M84.1237 13.3113H85.3608V14.5572H84.1237V13.3113Z" fill="#231735"/>
<path d="M85.3608 13.3113H86.5979V14.5572H85.3608V13.3113Z" fill="#231735"/>
<path d="M92.7835 13.3113H94.0206V14.5572H92.7835V13.3113Z" fill="#231735"/>
<path d="M94.0206 13.3113H95.2577V14.5572H94.0206V13.3113Z" fill="#231735"/>
<path d="M98.9691 13.3113H100.206V14.5572H98.9691V13.3113Z" fill="#231735"/>
<path d="M100.206 13.3113H101.443V14.5572H100.206V13.3113Z" fill="#231735"/>
<path d="M101.443 13.3113H102.68V14.5572H101.443V13.3113Z" fill="#231735"/>
<path d="M107.629 13.3113H108.866V14.5572H107.629V13.3113Z" fill="#231735"/>
<path d="M108.866 13.3113H110.103V14.5572H108.866V13.3113Z" fill="#231735"/>
<path d="M113.814 13.3113H115.052V14.5572H113.814V13.3113Z" fill="#231735"/>
<path d="M115.052 13.3113H116.289V14.5572H115.052V13.3113Z" fill="#231735"/>
<path d="M1.23711 14.5572H2.47422V15.8031H1.23711V14.5572Z" fill="#231735"/>
<path d="M2.47422 14.5572H3.71133V15.8031H2.47422V14.5572Z" fill="#231735"/>
<path d="M3.71133 14.5572H4.94846V15.8031H3.71133V14.5572Z" fill="#231735"/>
<path d="M9.8969 14.5572H11.134V15.8031H9.8969V14.5572Z" fill="#231735"/>
<path d="M11.134 14.5572H12.3711V15.8031H11.134V14.5572Z" fill="#231735"/>
<path d="M16.0825 14.5572H17.3196V15.8031H16.0825V14.5572Z" fill="#231735"/>
<path d="M17.3196 14.5572H18.5567V15.8031H17.3196V14.5572Z" fill="#231735"/>
<path d="M21.0309 14.5572H22.268V15.8031H21.0309V14.5572Z" fill="#231735"/>
<path d="M22.268 14.5572H23.5052V15.8031H22.268V14.5572Z" fill="#231735"/>
<path d="M23.5052 14.5572H24.7423V15.8031H23.5052V14.5572Z" fill="#231735"/>
<path d="M29.6907 14.5572H30.9278V15.8031H29.6907V14.5572Z" fill="#231735"/>
<path d="M30.9278 14.5572H32.1649V15.8031H30.9278V14.5572Z" fill="#231735"/>
<path d="M32.1649 14.5572H33.4021V15.8031H32.1649V14.5572Z" fill="#231735"/>
<path d="M35.8763 14.5572H37.1134V15.8031H35.8763V14.5572Z" fill="#231735"/>
<path d="M37.1134 14.5572H38.3505V15.8031H37.1134V14.5572Z" fill="#231735"/>
<path d="M38.3505 14.5572H39.5876V15.8031H38.3505V14.5572Z" fill="#231735"/>
<path d="M44.5361 14.5572H45.7732V15.8031H44.5361V14.5572Z" fill="#231735"/>
<path d="M45.7732 14.5572H47.0103V15.8031H45.7732V14.5572Z" fill="#231735"/>
<path d="M50.7217 14.5572H51.9588V15.8031H50.7217V14.5572Z" fill="#231735"/>
<path d="M51.9588 14.5572H53.1959V15.8031H51.9588V14.5572Z" fill="#231735"/>
<path d="M53.1959 14.5572H54.433V15.8031H53.1959V14.5572Z" fill="#231735"/>
<path d="M58.1443 14.5572H59.3814V15.8031H58.1443V14.5572Z" fill="#231735"/>
<path d="M59.3814 14.5572H60.6186V15.8031H59.3814V14.5572Z" fill="#231735"/>
<path d="M60.6186 14.5572H61.8557V15.8031H60.6186V14.5572Z" fill="#231735"/>
<path d="M61.8557 14.5572H63.0928V15.8031H61.8557V14.5572Z" fill="#231735"/>
<path d="M72.9897 14.5572H74.2268V15.8031H72.9897V14.5572Z" fill="#231735"/>
<path d="M74.2268 14.5572H75.4639V15.8031H74.2268V14.5572Z" fill="#231735"/>
<path d="M75.4639 14.5572H76.7011V15.8031H75.4639V14.5572Z" fill="#231735"/>
<path d="M84.1237 14.5572H85.3608V15.8031H84.1237V14.5572Z" fill="#231735"/>
<path d="M85.3608 14.5572H86.5979V15.8031H85.3608V14.5572Z" fill="#231735"/>
<path d="M92.7835 14.5572H94.0206V15.8031H92.7835V14.5572Z" fill="#231735"/>
<path d="M94.0206 14.5572H95.2577V15.8031H94.0206V14.5572Z" fill="#231735"/>
<path d="M98.9691 14.5572H100.206V15.8031H98.9691V14.5572Z" fill="#231735"/>
<path d="M100.206 14.5572H101.443V15.8031H100.206V14.5572Z" fill="#231735"/>
<path d="M101.443 14.5572H102.68V15.8031H101.443V14.5572Z" fill="#231735"/>
<path d="M107.629 14.5572H108.866V15.8031H107.629V14.5572Z" fill="#231735"/>
<path d="M108.866 14.5572H110.103V15.8031H108.866V14.5572Z" fill="#231735"/>
<path d="M113.814 14.5572H115.052V15.8031H113.814V14.5572Z" fill="#231735"/>
<path d="M115.052 14.5572H116.289V15.8031H115.052V14.5572Z" fill="#231735"/>
<path d="M1.23711 15.8031H2.47422V17.049H1.23711V15.8031Z" fill="#231735"/>
<path d="M2.47422 15.8031H3.71133V17.049H2.47422V15.8031Z" fill="#231735"/>
<path d="M9.8969 15.8031H11.134V17.049H9.8969V15.8031Z" fill="#231735"/>
<path d="M11.134 15.8031H12.3711V17.049H11.134V15.8031Z" fill="#231735"/>
<path d="M16.0825 15.8031H17.3196V17.049H16.0825V15.8031Z" fill="#231735"/>
<path d="M17.3196 15.8031H18.5567V17.049H17.3196V15.8031Z" fill="#231735"/>
<path d="M21.0309 15.8031H22.268V17.049H21.0309V15.8031Z" fill="#231735"/>
<path d="M22.268 15.8031H23.5052V17.049H22.268V15.8031Z" fill="#231735"/>
<path d="M23.5052 15.8031H24.7423V17.049H23.5052V15.8031Z" fill="#231735"/>
<path d="M29.6907 15.8031H30.9278V17.049H29.6907V15.8031Z" fill="#231735"/>
<path d="M30.9278 15.8031H32.1649V17.049H30.9278V15.8031Z" fill="#231735"/>
<path d="M35.8763 15.8031H37.1134V17.049H35.8763V15.8031Z" fill="#231735"/>
<path d="M37.1134 15.8031H38.3505V17.049H37.1134V15.8031Z" fill="#231735"/>
<path d="M38.3505 15.8031H39.5876V17.049H38.3505V15.8031Z" fill="#231735"/>
<path d="M44.5361 15.8031H45.7732V17.049H44.5361V15.8031Z" fill="#231735"/>
<path d="M45.7732 15.8031H47.0103V17.049H45.7732V15.8031Z" fill="#231735"/>
<path d="M50.7217 15.8031H51.9588V17.049H50.7217V15.8031Z" fill="#231735"/>
<path d="M51.9588 15.8031H53.1959V17.049H51.9588V15.8031Z" fill="#231735"/>
<path d="M59.3814 15.8031H60.6186V17.049H59.3814V15.8031Z" fill="#231735"/>
<path d="M60.6186 15.8031H61.8557V17.049H60.6186V15.8031Z" fill="#231735"/>
<path d="M61.8557 15.8031H63.0928V17.049H61.8557V15.8031Z" fill="#231735"/>
<path d="M63.0928 15.8031H64.3299V17.049H63.0928V15.8031Z" fill="#231735"/>
<path d="M64.3299 15.8031H65.567V17.049H64.3299V15.8031Z" fill="#231735"/>
<path d="M72.9897 15.8031H74.2268V17.049H72.9897V15.8031Z" fill="#231735"/>
<path d="M74.2268 15.8031H75.4639V17.049H74.2268V15.8031Z" fill="#231735"/>
<path d="M75.4639 15.8031H76.7011V17.049H75.4639V15.8031Z" fill="#231735"/>
<path d="M84.1237 15.8031H85.3608V17.049H84.1237V15.8031Z" fill="#231735"/>
<path d="M85.3608 15.8031H86.5979V17.049H85.3608V15.8031Z" fill="#231735"/>
<path d="M92.7835 15.8031H94.0206V17.049H92.7835V15.8031Z" fill="#231735"/>
<path d="M94.0206 15.8031H95.2577V17.049H94.0206V15.8031Z" fill="#231735"/>
<path d="M98.9691 15.8031H100.206V17.049H98.9691V15.8031Z" fill="#231735"/>
<path d="M100.206 15.8031H101.443V17.049H100.206V15.8031Z" fill="#231735"/>
<path d="M107.629 15.8031H108.866V17.049H107.629V15.8031Z" fill="#231735"/>
<path d="M108.866 15.8031H110.103V17.049H108.866V15.8031Z" fill="#231735"/>
<path d="M113.814 15.8031H115.052V17.049H113.814V15.8031Z" fill="#231735"/>
<path d="M115.052 15.8031H116.289V17.049H115.052V15.8031Z" fill="#231735"/>
<path d="M0 17.049H1.23711V18.2949H0V17.049Z" fill="#231735"/>
<path d="M1.23711 17.049H2.47422V18.2949H1.23711V17.049Z" fill="#231735"/>
<path d="M2.47422 17.049H3.71133V18.2949H2.47422V17.049Z" fill="#231735"/>
<path d="M8.65979 17.049H9.8969V18.2949H8.65979V17.049Z" fill="#231735"/>
<path d="M9.8969 17.049H11.134V18.2949H9.8969V17.049Z" fill="#231735"/>
<path d="M11.134 17.049H12.3711V18.2949H11.134V17.049Z" fill="#231735"/>
<path d="M16.0825 17.049H17.3196V18.2949H16.0825V17.049Z" fill="#231735"/>
<path d="M17.3196 17.049H18.5567V18.2949H17.3196V17.049Z" fill="#231735"/>
<path d="M21.0309 17.049H22.268V18.2949H21.0309V17.049Z" fill="#231735"/>
<path d="M22.268 17.049H23.5052V18.2949H22.268V17.049Z" fill="#231735"/>
<path d="M23.5052 17.049H24.7423V18.2949H23.5052V17.049Z" fill="#231735"/>
<path d="M29.6907 17.049H30.9278V18.2949H29.6907V17.049Z" fill="#231735"/>
<path d="M30.9278 17.049H32.1649V18.2949H30.9278V17.049Z" fill="#231735"/>
<path d="M35.8763 17.049H37.1134V18.2949H35.8763V17.049Z" fill="#231735"/>
<path d="M37.1134 17.049H38.3505V18.2949H37.1134V17.049Z" fill="#231735"/>
<path d="M44.5361 17.049H45.7732V18.2949H44.5361V17.049Z" fill="#231735"/>
<path d="M45.7732 17.049H47.0103V18.2949H45.7732V17.049Z" fill="#231735"/>
<path d="M50.7217 17.049H51.9588V18.2949H50.7217V17.049Z" fill="#231735"/>
<path d="M51.9588 17.049H53.1959V18.2949H51.9588V17.049Z" fill="#231735"/>
<path d="M60.6186 17.049H61.8557V18.2949H60.6186V17.049Z" fill="#231735"/>
<path d="M61.8557 17.049H63.0928V18.2949H61.8557V17.049Z" fill="#231735"/>
<path d="M63.0928 17.049H64.3299V18.2949H63.0928V17.049Z" fill="#231735"/>
<path d="M64.3299 17.049H65.567V18.2949H64.3299V17.049Z" fill="#231735"/>
<path d="M65.567 17.049H66.8041V18.2949H65.567V17.049Z" fill="#231735"/>
<path d="M74.2268 17.049H75.4639V18.2949H74.2268V17.049Z" fill="#231735"/>
<path d="M75.4639 17.049H76.7011V18.2949H75.4639V17.049Z" fill="#231735"/>
<path d="M84.1237 17.049H85.3608V18.2949H84.1237V17.049Z" fill="#231735"/>
<path d="M85.3608 17.049H86.5979V18.2949H85.3608V17.049Z" fill="#231735"/>
<path d="M91.5464 17.049H92.7835V18.2949H91.5464V17.049Z" fill="#231735"/>
<path d="M92.7835 17.049H94.0206V18.2949H92.7835V17.049Z" fill="#231735"/>
<path d="M94.0206 17.049H95.2577V18.2949H94.0206V17.049Z" fill="#231735"/>
<path d="M98.9691 17.049H100.206V18.2949H98.9691V17.049Z" fill="#231735"/>
<path d="M100.206 17.049H101.443V18.2949H100.206V17.049Z" fill="#231735"/>
<path d="M107.629 17.049H108.866V18.2949H107.629V17.049Z" fill="#231735"/>
<path d="M108.866 17.049H110.103V18.2949H108.866V17.049Z" fill="#231735"/>
<path d="M113.814 17.049H115.052V18.2949H113.814V17.049Z" fill="#231735"/>
<path d="M115.052 17.049H116.289V18.2949H115.052V17.049Z" fill="#231735"/>
<path d="M0 18.2949H1.23711V19.5409H0V18.2949Z" fill="#231735"/>
<path d="M1.23711 18.2949H2.47422V19.5409H1.23711V18.2949Z" fill="#231735"/>
<path d="M2.47422 18.2949H3.71133V19.5409H2.47422V18.2949Z" fill="#231735"/>
<path d="M8.65979 18.2949H9.8969V19.5409H8.65979V18.2949Z" fill="#231735"/>
<path d="M9.8969 18.2949H11.134V19.5409H9.8969V18.2949Z" fill="#231735"/>
<path d="M11.134 18.2949H12.3711V19.5409H11.134V18.2949Z" fill="#231735"/>
<path d="M16.0825 18.2949H17.3196V19.5409H16.0825V18.2949Z" fill="#231735"/>
<path d="M17.3196 18.2949H18.5567V19.5409H17.3196V18.2949Z" fill="#231735"/>
<path d="M22.268 18.2949H23.5052V19.5409H22.268V18.2949Z" fill="#231735"/>
<path d="M23.5052 18.2949H24.7423V19.5409H23.5052V18.2949Z" fill="#231735"/>
<path d="M28.4536 18.2949H29.6907V19.5409H28.4536V18.2949Z" fill="#231735"/>
<path d="M29.6907 18.2949H30.9278V19.5409H29.6907V18.2949Z" fill="#231735"/>
<path d="M35.8763 18.2949H37.1134V19.5409H35.8763V18.2949Z" fill="#231735"/>
<path d="M37.1134 18.2949H38.3505V19.5409H37.1134V18.2949Z" fill="#231735"/>
<path d="M44.5361 18.2949H45.7732V19.5409H44.5361V18.2949Z" fill="#231735"/>
<path d="M45.7732 18.2949H47.0103V19.5409H45.7732V18.2949Z" fill="#231735"/>
<path d="M50.7217 18.2949H51.9588V19.5409H50.7217V18.2949Z" fill="#231735"/>
<path d="M51.9588 18.2949H53.1959V19.5409H51.9588V18.2949Z" fill="#231735"/>
<path d="M63.0928 18.2949H64.3299V19.5409H63.0928V18.2949Z" fill="#231735"/>
<path d="M64.3299 18.2949H65.567V19.5409H64.3299V18.2949Z" fill="#231735"/>
<path d="M65.567 18.2949H66.8041V19.5409H65.567V18.2949Z" fill="#231735"/>
<path d="M66.8041 18.2949H68.0412V19.5409H66.8041V18.2949Z" fill="#231735"/>
<path d="M74.2268 18.2949H75.4639V19.5409H74.2268V18.2949Z" fill="#231735"/>
<path d="M75.4639 18.2949H76.7011V19.5409H75.4639V18.2949Z" fill="#231735"/>
<path d="M76.7011 18.2949H77.9381V19.5409H76.7011V18.2949Z" fill="#231735"/>
<path d="M84.1237 18.2949H85.3608V19.5409H84.1237V18.2949Z" fill="#231735"/>
<path d="M85.3608 18.2949H86.5979V19.5409H85.3608V18.2949Z" fill="#231735"/>
<path d="M91.5464 18.2949H92.7835V19.5409H91.5464V18.2949Z" fill="#231735"/>
<path d="M92.7835 18.2949H94.0206V19.5409H92.7835V18.2949Z" fill="#231735"/>
<path d="M97.732 18.2949H98.9691V19.5409H97.732V18.2949Z" fill="#231735"/>
<path d="M98.9691 18.2949H100.206V19.5409H98.9691V18.2949Z" fill="#231735"/>
<path d="M100.206 18.2949H101.443V19.5409H100.206V18.2949Z" fill="#231735"/>
<path d="M106.392 18.2949H107.629V19.5409H106.392V18.2949Z" fill="#231735"/>
<path d="M107.629 18.2949H108.866V19.5409H107.629V18.2949Z" fill="#231735"/>
<path d="M108.866 18.2949H110.103V19.5409H108.866V18.2949Z" fill="#231735"/>
<path d="M112.577 18.2949H113.814V19.5409H112.577V18.2949Z" fill="#231735"/>
<path d="M113.814 18.2949H115.052V19.5409H113.814V18.2949Z" fill="#231735"/>
<path d="M115.052 18.2949H116.289V19.5409H115.052V18.2949Z" fill="#231735"/>
<path d="M0 19.5409H1.23711V20.7868H0V19.5409Z" fill="#231735"/>
<path d="M1.23711 19.5409H2.47422V20.7868H1.23711V19.5409Z" fill="#231735"/>
<path d="M8.65979 19.5409H9.8969V20.7868H8.65979V19.5409Z" fill="#231735"/>
<path d="M9.8969 19.5409H11.134V20.7868H9.8969V19.5409Z" fill="#231735"/>
<path d="M14.8454 19.5409H16.0825V20.7868H14.8454V19.5409Z" fill="#231735"/>
<path d="M16.0825 19.5409H17.3196V20.7868H16.0825V19.5409Z" fill="#231735"/>
<path d="M17.3196 19.5409H18.5567V20.7868H17.3196V19.5409Z" fill="#231735"/>
<path d="M22.268 19.5409H23.5052V20.7868H22.268V19.5409Z" fill="#231735"/>
<path d="M23.5052 19.5409H24.7423V20.7868H23.5052V19.5409Z" fill="#231735"/>
<path d="M24.7423 19.5409H25.9794V20.7868H24.7423V19.5409Z" fill="#231735"/>
<path d="M25.9794 19.5409H27.2165V20.7868H25.9794V19.5409Z" fill="#231735"/>
<path d="M27.2165 19.5409H28.4536V20.7868H27.2165V19.5409Z" fill="#231735"/>
<path d="M28.4536 19.5409H29.6907V20.7868H28.4536V19.5409Z" fill="#231735"/>
<path d="M35.8763 19.5409H37.1134V20.7868H35.8763V19.5409Z" fill="#231735"/>
<path d="M37.1134 19.5409H38.3505V20.7868H37.1134V19.5409Z" fill="#231735"/>
<path d="M44.5361 19.5409H45.7732V20.7868H44.5361V19.5409Z" fill="#231735"/>
<path d="M45.7732 19.5409H47.0103V20.7868H45.7732V19.5409Z" fill="#231735"/>
<path d="M50.7217 19.5409H51.9588V20.7868H50.7217V19.5409Z" fill="#231735"/>
<path d="M51.9588 19.5409H53.1959V20.7868H51.9588V19.5409Z" fill="#231735"/>
<path d="M64.3299 19.5409H65.567V20.7868H64.3299V19.5409Z" fill="#231735"/>
<path d="M65.567 19.5409H66.8041V20.7868H65.567V19.5409Z" fill="#231735"/>
<path d="M66.8041 19.5409H68.0412V20.7868H66.8041V19.5409Z" fill="#231735"/>
<path d="M72.9897 19.5409H74.2268V20.7868H72.9897V19.5409Z" fill="#231735"/>
<path d="M75.4639 19.5409H76.7011V20.7868H75.4639V19.5409Z" fill="#231735"/>
<path d="M76.7011 19.5409H77.9381V20.7868H76.7011V19.5409Z" fill="#231735"/>
<path d="M85.3608 19.5409H86.5979V20.7868H85.3608V19.5409Z" fill="#231735"/>
<path d="M86.5979 19.5409H87.8351V20.7868H86.5979V19.5409Z" fill="#231735"/>
<path d="M87.8351 19.5409H89.0722V20.7868H87.8351V19.5409Z" fill="#231735"/>
<path d="M89.0722 19.5409H90.3093V20.7868H89.0722V19.5409Z" fill="#231735"/>
<path d="M90.3093 19.5409H91.5464V20.7868H90.3093V19.5409Z" fill="#231735"/>
<path d="M91.5464 19.5409H92.7835V20.7868H91.5464V19.5409Z" fill="#231735"/>
<path d="M97.732 19.5409H98.9691V20.7868H97.732V19.5409Z" fill="#231735"/>
<path d="M98.9691 19.5409H100.206V20.7868H98.9691V19.5409Z" fill="#231735"/>
<path d="M100.206 19.5409H101.443V20.7868H100.206V19.5409Z" fill="#231735"/>
<path d="M106.392 19.5409H107.629V20.7868H106.392V19.5409Z" fill="#231735"/>
<path d="M107.629 19.5409H108.866V20.7868H107.629V19.5409Z" fill="#231735"/>
<path d="M112.577 19.5409H113.814V20.7868H112.577V19.5409Z" fill="#231735"/>
<path d="M113.814 19.5409H115.052V20.7868H113.814V19.5409Z" fill="#231735"/>
<path d="M115.052 19.5409H116.289V20.7868H115.052V19.5409Z" fill="#231735"/>
<path d="M0 20.7868H1.23711V22.0327H0V20.7868Z" fill="#231735"/>
<path d="M1.23711 20.7868H2.47422V22.0327H1.23711V20.7868Z" fill="#231735"/>
<path d="M8.65979 20.7868H9.8969V22.0327H8.65979V20.7868Z" fill="#231735"/>
<path d="M9.8969 20.7868H11.134V22.0327H9.8969V20.7868Z" fill="#231735"/>
<path d="M14.8454 20.7868H16.0825V22.0327H14.8454V20.7868Z" fill="#231735"/>
<path d="M16.0825 20.7868H17.3196V22.0327H16.0825V20.7868Z" fill="#231735"/>
<path d="M21.0309 20.7868H22.268V22.0327H21.0309V20.7868Z" fill="#231735"/>
<path d="M34.6392 20.7868H35.8763V22.0327H34.6392V20.7868Z" fill="#231735"/>
<path d="M35.8763 20.7868H37.1134V22.0327H35.8763V20.7868Z" fill="#231735"/>
<path d="M37.1134 20.7868H38.3505V22.0327H37.1134V20.7868Z" fill="#231735"/>
<path d="M43.299 20.7868H44.5361V22.0327H43.299V20.7868Z" fill="#231735"/>
<path d="M44.5361 20.7868H45.7732V22.0327H44.5361V20.7868Z" fill="#231735"/>
<path d="M45.7732 20.7868H47.0103V22.0327H45.7732V20.7868Z" fill="#231735"/>
<path d="M49.4845 20.7868H50.7217V22.0327H49.4845V20.7868Z" fill="#231735"/>
<path d="M50.7217 20.7868H51.9588V22.0327H50.7217V20.7868Z" fill="#231735"/>
<path d="M51.9588 20.7868H53.1959V22.0327H51.9588V20.7868Z" fill="#231735"/>
<path d="M58.1443 20.7868H59.3814V22.0327H58.1443V20.7868Z" fill="#231735"/>
<path d="M65.567 20.7868H66.8041V22.0327H65.567V20.7868Z" fill="#231735"/>
<path d="M66.8041 20.7868H68.0412V22.0327H66.8041V20.7868Z" fill="#231735"/>
<path d="M72.9897 20.7868H74.2268V22.0327H72.9897V20.7868Z" fill="#231735"/>
<path d="M75.4639 20.7868H76.7011V22.0327H75.4639V20.7868Z" fill="#231735"/>
<path d="M76.7011 20.7868H77.9381V22.0327H76.7011V20.7868Z" fill="#231735"/>
<path d="M77.9381 20.7868H79.1753V22.0327H77.9381V20.7868Z" fill="#231735"/>
<path d="M84.1237 20.7868H85.3608V22.0327H84.1237V20.7868Z" fill="#231735"/>
<path d="M97.732 20.7868H98.9691V22.0327H97.732V20.7868Z" fill="#231735"/>
<path d="M98.9691 20.7868H100.206V22.0327H98.9691V20.7868Z" fill="#231735"/>
<path d="M106.392 20.7868H107.629V22.0327H106.392V20.7868Z" fill="#231735"/>
<path d="M107.629 20.7868H108.866V22.0327H107.629V20.7868Z" fill="#231735"/>
<path d="M112.577 20.7868H113.814V22.0327H112.577V20.7868Z" fill="#231735"/>
<path d="M113.814 20.7868H115.052V22.0327H113.814V20.7868Z" fill="#231735"/>
<path d="M0 22.0327H1.23711V23.2786H0V22.0327Z" fill="#231735"/>
<path d="M1.23711 22.0327H2.47422V23.2786H1.23711V22.0327Z" fill="#231735"/>
<path d="M8.65979 22.0327H9.8969V23.2786H8.65979V22.0327Z" fill="#231735"/>
<path d="M9.8969 22.0327H11.134V23.2786H9.8969V22.0327Z" fill="#231735"/>
<path d="M14.8454 22.0327H16.0825V23.2786H14.8454V22.0327Z" fill="#231735"/>
<path d="M16.0825 22.0327H17.3196V23.2786H16.0825V22.0327Z" fill="#231735"/>
<path d="M19.7938 22.0327H21.0309V23.2786H19.7938V22.0327Z" fill="#231735"/>
<path d="M21.0309 22.0327H22.268V23.2786H21.0309V22.0327Z" fill="#231735"/>
<path d="M22.268 22.0327H23.5052V23.2786H22.268V22.0327Z" fill="#231735"/>
<path d="M23.5052 22.0327H24.7423V23.2786H23.5052V22.0327Z" fill="#231735"/>
<path d="M24.7423 22.0327H25.9794V23.2786H24.7423V22.0327Z" fill="#231735"/>
<path d="M25.9794 22.0327H27.2165V23.2786H25.9794V22.0327Z" fill="#231735"/>
<path d="M27.2165 22.0327H28.4536V23.2786H27.2165V22.0327Z" fill="#231735"/>
<path d="M28.4536 22.0327H29.6907V23.2786H28.4536V22.0327Z" fill="#231735"/>
<path d="M34.6392 22.0327H35.8763V23.2786H34.6392V22.0327Z" fill="#231735"/>
<path d="M35.8763 22.0327H37.1134V23.2786H35.8763V22.0327Z" fill="#231735"/>
<path d="M37.1134 22.0327H38.3505V23.2786H37.1134V22.0327Z" fill="#231735"/>
<path d="M43.299 22.0327H44.5361V23.2786H43.299V22.0327Z" fill="#231735"/>
<path d="M44.5361 22.0327H45.7732V23.2786H44.5361V22.0327Z" fill="#231735"/>
<path d="M45.7732 22.0327H47.0103V23.2786H45.7732V22.0327Z" fill="#231735"/>
<path d="M49.4845 22.0327H50.7217V23.2786H49.4845V22.0327Z" fill="#231735"/>
<path d="M50.7217 22.0327H51.9588V23.2786H50.7217V22.0327Z" fill="#231735"/>
<path d="M51.9588 22.0327H53.1959V23.2786H51.9588V22.0327Z" fill="#231735"/>
<path d="M55.6701 22.0327H56.9072V23.2786H55.6701V22.0327Z" fill="#231735"/>
<path d="M56.9072 22.0327H58.1443V23.2786H56.9072V22.0327Z" fill="#231735"/>
<path d="M58.1443 22.0327H59.3814V23.2786H58.1443V22.0327Z" fill="#231735"/>
<path d="M59.3814 22.0327H60.6186V23.2786H59.3814V22.0327Z" fill="#231735"/>
<path d="M65.567 22.0327H66.8041V23.2786H65.567V22.0327Z" fill="#231735"/>
<path d="M66.8041 22.0327H68.0412V23.2786H66.8041V22.0327Z" fill="#231735"/>
<path d="M68.0412 22.0327H69.2784V23.2786H68.0412V22.0327Z" fill="#231735"/>
<path d="M69.2784 22.0327H70.5155V23.2786H69.2784V22.0327Z" fill="#231735"/>
<path d="M71.7526 22.0327H72.9897V23.2786H71.7526V22.0327Z" fill="#231735"/>
<path d="M76.7011 22.0327H77.9381V23.2786H76.7011V22.0327Z" fill="#231735"/>
<path d="M77.9381 22.0327H79.1753V23.2786H77.9381V22.0327Z" fill="#231735"/>
<path d="M82.8866 22.0327H84.1237V23.2786H82.8866V22.0327Z" fill="#231735"/>
<path d="M84.1237 22.0327H85.3608V23.2786H84.1237V22.0327Z" fill="#231735"/>
<path d="M85.3608 22.0327H86.5979V23.2786H85.3608V22.0327Z" fill="#231735"/>
<path d="M86.5979 22.0327H87.8351V23.2786H86.5979V22.0327Z" fill="#231735"/>
<path d="M87.8351 22.0327H89.0722V23.2786H87.8351V22.0327Z" fill="#231735"/>
<path d="M89.0722 22.0327H90.3093V23.2786H89.0722V22.0327Z" fill="#231735"/>
<path d="M90.3093 22.0327H91.5464V23.2786H90.3093V22.0327Z" fill="#231735"/>
<path d="M91.5464 22.0327H92.7835V23.2786H91.5464V22.0327Z" fill="#231735"/>
<path d="M97.732 22.0327H98.9691V23.2786H97.732V22.0327Z" fill="#231735"/>
<path d="M98.9691 22.0327H100.206V23.2786H98.9691V22.0327Z" fill="#231735"/>
<path d="M106.392 22.0327H107.629V23.2786H106.392V22.0327Z" fill="#231735"/>
<path d="M107.629 22.0327H108.866V23.2786H107.629V22.0327Z" fill="#231735"/>
<path d="M112.577 22.0327H113.814V23.2786H112.577V22.0327Z" fill="#231735"/>
<path d="M113.814 22.0327H115.052V23.2786H113.814V22.0327Z" fill="#231735"/>
<path d="M0 23.2786H1.23711V24.5245H0V23.2786Z" fill="#231735"/>
<path d="M1.23711 23.2786H2.47422V24.5245H1.23711V23.2786Z" fill="#231735"/>
<path d="M8.65979 23.2786H9.8969V24.5245H8.65979V23.2786Z" fill="#231735"/>
<path d="M9.8969 23.2786H11.134V24.5245H9.8969V23.2786Z" fill="#231735"/>
<path d="M12.3711 23.2786H13.6082V24.5245H12.3711V23.2786Z" fill="#231735"/>
<path d="M14.8454 23.2786H16.0825V24.5245H14.8454V23.2786Z" fill="#231735"/>
<path d="M16.0825 23.2786H17.3196V24.5245H16.0825V23.2786Z" fill="#231735"/>
<path d="M17.3196 23.2786H18.5567V24.5245H17.3196V23.2786Z" fill="#231735"/>
<path d="M18.5567 23.2786H19.7938V24.5245H18.5567V23.2786Z" fill="#231735"/>
<path d="M19.7938 23.2786H21.0309V24.5245H19.7938V23.2786Z" fill="#231735"/>
<path d="M21.0309 23.2786H22.268V24.5245H21.0309V23.2786Z" fill="#231735"/>
<path d="M22.268 23.2786H23.5052V24.5245H22.268V23.2786Z" fill="#231735"/>
<path d="M23.5052 23.2786H24.7423V24.5245H23.5052V23.2786Z" fill="#231735"/>
<path d="M24.7423 23.2786H25.9794V24.5245H24.7423V23.2786Z" fill="#231735"/>
<path d="M25.9794 23.2786H27.2165V24.5245H25.9794V23.2786Z" fill="#231735"/>
<path d="M27.2165 23.2786H28.4536V24.5245H27.2165V23.2786Z" fill="#231735"/>
<path d="M28.4536 23.2786H29.6907V24.5245H28.4536V23.2786Z" fill="#231735"/>
<path d="M29.6907 23.2786H30.9278V24.5245H29.6907V23.2786Z" fill="#231735"/>
<path d="M30.9278 23.2786H32.1649V24.5245H30.9278V23.2786Z" fill="#231735"/>
<path d="M34.6392 23.2786H35.8763V24.5245H34.6392V23.2786Z" fill="#231735"/>
<path d="M35.8763 23.2786H37.1134V24.5245H35.8763V23.2786Z" fill="#231735"/>
<path d="M43.299 23.2786H44.5361V24.5245H43.299V23.2786Z" fill="#231735"/>
<path d="M44.5361 23.2786H45.7732V24.5245H44.5361V23.2786Z" fill="#231735"/>
<path d="M45.7732 23.2786H47.0103V24.5245H45.7732V23.2786Z" fill="#231735"/>
<path d="M47.0103 23.2786H48.2474V24.5245H47.0103V23.2786Z" fill="#231735"/>
<path d="M50.7217 23.2786H51.9588V24.5245H50.7217V23.2786Z" fill="#231735"/>
<path d="M51.9588 23.2786H53.1959V24.5245H51.9588V23.2786Z" fill="#231735"/>
<path d="M53.1959 23.2786H54.433V24.5245H53.1959V23.2786Z" fill="#231735"/>
<path d="M54.433 23.2786H55.6701V24.5245H54.433V23.2786Z" fill="#231735"/>
<path d="M56.9072 23.2786H58.1443V24.5245H56.9072V23.2786Z" fill="#231735"/>
<path d="M58.1443 23.2786H59.3814V24.5245H58.1443V23.2786Z" fill="#231735"/>
<path d="M59.3814 23.2786H60.6186V24.5245H59.3814V23.2786Z" fill="#231735"/>
<path d="M64.3299 23.2786H65.567V24.5245H64.3299V23.2786Z" fill="#231735"/>
<path d="M65.567 23.2786H66.8041V24.5245H65.567V23.2786Z" fill="#231735"/>
<path d="M68.0412 23.2786H69.2784V24.5245H68.0412V23.2786Z" fill="#231735"/>
<path d="M69.2784 23.2786H70.5155V24.5245H69.2784V23.2786Z" fill="#231735"/>
<path d="M70.5155 23.2786H71.7526V24.5245H70.5155V23.2786Z" fill="#231735"/>
<path d="M76.7011 23.2786H77.9381V24.5245H76.7011V23.2786Z" fill="#231735"/>
<path d="M77.9381 23.2786H79.1753V24.5245H77.9381V23.2786Z" fill="#231735"/>
<path d="M79.1753 23.2786H80.4124V24.5245H79.1753V23.2786Z" fill="#231735"/>
<path d="M80.4124 23.2786H81.6495V24.5245H80.4124V23.2786Z" fill="#231735"/>
<path d="M82.8866 23.2786H84.1237V24.5245H82.8866V23.2786Z" fill="#231735"/>
<path d="M84.1237 23.2786H85.3608V24.5245H84.1237V23.2786Z" fill="#231735"/>
<path d="M85.3608 23.2786H86.5979V24.5245H85.3608V23.2786Z" fill="#231735"/>
<path d="M86.5979 23.2786H87.8351V24.5245H86.5979V23.2786Z" fill="#231735"/>
<path d="M87.8351 23.2786H89.0722V24.5245H87.8351V23.2786Z" fill="#231735"/>
<path d="M89.0722 23.2786H90.3093V24.5245H89.0722V23.2786Z" fill="#231735"/>
<path d="M90.3093 23.2786H91.5464V24.5245H90.3093V23.2786Z" fill="#231735"/>
<path d="M91.5464 23.2786H92.7835V24.5245H91.5464V23.2786Z" fill="#231735"/>
<path d="M92.7835 23.2786H94.0206V24.5245H92.7835V23.2786Z" fill="#231735"/>
<path d="M94.0206 23.2786H95.2577V24.5245H94.0206V23.2786Z" fill="#231735"/>
<path d="M97.732 23.2786H98.9691V24.5245H97.732V23.2786Z" fill="#231735"/>
<path d="M98.9691 23.2786H100.206V24.5245H98.9691V23.2786Z" fill="#231735"/>
<path d="M106.392 23.2786H107.629V24.5245H106.392V23.2786Z" fill="#231735"/>
<path d="M107.629 23.2786H108.866V24.5245H107.629V23.2786Z" fill="#231735"/>
<path d="M110.103 23.2786H111.34V24.5245H110.103V23.2786Z" fill="#231735"/>
<path d="M112.577 23.2786H113.814V24.5245H112.577V23.2786Z" fill="#231735"/>
<path d="M113.814 23.2786H115.052V24.5245H113.814V23.2786Z" fill="#231735"/>
<path d="M115.052 23.2786H116.289V24.5245H115.052V23.2786Z" fill="#231735"/>
<path d="M116.289 23.2786H117.526V24.5245H116.289V23.2786Z" fill="#231735"/>
<path d="M117.526 23.2786H118.763V24.5245H117.526V23.2786Z" fill="#231735"/>
<path d="M8.65979 24.5245H9.8969V25.7704H8.65979V24.5245Z" fill="#231735"/>
<path d="M9.8969 24.5245H11.134V25.7704H9.8969V24.5245Z" fill="#231735"/>
<path d="M11.134 24.5245H12.3711V25.7704H11.134V24.5245Z" fill="#231735"/>
<path d="M14.8454 24.5245H16.0825V25.7704H14.8454V24.5245Z" fill="#231735"/>
<path d="M16.0825 24.5245H17.3196V25.7704H16.0825V24.5245Z" fill="#231735"/>
<path d="M17.3196 24.5245H18.5567V25.7704H17.3196V24.5245Z" fill="#231735"/>
<path d="M21.0309 24.5245H22.268V25.7704H21.0309V24.5245Z" fill="#231735"/>
<path d="M23.5052 24.5245H24.7423V25.7704H23.5052V24.5245Z" fill="#231735"/>
<path d="M24.7423 24.5245H25.9794V25.7704H24.7423V24.5245Z" fill="#231735"/>
<path d="M25.9794 24.5245H27.2165V25.7704H25.9794V24.5245Z" fill="#231735"/>
<path d="M27.2165 24.5245H28.4536V25.7704H27.2165V24.5245Z" fill="#231735"/>
<path d="M28.4536 24.5245H29.6907V25.7704H28.4536V24.5245Z" fill="#231735"/>
<path d="M29.6907 24.5245H30.9278V25.7704H29.6907V24.5245Z" fill="#231735"/>
<path d="M30.9278 24.5245H32.1649V25.7704H30.9278V24.5245Z" fill="#231735"/>
<path d="M44.5361 24.5245H45.7732V25.7704H44.5361V24.5245Z" fill="#231735"/>
<path d="M45.7732 24.5245H47.0103V25.7704H45.7732V24.5245Z" fill="#231735"/>
<path d="M50.7217 24.5245H51.9588V25.7704H50.7217V24.5245Z" fill="#231735"/>
<path d="M51.9588 24.5245H53.1959V25.7704H51.9588V24.5245Z" fill="#231735"/>
<path d="M53.1959 24.5245H54.433V25.7704H53.1959V24.5245Z" fill="#231735"/>
<path d="M59.3814 24.5245H60.6186V25.7704H59.3814V24.5245Z" fill="#231735"/>
<path d="M60.6186 24.5245H61.8557V25.7704H60.6186V24.5245Z" fill="#231735"/>
<path d="M61.8557 24.5245H63.0928V25.7704H61.8557V24.5245Z" fill="#231735"/>
<path d="M63.0928 24.5245H64.3299V25.7704H63.0928V24.5245Z" fill="#231735"/>
<path d="M68.0412 24.5245H69.2784V25.7704H68.0412V24.5245Z" fill="#231735"/>
<path d="M69.2784 24.5245H70.5155V25.7704H69.2784V24.5245Z" fill="#231735"/>
<path d="M77.9381 24.5245H79.1753V25.7704H77.9381V24.5245Z" fill="#231735"/>
<path d="M79.1753 24.5245H80.4124V25.7704H79.1753V24.5245Z" fill="#231735"/>
<path d="M84.1237 24.5245H85.3608V25.7704H84.1237V24.5245Z" fill="#231735"/>
<path d="M86.5979 24.5245H87.8351V25.7704H86.5979V24.5245Z" fill="#231735"/>
<path d="M87.8351 24.5245H89.0722V25.7704H87.8351V24.5245Z" fill="#231735"/>
<path d="M89.0722 24.5245H90.3093V25.7704H89.0722V24.5245Z" fill="#231735"/>
<path d="M90.3093 24.5245H91.5464V25.7704H90.3093V24.5245Z" fill="#231735"/>
<path d="M91.5464 24.5245H92.7835V25.7704H91.5464V24.5245Z" fill="#231735"/>
<path d="M92.7835 24.5245H94.0206V25.7704H92.7835V24.5245Z" fill="#231735"/>
<path d="M94.0206 24.5245H95.2577V25.7704H94.0206V24.5245Z" fill="#231735"/>
<path d="M106.392 24.5245H107.629V25.7704H106.392V24.5245Z" fill="#231735"/>
<path d="M107.629 24.5245H108.866V25.7704H107.629V24.5245Z" fill="#231735"/>
<path d="M108.866 24.5245H110.103V25.7704H108.866V24.5245Z" fill="#231735"/>
<path d="M113.814 24.5245H115.052V25.7704H113.814V24.5245Z" fill="#231735"/>
<path d="M115.052 24.5245H116.289V25.7704H115.052V24.5245Z" fill="#231735"/>
<path d="M116.289 24.5245H117.526V25.7704H116.289V24.5245Z" fill="#231735"/>
<path d="M18.5567 25.7704H19.7938V27.0163H18.5567V25.7704Z" fill="#231735"/>
<path d="M19.7938 25.7704H21.0309V27.0163H19.7938V25.7704Z" fill="#231735"/>
<path d="M30.9278 25.7704H32.1649V27.0163H30.9278V25.7704Z" fill="#231735"/>
<path d="M81.6495 25.7704H82.8866V27.0163H81.6495V25.7704Z" fill="#231735"/>
<path d="M82.8866 25.7704H84.1237V27.0163H82.8866V25.7704Z" fill="#231735"/>
<path d="M94.0206 25.7704H95.2577V27.0163H94.0206V25.7704Z" fill="#231735"/>
<path d="M18.5567 27.0163H19.7938V28.2623H18.5567V27.0163Z" fill="#231735"/>
<path d="M19.7938 27.0163H21.0309V28.2623H19.7938V27.0163Z" fill="#231735"/>
<path d="M30.9278 27.0163H32.1649V28.2623H30.9278V27.0163Z" fill="#231735"/>
<path d="M80.4124 27.0163H81.6495V28.2623H80.4124V27.0163Z" fill="#231735"/>
<path d="M81.6495 27.0163H82.8866V28.2623H81.6495V27.0163Z" fill="#231735"/>
<path d="M94.0206 27.0163H95.2577V28.2623H94.0206V27.0163Z" fill="#231735"/>
<path d="M17.3196 28.2623H18.5567V29.5082H17.3196V28.2623Z" fill="#231735"/>
<path d="M18.5567 28.2623H19.7938V29.5082H18.5567V28.2623Z" fill="#231735"/>
<path d="M19.7938 28.2623H21.0309V29.5082H19.7938V28.2623Z" fill="#231735"/>
<path d="M29.6907 28.2623H30.9278V29.5082H29.6907V28.2623Z" fill="#231735"/>
<path d="M80.4124 28.2623H81.6495V29.5082H80.4124V28.2623Z" fill="#231735"/>
<path d="M81.6495 28.2623H82.8866V29.5082H81.6495V28.2623Z" fill="#231735"/>
<path d="M82.8866 28.2623H84.1237V29.5082H82.8866V28.2623Z" fill="#231735"/>
<path d="M92.7835 28.2623H94.0206V29.5082H92.7835V28.2623Z" fill="#231735"/>
<path d="M18.5567 29.5082H19.7938V30.7541H18.5567V29.5082Z" fill="#231735"/>
<path d="M19.7938 29.5082H21.0309V30.7541H19.7938V29.5082Z" fill="#231735"/>
<path d="M21.0309 29.5082H22.268V30.7541H21.0309V29.5082Z" fill="#231735"/>
<path d="M22.268 29.5082H23.5052V30.7541H22.268V29.5082Z" fill="#231735"/>
<path d="M23.5052 29.5082H24.7423V30.7541H23.5052V29.5082Z" fill="#231735"/>
<path d="M24.7423 29.5082H25.9794V30.7541H24.7423V29.5082Z" fill="#231735"/>
<path d="M25.9794 29.5082H27.2165V30.7541H25.9794V29.5082Z" fill="#231735"/>
<path d="M27.2165 29.5082H28.4536V30.7541H27.2165V29.5082Z" fill="#231735"/>
<path d="M28.4536 29.5082H29.6907V30.7541H28.4536V29.5082Z" fill="#231735"/>
<path d="M80.4124 29.5082H81.6495V30.7541H80.4124V29.5082Z" fill="#231735"/>
<path d="M81.6495 29.5082H82.8866V30.7541H81.6495V29.5082Z" fill="#231735"/>
<path d="M82.8866 29.5082H84.1237V30.7541H82.8866V29.5082Z" fill="#231735"/>
<path d="M84.1237 29.5082H85.3608V30.7541H84.1237V29.5082Z" fill="#231735"/>
<path d="M85.3608 29.5082H86.5979V30.7541H85.3608V29.5082Z" fill="#231735"/>
<path d="M86.5979 29.5082H87.8351V30.7541H86.5979V29.5082Z" fill="#231735"/>
<path d="M87.8351 29.5082H89.0722V30.7541H87.8351V29.5082Z" fill="#231735"/>
<path d="M89.0722 29.5082H90.3093V30.7541H89.0722V29.5082Z" fill="#231735"/>
<path d="M90.3093 29.5082H91.5464V30.7541H90.3093V29.5082Z" fill="#231735"/>
<path d="M91.5464 29.5082H92.7835V30.7541H91.5464V29.5082Z" fill="#231735"/>
<path d="M19.7938 30.7541H21.0309V32H19.7938V30.7541Z" fill="#231735"/>
<path d="M21.0309 30.7541H22.268V32H21.0309V30.7541Z" fill="#231735"/>
<path d="M22.268 30.7541H23.5052V32H22.268V30.7541Z" fill="#231735"/>
<path d="M23.5052 30.7541H24.7423V32H23.5052V30.7541Z" fill="#231735"/>
<path d="M24.7423 30.7541H25.9794V32H24.7423V30.7541Z" fill="#231735"/>
<path d="M25.9794 30.7541H27.2165V32H25.9794V30.7541Z" fill="#231735"/>
<path d="M82.8866 30.7541H84.1237V32H82.8866V30.7541Z" fill="#231735"/>
<path d="M84.1237 30.7541H85.3608V32H84.1237V30.7541Z" fill="#231735"/>
<path d="M85.3608 30.7541H86.5979V32H85.3608V30.7541Z" fill="#231735"/>
<path d="M86.5979 30.7541H87.8351V32H86.5979V30.7541Z" fill="#231735"/>
<path d="M87.8351 30.7541H89.0722V32H87.8351V30.7541Z" fill="#231735"/>
<path d="M89.0722 30.7541H90.3093V32H89.0722V30.7541Z" fill="#231735"/>
<path d="M16.0825 2.49183H17.3196V3.73774H16.0825V2.49183Z" fill="#231735"/>
<path d="M17.3196 2.49183H18.5567V3.73774H17.3196V2.49183Z" fill="#231735"/>
<path d="M18.5567 2.49183H19.7938V3.73774H18.5567V2.49183Z" fill="#231735"/>
<path d="M16.0825 3.73774H17.3196V4.98366H16.0825V3.73774Z" fill="#231735"/>
<path d="M17.3196 3.73774H18.5567V4.98366H17.3196V3.73774Z" fill="#231735"/>
<path d="M18.5567 3.73774H19.7938V4.98366H18.5567V3.73774Z" fill="#231735"/>
<path d="M16.0825 4.98366H17.3196V6.22957H16.0825L16.0825 4.98366Z" fill="#231735"/>
<path d="M17.3196 4.98366H18.5567V6.22957H17.3196V4.98366Z" fill="#231735"/>
<path d="M18.5567 1.24591H19.7938V2.49183H18.5567L18.5567 1.24591Z" fill="#231735"/>
<path d="M19.7938 1.24591H21.0309V2.49183H19.7938V1.24591Z" fill="#231735"/>
<path d="M19.7938 0H21.0309L21.0309 1.24591H19.7938V0Z" fill="#231735"/>
<path d="M14.8453 3.73774H16.0825V4.98366L14.8453 4.98365V3.73774Z" fill="#231735"/>
<path d="M14.8453 4.98365L16.0825 4.98366L16.0825 6.22957H14.8453L14.8453 4.98365Z" fill="#231735"/>
<path d="M14.8453 6.22957H16.0825L16.0824 7.47548H14.8453L14.8453 6.22957Z" fill="#231735"/>
<path d="M13.6082 6.22957L14.8453 6.22957L14.8453 7.47548H13.6082L13.6082 6.22957Z" fill="#231735"/>
<path d="M13.6082 7.47548H14.8453V8.72139H13.6082V7.47548Z" fill="#231735"/>
</svg>
